G04 #@! TF.GenerationSoftware,KiCad,Pcbnew,(5.1.0)-1*
G04 #@! TF.CreationDate,2019-04-09T18:07:06-05:00*
G04 #@! TF.ProjectId,3000_Society_Badge_K5,33303030-5f53-46f6-9369-6574795f4261,2*
G04 #@! TF.SameCoordinates,Original*
G04 #@! TF.FileFunction,Copper,L1,Top*
G04 #@! TF.FilePolarity,Positive*
%FSLAX46Y46*%
G04 Gerber Fmt 4.6, Leading zero omitted, Abs format (unit mm)*
G04 Created by KiCad (PCBNEW (5.1.0)-1) date 2019-04-09 18:07:06*
%MOMM*%
%LPD*%
G04 APERTURE LIST*
%ADD10C,0.050000*%
%ADD11C,0.300000*%
%ADD12C,0.036000*%
%ADD13C,0.010000*%
%ADD14C,0.100000*%
%ADD15C,1.400000*%
%ADD16C,1.600000*%
%ADD17R,1.600000X1.600000*%
%ADD18O,1.070000X1.800000*%
%ADD19R,1.070000X1.800000*%
%ADD20C,1.070000*%
%ADD21C,1.070000*%
%ADD22C,1.700000*%
%ADD23C,1.000000*%
%ADD24C,0.250000*%
G04 APERTURE END LIST*
D10*
X208220000Y-78910000D02*
X202213905Y-78911379D01*
X201006095Y-67888621D02*
X208220000Y-78910000D01*
X195010000Y-67890000D02*
X201006095Y-67888621D01*
X202213905Y-78911379D02*
X195010000Y-67890000D01*
X138800000Y-26000000D02*
X139900000Y-23900000D01*
X143900000Y-26000000D02*
X138800000Y-26000000D01*
X142800000Y-23900000D02*
X143900000Y-26000000D01*
X139900000Y-23900000D02*
X142800000Y-23900000D01*
D11*
X248008000Y-149244857D02*
X247508000Y-149244857D01*
X247508000Y-150030571D02*
X247508000Y-148530571D01*
X248222285Y-148530571D01*
X248793714Y-150030571D02*
X248793714Y-149030571D01*
X248793714Y-149316285D02*
X248865142Y-149173428D01*
X248936571Y-149102000D01*
X249079428Y-149030571D01*
X249222285Y-149030571D01*
X249936571Y-150030571D02*
X249793714Y-149959142D01*
X249722285Y-149887714D01*
X249650857Y-149744857D01*
X249650857Y-149316285D01*
X249722285Y-149173428D01*
X249793714Y-149102000D01*
X249936571Y-149030571D01*
X250150857Y-149030571D01*
X250293714Y-149102000D01*
X250365142Y-149173428D01*
X250436571Y-149316285D01*
X250436571Y-149744857D01*
X250365142Y-149887714D01*
X250293714Y-149959142D01*
X250150857Y-150030571D01*
X249936571Y-150030571D01*
X251079428Y-149030571D02*
X251079428Y-150030571D01*
X251079428Y-149173428D02*
X251150857Y-149102000D01*
X251293714Y-149030571D01*
X251508000Y-149030571D01*
X251650857Y-149102000D01*
X251722285Y-149244857D01*
X251722285Y-150030571D01*
X252222285Y-149030571D02*
X252793714Y-149030571D01*
X252436571Y-148530571D02*
X252436571Y-149816285D01*
X252508000Y-149959142D01*
X252650857Y-150030571D01*
X252793714Y-150030571D01*
X255293714Y-149887714D02*
X255222285Y-149959142D01*
X255008000Y-150030571D01*
X254865142Y-150030571D01*
X254650857Y-149959142D01*
X254508000Y-149816285D01*
X254436571Y-149673428D01*
X254365142Y-149387714D01*
X254365142Y-149173428D01*
X254436571Y-148887714D01*
X254508000Y-148744857D01*
X254650857Y-148602000D01*
X254865142Y-148530571D01*
X255008000Y-148530571D01*
X255222285Y-148602000D01*
X255293714Y-148673428D01*
X256150857Y-150030571D02*
X256008000Y-149959142D01*
X255936571Y-149887714D01*
X255865142Y-149744857D01*
X255865142Y-149316285D01*
X255936571Y-149173428D01*
X256008000Y-149102000D01*
X256150857Y-149030571D01*
X256365142Y-149030571D01*
X256508000Y-149102000D01*
X256579428Y-149173428D01*
X256650857Y-149316285D01*
X256650857Y-149744857D01*
X256579428Y-149887714D01*
X256508000Y-149959142D01*
X256365142Y-150030571D01*
X256150857Y-150030571D01*
X257293714Y-149030571D02*
X257293714Y-150530571D01*
X257293714Y-149102000D02*
X257436571Y-149030571D01*
X257722285Y-149030571D01*
X257865142Y-149102000D01*
X257936571Y-149173428D01*
X258008000Y-149316285D01*
X258008000Y-149744857D01*
X257936571Y-149887714D01*
X257865142Y-149959142D01*
X257722285Y-150030571D01*
X257436571Y-150030571D01*
X257293714Y-149959142D01*
X258650857Y-149030571D02*
X258650857Y-150530571D01*
X258650857Y-149102000D02*
X258793714Y-149030571D01*
X259079428Y-149030571D01*
X259222285Y-149102000D01*
X259293714Y-149173428D01*
X259365142Y-149316285D01*
X259365142Y-149744857D01*
X259293714Y-149887714D01*
X259222285Y-149959142D01*
X259079428Y-150030571D01*
X258793714Y-150030571D01*
X258650857Y-149959142D01*
X260579428Y-149959142D02*
X260436571Y-150030571D01*
X260150857Y-150030571D01*
X260008000Y-149959142D01*
X259936571Y-149816285D01*
X259936571Y-149244857D01*
X260008000Y-149102000D01*
X260150857Y-149030571D01*
X260436571Y-149030571D01*
X260579428Y-149102000D01*
X260650857Y-149244857D01*
X260650857Y-149387714D01*
X259936571Y-149530571D01*
X261293714Y-150030571D02*
X261293714Y-149030571D01*
X261293714Y-149316285D02*
X261365142Y-149173428D01*
X261436571Y-149102000D01*
X261579428Y-149030571D01*
X261722285Y-149030571D01*
D12*
X72909999Y-183773750D02*
X73142500Y-183905001D01*
X78576248Y-186098751D02*
X80222499Y-186398750D01*
X66921248Y-169810625D02*
X67022500Y-171211251D01*
X69129999Y-180117500D02*
X69253749Y-180338751D01*
X93640000Y-184235000D02*
X94419999Y-183822500D01*
X66938125Y-162380000D02*
X66825625Y-164196875D01*
X71260000Y-182307501D02*
X72909999Y-183773750D01*
X92492500Y-184741250D02*
X93126249Y-184490001D01*
X68286249Y-178643750D02*
X68679999Y-179322500D01*
X90234999Y-185592501D02*
X91735000Y-185041251D01*
X67146248Y-172628751D02*
X67135000Y-172906250D01*
X68265625Y-156715625D02*
X67928125Y-157756251D01*
X69795625Y-153695000D02*
X69503125Y-154229375D01*
X67135000Y-172906250D02*
X67078748Y-174650000D01*
X91735000Y-185041251D02*
X92492500Y-184741250D01*
X88802500Y-186005000D02*
X90234999Y-185592501D01*
X70183748Y-181295001D02*
X71260000Y-182307501D01*
X67078748Y-174650000D02*
X67127499Y-174905001D01*
X80222499Y-186398750D02*
X81778750Y-186511250D01*
X73967499Y-184280000D02*
X75535000Y-185037500D01*
X67022500Y-171211251D02*
X67146248Y-172628751D01*
X69503125Y-154229375D02*
X69193748Y-154780625D01*
X66696248Y-167290625D02*
X66797500Y-168297500D01*
X69193748Y-154780625D02*
X68839375Y-155410625D01*
X67558750Y-176817501D02*
X68027499Y-178137500D01*
X68027499Y-178137500D02*
X68286249Y-178643750D01*
X68839375Y-155410625D02*
X68490625Y-156181252D01*
X67050625Y-161609375D02*
X66938125Y-162380000D01*
X67630000Y-158853125D02*
X67410625Y-159680000D01*
X84474999Y-186511250D02*
X87058748Y-186316250D01*
X99332500Y-181227501D02*
X99868750Y-180983750D01*
X68679999Y-179322500D02*
X69129999Y-180117500D01*
X81778750Y-186511250D02*
X84474999Y-186511250D01*
X75958749Y-185236250D02*
X78576248Y-186098751D01*
X66696248Y-166868751D02*
X66696248Y-167290625D01*
X66825625Y-164196875D02*
X66713125Y-166334375D01*
X68490625Y-156181252D02*
X68265625Y-156715625D01*
X73142500Y-183905001D02*
X73967499Y-184280000D01*
X100600000Y-180657500D02*
X101290000Y-180301250D01*
X67410625Y-159680000D02*
X67050625Y-161609375D01*
X95946248Y-182963750D02*
X96767500Y-182525000D01*
X100206250Y-180826250D02*
X100600000Y-180657500D01*
X99868750Y-180983750D02*
X100206250Y-180826250D01*
X98706249Y-181516250D02*
X99332500Y-181227501D01*
X66797500Y-168297500D02*
X66921248Y-169810625D01*
X98064999Y-181850000D02*
X98706249Y-181516250D01*
X97442500Y-182161251D02*
X98064999Y-181850000D01*
X96767500Y-182525000D02*
X97442500Y-182161251D01*
X87058748Y-186316250D02*
X88802500Y-186005000D01*
X95158748Y-183410001D02*
X95946248Y-182963750D01*
X67127499Y-174905001D02*
X67558750Y-176817501D01*
X67928125Y-157756251D02*
X67630000Y-158853125D01*
X94419999Y-183822500D02*
X95158748Y-183410001D01*
X93126249Y-184490001D02*
X93640000Y-184235000D01*
X75535000Y-185037500D02*
X75958749Y-185236250D01*
X66713125Y-166334375D02*
X66696248Y-166868751D01*
X69253749Y-180338751D02*
X70183748Y-181295001D01*
X75938125Y-146826875D02*
X75561248Y-147080000D01*
X80663125Y-145291252D02*
X79498748Y-145516252D01*
X82063748Y-145060625D02*
X81715000Y-145105625D01*
X87188125Y-138755000D02*
X87694375Y-139109375D01*
X84932500Y-145049375D02*
X84043748Y-145010000D01*
X76742500Y-136730000D02*
X76883125Y-136634375D01*
X87750625Y-145426252D02*
X86878748Y-145285625D01*
X86743748Y-138400625D02*
X87188125Y-138755000D01*
X89134375Y-139711252D02*
X89612500Y-139823752D01*
X92515000Y-147085625D02*
X91896248Y-146793125D01*
X85331875Y-136926875D02*
X85686248Y-137388125D01*
X88594375Y-145606252D02*
X87750625Y-145426252D01*
X93752500Y-144610625D02*
X93893125Y-146146252D01*
X90068125Y-146090000D02*
X89325625Y-145831252D01*
X77788748Y-136398125D02*
X80207500Y-136409375D01*
X91896248Y-146793125D02*
X91406875Y-146579375D01*
X87694375Y-139109375D02*
X88105000Y-139362500D01*
X76883125Y-136634375D02*
X77096875Y-136550000D01*
X93893125Y-146146252D02*
X92981875Y-147321875D01*
X91980625Y-139868752D02*
X93482500Y-141685625D01*
X89753125Y-139863125D02*
X91553125Y-139880000D01*
X85686248Y-137388125D02*
X86006875Y-137714375D01*
X77501875Y-136426252D02*
X77788748Y-136398125D01*
X84960625Y-136392500D02*
X85123748Y-136662500D01*
X76849375Y-146337500D02*
X75938125Y-146826875D01*
X90715000Y-146315000D02*
X90068125Y-146090000D01*
X77096875Y-136550000D02*
X77293748Y-136482500D01*
X71415625Y-151169375D02*
X70965625Y-151816252D01*
X76601875Y-136904375D02*
X76742500Y-136730000D01*
X91553125Y-139880000D02*
X91980625Y-139868752D01*
X74503748Y-147867500D02*
X74222500Y-148120625D01*
X75561248Y-147080000D02*
X75083125Y-147417500D01*
X77614375Y-145971875D02*
X77203748Y-146168752D01*
X79498748Y-145516252D02*
X78193748Y-145797500D01*
X88751875Y-139598752D02*
X89134375Y-139711252D01*
X86006875Y-137714375D02*
X86400625Y-138119375D01*
X81715000Y-145105625D02*
X80663125Y-145291252D01*
X85123748Y-136662500D02*
X85331875Y-136926875D01*
X93482500Y-141685625D02*
X93752500Y-144610625D01*
X70150000Y-153048125D02*
X69795625Y-153695000D01*
X80207500Y-136409375D02*
X84960625Y-136392500D01*
X89612500Y-139823752D02*
X89753125Y-139863125D01*
X70543748Y-152418125D02*
X70150000Y-153048125D01*
X70965625Y-151816252D02*
X70543748Y-152418125D01*
X71978125Y-150466252D02*
X71415625Y-151169375D01*
X72591248Y-149780000D02*
X71978125Y-150466252D01*
X86400625Y-138119375D02*
X86743748Y-138400625D01*
X73001875Y-149335625D02*
X72591248Y-149780000D01*
X86878748Y-145285625D02*
X85309375Y-145077500D01*
X73705000Y-148626875D02*
X73001875Y-149335625D01*
X74222500Y-148120625D02*
X73705000Y-148626875D01*
X85309375Y-145077500D02*
X84932500Y-145049375D01*
X88386248Y-139475000D02*
X88751875Y-139598752D01*
X89325625Y-145831252D02*
X88594375Y-145606252D01*
X76444375Y-137185625D02*
X76601875Y-136904375D01*
X88105000Y-139362500D02*
X88386248Y-139475000D01*
X75083125Y-147417500D02*
X74503748Y-147867500D01*
X92981875Y-147321875D02*
X92515000Y-147085625D01*
X84043748Y-145010000D02*
X82862500Y-145021252D01*
X78193748Y-145797500D02*
X77614375Y-145971875D01*
X77203748Y-146168752D02*
X76849375Y-146337500D01*
X82862500Y-145021252D02*
X82063748Y-145060625D01*
X91406875Y-146579375D02*
X90715000Y-146315000D01*
X77293748Y-136482500D02*
X77501875Y-136426252D01*
X44393125Y-133681252D02*
X44488750Y-133996252D01*
X44590000Y-126188752D02*
X44252500Y-127881875D01*
X71100625Y-143440625D02*
X71590000Y-143131252D01*
X75544375Y-138980000D02*
X75853748Y-138434375D01*
X73710625Y-141185000D02*
X74554375Y-140228752D01*
X44843125Y-134918752D02*
X45304375Y-135897500D01*
X76264375Y-137534375D02*
X76444375Y-137185625D01*
X49191249Y-140988125D02*
X49596249Y-141320000D01*
X49247500Y-117395000D02*
X48325000Y-118430000D01*
X76095625Y-137928125D02*
X76264375Y-137534375D01*
X63585625Y-146180000D02*
X64260625Y-146028125D01*
X55609375Y-144470000D02*
X56953749Y-144976252D01*
X44044375Y-131560625D02*
X44196250Y-132556252D01*
X72844375Y-142056875D02*
X73710625Y-141185000D01*
X71944375Y-142861252D02*
X72304375Y-142568752D01*
X54287500Y-143879375D02*
X55609375Y-144470000D01*
X44044375Y-129867500D02*
X44044375Y-131560625D01*
X71590000Y-143131252D02*
X71944375Y-142861252D01*
X70549375Y-143766875D02*
X71100625Y-143440625D01*
X69874375Y-144160625D02*
X70549375Y-143766875D01*
X69261248Y-144464375D02*
X69874375Y-144160625D01*
X68681875Y-144745625D02*
X69261248Y-144464375D01*
X44095000Y-128922500D02*
X44044375Y-129867500D01*
X44252500Y-127881875D02*
X44095000Y-128922500D01*
X52735000Y-114516875D02*
X50987500Y-115715000D01*
X44955625Y-124670000D02*
X44590000Y-126188752D01*
X56953749Y-144976252D02*
X58264375Y-145415000D01*
X47987500Y-118842500D02*
X47297500Y-119877500D01*
X61290625Y-146219375D02*
X62320000Y-146219375D01*
X59980000Y-145983125D02*
X60379375Y-146095625D01*
X45445000Y-136178752D02*
X45979375Y-136994375D01*
X67922500Y-145015625D02*
X68681875Y-144745625D01*
X48454375Y-140200625D02*
X49191249Y-140988125D01*
X64260625Y-146028125D02*
X65076249Y-145831252D01*
X62320000Y-146219375D02*
X63585625Y-146180000D01*
X45304375Y-135897500D02*
X45445000Y-136178752D01*
X47297500Y-119877500D02*
X46607499Y-121002500D01*
X51103749Y-142310000D02*
X51806875Y-142715000D01*
X58264375Y-145415000D02*
X59980000Y-145983125D01*
X67258748Y-145251875D02*
X67922500Y-145015625D01*
X65076249Y-145831252D02*
X66122500Y-145578125D01*
X60379375Y-146095625D02*
X61290625Y-146219375D01*
X47515000Y-139058752D02*
X48454375Y-140200625D01*
X46626249Y-137877500D02*
X47515000Y-139058752D01*
X45979375Y-136994375D02*
X46626249Y-137877500D01*
X45407500Y-123470000D02*
X44955625Y-124670000D01*
X44488750Y-133996252D02*
X44843125Y-134918752D01*
X50147500Y-116457500D02*
X49247500Y-117395000D01*
X46120000Y-121925000D02*
X45745000Y-122705000D01*
X48325000Y-118430000D02*
X47987500Y-118842500D01*
X52583125Y-143120000D02*
X53426875Y-143502500D01*
X74554375Y-140228752D02*
X75122500Y-139542500D01*
X72304375Y-142568752D02*
X72844375Y-142056875D01*
X75853748Y-138434375D02*
X76095625Y-137928125D01*
X44196250Y-132556252D02*
X44393125Y-133681252D01*
X66122500Y-145578125D02*
X67258748Y-145251875D01*
X75122500Y-139542500D02*
X75544375Y-138980000D01*
X50321875Y-141860000D02*
X51103749Y-142310000D01*
X51806875Y-142715000D02*
X52583125Y-143120000D01*
X45745000Y-122705000D02*
X45407500Y-123470000D01*
X49596249Y-141320000D02*
X50321875Y-141860000D01*
X46607499Y-121002500D02*
X46120000Y-121925000D01*
X50987500Y-115715000D02*
X50147500Y-116457500D01*
X53426875Y-143502500D02*
X54287500Y-143879375D01*
X53376249Y-114111875D02*
X52735000Y-114516875D01*
X53983749Y-113746253D02*
X53376249Y-114111875D01*
X55519375Y-113003753D02*
X54585625Y-113453753D01*
X56560000Y-112520000D02*
X55519375Y-113003753D01*
X58468749Y-111721253D02*
X57488125Y-112098125D01*
X117568747Y-31317500D02*
X103978748Y-31193755D01*
X103978748Y-31193755D02*
X63163749Y-94424375D01*
X63131323Y-110892324D02*
X62642500Y-110960000D01*
X59931250Y-111391250D02*
X59331249Y-111507500D01*
X61254999Y-111158750D02*
X60636249Y-111260000D01*
X106920625Y-48147500D02*
X117568747Y-31317500D01*
X127085406Y-20650532D02*
X120735569Y-31916605D01*
X62012500Y-111046250D02*
X61254999Y-111158750D01*
X62642500Y-110960000D02*
X62012500Y-111046250D01*
X63163749Y-94424375D02*
X63131323Y-110892324D01*
X111943747Y-48102500D02*
X106920625Y-48147500D01*
X119486875Y-31910938D02*
X119484999Y-35161251D01*
X120735569Y-31916605D02*
X119486875Y-31910938D01*
X57488125Y-112098125D02*
X56560000Y-112520000D01*
X54585625Y-113453753D02*
X53983749Y-113746253D01*
X59331249Y-111507500D02*
X58468749Y-111721253D01*
X60636249Y-111260000D02*
X59931250Y-111391250D01*
X119484999Y-35161251D02*
X111943747Y-48102500D01*
X227821562Y-135242188D02*
X228839687Y-134024375D01*
X234062500Y-126312500D02*
X234531250Y-124876250D01*
X201288437Y-149282188D02*
X201991562Y-149183752D01*
X210850000Y-143592500D02*
X212552500Y-142115000D01*
X230155000Y-131333750D02*
X231332499Y-130763750D01*
X228955794Y-131598677D02*
X229054264Y-131585971D01*
X214990000Y-139317500D02*
X215125441Y-139347148D01*
X235931323Y-120413265D02*
X237244264Y-120423853D01*
X228921911Y-131593383D02*
X228955794Y-131598677D01*
X214074999Y-140585000D02*
X214465000Y-140082500D01*
X234531250Y-124876250D02*
X234786249Y-123833750D01*
X231332499Y-130763750D02*
X232262500Y-130043750D01*
X234786249Y-123833750D02*
X235138750Y-122183750D01*
X233500000Y-128292500D02*
X234062500Y-126312500D01*
X229686382Y-131434559D02*
X230155000Y-131333750D01*
X205636562Y-147620000D02*
X206210312Y-147262813D01*
X229054264Y-131585971D02*
X229686382Y-131434559D01*
X206210312Y-147262813D02*
X206702500Y-146888752D01*
X204885625Y-148053125D02*
X205636562Y-147620000D01*
X215125441Y-139347148D02*
X215432500Y-139367265D01*
X217344735Y-139181971D02*
X218477676Y-138889736D01*
X237972735Y-119807618D02*
X239260000Y-112013753D01*
X235138750Y-122183750D02*
X235138750Y-121475000D01*
X232262500Y-130043750D02*
X233106250Y-129282500D01*
X235281205Y-120419618D02*
X235931323Y-120413265D01*
X235088500Y-120409030D02*
X235281205Y-120419618D01*
X235138750Y-121475000D02*
X235116029Y-120942677D01*
X223093750Y-137680625D02*
X226046875Y-137000000D01*
X201991562Y-149183752D02*
X202343125Y-149107813D01*
X200115625Y-149324375D02*
X201288437Y-149282188D01*
X233106250Y-129282500D02*
X233500000Y-128292500D01*
X228820000Y-131566252D02*
X228921911Y-131593383D01*
X228839687Y-134024375D02*
X228820000Y-131566252D01*
X216260499Y-139372559D02*
X216592970Y-139340795D01*
X202855000Y-148939063D02*
X203718437Y-148593125D01*
X215432500Y-139367265D02*
X215707794Y-139377853D01*
X197078125Y-149178125D02*
X198132812Y-149285000D01*
X226789375Y-136274375D02*
X227821562Y-135242188D01*
X226046875Y-137000000D02*
X226789375Y-136274375D01*
X208685312Y-145381252D02*
X209171875Y-145007188D01*
X209171875Y-145007188D02*
X210850000Y-143592500D01*
X199342187Y-149341252D02*
X200115625Y-149324375D01*
X215707794Y-139377853D02*
X216260499Y-139372559D01*
X198132812Y-149285000D02*
X199342187Y-149341252D01*
X204407500Y-148292188D02*
X204885625Y-148053125D01*
X217080029Y-139249736D02*
X217344735Y-139181971D01*
X216592970Y-139340795D02*
X217080029Y-139249736D01*
X203718437Y-148593125D02*
X204407500Y-148292188D01*
X214465000Y-140082500D02*
X214990000Y-139317500D01*
X202343125Y-149107813D02*
X202855000Y-148939063D01*
X207138437Y-146559688D02*
X208111562Y-145822813D01*
X206702500Y-146888752D02*
X207138437Y-146559688D01*
X218477676Y-138889736D02*
X223093750Y-137680625D01*
X237244264Y-120423853D02*
X237972735Y-119807618D01*
X235116029Y-120942677D02*
X235088500Y-120409030D01*
X208111562Y-145822813D02*
X208685312Y-145381252D01*
X212552500Y-142115000D02*
X214074999Y-140585000D01*
X102246248Y-179855001D02*
X102519999Y-179720001D01*
X103930000Y-178928750D02*
X104353749Y-178666250D01*
X196335625Y-149071252D02*
X197078125Y-149178125D01*
X110031247Y-176558751D02*
X110417499Y-176333751D01*
X195716875Y-148953125D02*
X196335625Y-149071252D01*
X124360937Y-172372813D02*
X126481562Y-171818751D01*
X110417499Y-176333751D02*
X110950000Y-176026251D01*
X134561875Y-165738125D02*
X136915937Y-165271251D01*
X112401250Y-175212500D02*
X112712499Y-175032500D01*
X194395000Y-148269688D02*
X194695937Y-148503125D01*
X165872499Y-157640000D02*
X167739999Y-155060001D01*
X117585625Y-173824063D02*
X118721875Y-174049063D01*
X108962500Y-177121251D02*
X109581247Y-176791251D01*
X195365312Y-148818125D02*
X195716875Y-148953125D01*
X194695937Y-148503125D02*
X195365312Y-148818125D01*
X162895000Y-158667500D02*
X165872499Y-157640000D01*
X117234062Y-173388125D02*
X117585625Y-173824063D01*
X194133437Y-148044688D02*
X194395000Y-148269688D01*
X110950000Y-176026251D02*
X111362499Y-175790000D01*
X109581247Y-176791251D02*
X110031247Y-176558751D01*
X106768747Y-177203750D02*
X106761249Y-178208750D01*
X167739999Y-155060001D02*
X176293746Y-152525000D01*
X117163747Y-173270000D02*
X117234062Y-173388125D01*
X116743750Y-172595000D02*
X117163747Y-173270000D01*
X111362499Y-175790000D02*
X111744999Y-175576251D01*
X115558749Y-173341251D02*
X116226250Y-172925001D01*
X112975000Y-174882501D02*
X113226247Y-174721251D01*
X101747500Y-180087500D02*
X102246248Y-179855001D01*
X193894375Y-147794375D02*
X194133437Y-148044688D01*
X188511245Y-148981252D02*
X193697500Y-147541252D01*
X129533125Y-170994688D02*
X130987187Y-170586875D01*
X193697500Y-147541252D02*
X193894375Y-147794375D01*
X133746247Y-165850625D02*
X134561875Y-165738125D01*
X176293746Y-152525000D02*
X188511245Y-148981252D01*
X143719375Y-163943751D02*
X150328746Y-162470000D01*
X126481562Y-171818751D02*
X129533125Y-170994688D01*
X113226247Y-174721251D02*
X113552500Y-174533751D01*
X132078437Y-166075625D02*
X133746247Y-165850625D01*
X132500312Y-167434063D02*
X132078437Y-166075625D01*
X102808748Y-179555000D02*
X103480000Y-179165000D01*
X130987187Y-170586875D02*
X132500312Y-167434063D01*
X101290000Y-180301250D02*
X101747500Y-180087500D01*
X123154375Y-172775000D02*
X124360937Y-172372813D01*
X108137500Y-177533751D02*
X108962500Y-177121251D01*
X102519999Y-179720001D02*
X102808748Y-179555000D01*
X114958747Y-173697500D02*
X115558749Y-173341251D01*
X112063750Y-175407500D02*
X112401250Y-175212500D01*
X104353749Y-178666250D02*
X104935000Y-178310000D01*
X114047500Y-174241251D02*
X114546249Y-173941250D01*
X112712499Y-175032500D02*
X112975000Y-174882501D01*
X153492812Y-161702188D02*
X158170000Y-160242500D01*
X103480000Y-179165000D02*
X103930000Y-178928750D01*
X158170000Y-160242500D02*
X162895000Y-158667500D01*
X150328746Y-162470000D02*
X153492812Y-161702188D01*
X118721875Y-174049063D02*
X121081562Y-173452813D01*
X106761249Y-178208750D02*
X108137500Y-177533751D01*
X140161562Y-164641251D02*
X143719375Y-163943751D01*
X136915937Y-165271251D02*
X140161562Y-164641251D01*
X121081562Y-173452813D02*
X123154375Y-172775000D01*
X114546249Y-173941250D02*
X114958747Y-173697500D01*
X116226250Y-172925001D02*
X116743750Y-172595000D01*
X113552500Y-174533751D02*
X114047500Y-174241251D01*
X111744999Y-175576251D02*
X112063750Y-175407500D01*
X104935000Y-178310000D02*
X106768747Y-177203750D01*
X230027499Y-100152501D02*
X228827500Y-98427500D01*
X155807500Y-20650532D02*
X127085406Y-20650532D01*
X162104687Y-31919375D02*
X155807500Y-20650532D01*
X217637500Y-87267500D02*
X216287500Y-86262500D01*
X225707499Y-94947500D02*
X224657500Y-93777500D01*
X164209291Y-36187644D02*
X164174687Y-31919375D01*
X224657500Y-93777500D02*
X223457499Y-92622500D01*
X220142500Y-89367500D02*
X218612500Y-88017500D01*
X171175000Y-47877500D02*
X164209291Y-36187644D01*
X215162500Y-85512500D02*
X178690000Y-31070000D01*
X227882500Y-97347500D02*
X225707499Y-94947500D01*
X239260000Y-112013753D02*
X233747500Y-105668753D01*
X228827500Y-98427500D02*
X227882500Y-97347500D01*
X216287500Y-86262500D02*
X215162500Y-85512500D01*
X165910000Y-31115000D02*
X176687500Y-47877500D01*
X223457499Y-92622500D02*
X220142500Y-89367500D01*
X218612500Y-88017500D02*
X217637500Y-87267500D01*
X232232499Y-103302501D02*
X230027499Y-100152501D01*
X164174687Y-31919375D02*
X162104687Y-31919375D01*
X233747500Y-105668753D02*
X232232499Y-103302501D01*
X176687500Y-47877500D02*
X171175000Y-47877500D01*
X178690000Y-31070000D02*
X165910000Y-31115000D01*
D13*
G36*
X119784445Y-38975365D02*
G01*
X119792061Y-38991972D01*
X119798916Y-39026381D01*
X119805050Y-39082275D01*
X119810504Y-39163333D01*
X119815318Y-39273236D01*
X119819533Y-39415666D01*
X119823189Y-39594304D01*
X119826328Y-39812829D01*
X119828990Y-40074924D01*
X119831216Y-40384269D01*
X119833045Y-40744544D01*
X119834520Y-41159432D01*
X119835680Y-41632612D01*
X119836566Y-42167766D01*
X119837219Y-42768574D01*
X119837679Y-43438718D01*
X119837988Y-44181878D01*
X119838185Y-45001735D01*
X119838311Y-45901970D01*
X119838362Y-46398514D01*
X119839086Y-53930409D01*
X111197483Y-53930409D01*
X111248583Y-53833708D01*
X111277267Y-53782567D01*
X111346155Y-53661376D01*
X111452738Y-53474514D01*
X111594503Y-53226360D01*
X111768942Y-52921290D01*
X111973544Y-52563684D01*
X112205797Y-52157919D01*
X112463193Y-51708374D01*
X112743220Y-51219427D01*
X113043369Y-50695455D01*
X113361128Y-50140838D01*
X113693988Y-49559952D01*
X114039438Y-48957177D01*
X114394967Y-48336890D01*
X114758066Y-47703469D01*
X115126224Y-47061294D01*
X115496930Y-46414741D01*
X115867675Y-45768188D01*
X116235947Y-45126015D01*
X116599237Y-44492599D01*
X116955034Y-43872318D01*
X117300828Y-43269551D01*
X117634108Y-42688675D01*
X117952365Y-42134069D01*
X118253086Y-41610110D01*
X118533764Y-41121178D01*
X118791886Y-40671649D01*
X119024942Y-40265903D01*
X119230423Y-39908317D01*
X119405817Y-39603269D01*
X119548615Y-39355138D01*
X119656306Y-39168301D01*
X119726379Y-39047138D01*
X119756325Y-38996025D01*
X119756619Y-38995553D01*
X119766764Y-38980836D01*
X119776026Y-38972880D01*
X119784445Y-38975365D01*
X119784445Y-38975365D01*
G37*
X119784445Y-38975365D02*
X119792061Y-38991972D01*
X119798916Y-39026381D01*
X119805050Y-39082275D01*
X119810504Y-39163333D01*
X119815318Y-39273236D01*
X119819533Y-39415666D01*
X119823189Y-39594304D01*
X119826328Y-39812829D01*
X119828990Y-40074924D01*
X119831216Y-40384269D01*
X119833045Y-40744544D01*
X119834520Y-41159432D01*
X119835680Y-41632612D01*
X119836566Y-42167766D01*
X119837219Y-42768574D01*
X119837679Y-43438718D01*
X119837988Y-44181878D01*
X119838185Y-45001735D01*
X119838311Y-45901970D01*
X119838362Y-46398514D01*
X119839086Y-53930409D01*
X111197483Y-53930409D01*
X111248583Y-53833708D01*
X111277267Y-53782567D01*
X111346155Y-53661376D01*
X111452738Y-53474514D01*
X111594503Y-53226360D01*
X111768942Y-52921290D01*
X111973544Y-52563684D01*
X112205797Y-52157919D01*
X112463193Y-51708374D01*
X112743220Y-51219427D01*
X113043369Y-50695455D01*
X113361128Y-50140838D01*
X113693988Y-49559952D01*
X114039438Y-48957177D01*
X114394967Y-48336890D01*
X114758066Y-47703469D01*
X115126224Y-47061294D01*
X115496930Y-46414741D01*
X115867675Y-45768188D01*
X116235947Y-45126015D01*
X116599237Y-44492599D01*
X116955034Y-43872318D01*
X117300828Y-43269551D01*
X117634108Y-42688675D01*
X117952365Y-42134069D01*
X118253086Y-41610110D01*
X118533764Y-41121178D01*
X118791886Y-40671649D01*
X119024942Y-40265903D01*
X119230423Y-39908317D01*
X119405817Y-39603269D01*
X119548615Y-39355138D01*
X119656306Y-39168301D01*
X119726379Y-39047138D01*
X119756325Y-38996025D01*
X119756619Y-38995553D01*
X119766764Y-38980836D01*
X119776026Y-38972880D01*
X119784445Y-38975365D01*
G36*
X108213943Y-50621955D02*
G01*
X108780361Y-50622631D01*
X109316008Y-50623780D01*
X109815050Y-50625366D01*
X110271652Y-50627353D01*
X110679978Y-50629705D01*
X111034196Y-50632387D01*
X111328469Y-50635363D01*
X111556963Y-50638597D01*
X111713843Y-50642053D01*
X111793275Y-50645696D01*
X111802200Y-50647417D01*
X111781702Y-50689398D01*
X111723253Y-50797881D01*
X111631420Y-50964662D01*
X111510770Y-51181540D01*
X111365871Y-51440312D01*
X111201290Y-51732776D01*
X111021593Y-52050729D01*
X110976589Y-52130158D01*
X110150978Y-53586585D01*
X105883695Y-53586585D01*
X105286052Y-53586313D01*
X104713284Y-53585522D01*
X104171166Y-53584249D01*
X103665473Y-53582531D01*
X103201979Y-53580407D01*
X102786458Y-53577912D01*
X102424686Y-53575086D01*
X102122436Y-53571965D01*
X101885484Y-53568586D01*
X101719603Y-53564988D01*
X101630567Y-53561206D01*
X101616413Y-53558953D01*
X101638527Y-53517698D01*
X101701627Y-53411627D01*
X101800851Y-53248630D01*
X101931336Y-53036598D01*
X102088220Y-52783423D01*
X102266640Y-52496994D01*
X102461734Y-52185204D01*
X102529696Y-52076897D01*
X103442978Y-50622472D01*
X107622589Y-50621787D01*
X108213943Y-50621955D01*
X108213943Y-50621955D01*
G37*
X108213943Y-50621955D02*
X108780361Y-50622631D01*
X109316008Y-50623780D01*
X109815050Y-50625366D01*
X110271652Y-50627353D01*
X110679978Y-50629705D01*
X111034196Y-50632387D01*
X111328469Y-50635363D01*
X111556963Y-50638597D01*
X111713843Y-50642053D01*
X111793275Y-50645696D01*
X111802200Y-50647417D01*
X111781702Y-50689398D01*
X111723253Y-50797881D01*
X111631420Y-50964662D01*
X111510770Y-51181540D01*
X111365871Y-51440312D01*
X111201290Y-51732776D01*
X111021593Y-52050729D01*
X110976589Y-52130158D01*
X110150978Y-53586585D01*
X105883695Y-53586585D01*
X105286052Y-53586313D01*
X104713284Y-53585522D01*
X104171166Y-53584249D01*
X103665473Y-53582531D01*
X103201979Y-53580407D01*
X102786458Y-53577912D01*
X102424686Y-53575086D01*
X102122436Y-53571965D01*
X101885484Y-53568586D01*
X101719603Y-53564988D01*
X101630567Y-53561206D01*
X101616413Y-53558953D01*
X101638527Y-53517698D01*
X101701627Y-53411627D01*
X101800851Y-53248630D01*
X101931336Y-53036598D01*
X102088220Y-52783423D01*
X102266640Y-52496994D01*
X102461734Y-52185204D01*
X102529696Y-52076897D01*
X103442978Y-50622472D01*
X107622589Y-50621787D01*
X108213943Y-50621955D01*
G36*
X112346758Y-32922564D02*
G01*
X112624547Y-32924358D01*
X114151857Y-32935654D01*
X107517115Y-43099952D01*
X100882374Y-53264250D01*
X99961760Y-53307228D01*
X98639961Y-54048598D01*
X98332649Y-54220649D01*
X98049490Y-54378571D01*
X97799099Y-54517608D01*
X97590094Y-54632999D01*
X97431090Y-54719987D01*
X97330704Y-54773812D01*
X97297638Y-54789969D01*
X97311478Y-54756119D01*
X97363963Y-54663577D01*
X97447099Y-54525853D01*
X97552893Y-54356459D01*
X97570984Y-54327955D01*
X97618342Y-54253150D01*
X97709591Y-54108662D01*
X97842808Y-53897539D01*
X98016074Y-53622830D01*
X98227466Y-53287584D01*
X98475063Y-52894848D01*
X98756946Y-52447671D01*
X99071192Y-51949101D01*
X99415881Y-51402187D01*
X99789092Y-50809977D01*
X100188904Y-50175519D01*
X100613395Y-49501862D01*
X101060645Y-48792054D01*
X101528732Y-48049142D01*
X102015736Y-47276177D01*
X102519736Y-46476205D01*
X103038810Y-45652275D01*
X103571038Y-44807436D01*
X104114498Y-43944735D01*
X104430070Y-43443776D01*
X104975923Y-42577336D01*
X105510109Y-41729596D01*
X106030799Y-40903453D01*
X106536162Y-40101803D01*
X107024371Y-39327544D01*
X107493595Y-38583571D01*
X107942006Y-37872781D01*
X108367774Y-37198071D01*
X108769070Y-36562336D01*
X109144065Y-35968475D01*
X109490930Y-35419382D01*
X109807835Y-34917954D01*
X110092951Y-34467089D01*
X110344450Y-34069681D01*
X110560501Y-33728629D01*
X110739276Y-33446828D01*
X110878945Y-33227175D01*
X110977679Y-33072567D01*
X111033649Y-32985899D01*
X111046262Y-32967336D01*
X111079105Y-32952408D01*
X111151195Y-32940643D01*
X111269573Y-32931851D01*
X111441278Y-32925838D01*
X111673350Y-32922414D01*
X111972830Y-32921386D01*
X112346758Y-32922564D01*
X112346758Y-32922564D01*
G37*
X112346758Y-32922564D02*
X112624547Y-32924358D01*
X114151857Y-32935654D01*
X107517115Y-43099952D01*
X100882374Y-53264250D01*
X99961760Y-53307228D01*
X98639961Y-54048598D01*
X98332649Y-54220649D01*
X98049490Y-54378571D01*
X97799099Y-54517608D01*
X97590094Y-54632999D01*
X97431090Y-54719987D01*
X97330704Y-54773812D01*
X97297638Y-54789969D01*
X97311478Y-54756119D01*
X97363963Y-54663577D01*
X97447099Y-54525853D01*
X97552893Y-54356459D01*
X97570984Y-54327955D01*
X97618342Y-54253150D01*
X97709591Y-54108662D01*
X97842808Y-53897539D01*
X98016074Y-53622830D01*
X98227466Y-53287584D01*
X98475063Y-52894848D01*
X98756946Y-52447671D01*
X99071192Y-51949101D01*
X99415881Y-51402187D01*
X99789092Y-50809977D01*
X100188904Y-50175519D01*
X100613395Y-49501862D01*
X101060645Y-48792054D01*
X101528732Y-48049142D01*
X102015736Y-47276177D01*
X102519736Y-46476205D01*
X103038810Y-45652275D01*
X103571038Y-44807436D01*
X104114498Y-43944735D01*
X104430070Y-43443776D01*
X104975923Y-42577336D01*
X105510109Y-41729596D01*
X106030799Y-40903453D01*
X106536162Y-40101803D01*
X107024371Y-39327544D01*
X107493595Y-38583571D01*
X107942006Y-37872781D01*
X108367774Y-37198071D01*
X108769070Y-36562336D01*
X109144065Y-35968475D01*
X109490930Y-35419382D01*
X109807835Y-34917954D01*
X110092951Y-34467089D01*
X110344450Y-34069681D01*
X110560501Y-33728629D01*
X110739276Y-33446828D01*
X110878945Y-33227175D01*
X110977679Y-33072567D01*
X111033649Y-32985899D01*
X111046262Y-32967336D01*
X111079105Y-32952408D01*
X111151195Y-32940643D01*
X111269573Y-32931851D01*
X111441278Y-32925838D01*
X111673350Y-32922414D01*
X111972830Y-32921386D01*
X112346758Y-32922564D01*
G36*
X171212873Y-33095328D02*
G01*
X171419677Y-33099746D01*
X171568840Y-33106852D01*
X171667434Y-33116842D01*
X171722533Y-33129910D01*
X171737594Y-33139240D01*
X171764771Y-33179323D01*
X171836856Y-33288711D01*
X171952011Y-33464578D01*
X172108400Y-33704095D01*
X172304184Y-34004434D01*
X172537526Y-34362767D01*
X172806589Y-34776267D01*
X173109537Y-35242104D01*
X173444530Y-35757452D01*
X173809733Y-36319482D01*
X174203307Y-36925365D01*
X174623416Y-37572275D01*
X175068222Y-38257384D01*
X175535888Y-38977862D01*
X176024576Y-39730882D01*
X176532449Y-40513617D01*
X177057671Y-41323237D01*
X177598402Y-42156916D01*
X178152807Y-43011824D01*
X178697609Y-43852067D01*
X179263694Y-44725205D01*
X179817953Y-45580097D01*
X180358541Y-46413899D01*
X180883617Y-47223769D01*
X181391338Y-48006866D01*
X181879860Y-48760346D01*
X182347340Y-49481368D01*
X182791936Y-50167088D01*
X183211804Y-50814664D01*
X183605102Y-51421255D01*
X183969986Y-51984017D01*
X184304614Y-52500108D01*
X184607143Y-52966686D01*
X184875730Y-53380909D01*
X185108531Y-53739933D01*
X185303705Y-54040917D01*
X185459407Y-54281018D01*
X185573795Y-54457393D01*
X185645026Y-54567201D01*
X185671070Y-54607313D01*
X185705158Y-54676844D01*
X185697075Y-54703213D01*
X185653512Y-54682479D01*
X185542396Y-54623256D01*
X185370901Y-54529528D01*
X185146202Y-54405283D01*
X184875471Y-54254507D01*
X184565885Y-54081187D01*
X184224616Y-53889309D01*
X183858838Y-53682860D01*
X183747377Y-53619800D01*
X181834856Y-52537188D01*
X181164820Y-52490646D01*
X174914356Y-42799106D01*
X168663893Y-33107566D01*
X170175876Y-33096262D01*
X170598045Y-33093781D01*
X170941353Y-33093405D01*
X171212873Y-33095328D01*
X171212873Y-33095328D01*
G37*
X171212873Y-33095328D02*
X171419677Y-33099746D01*
X171568840Y-33106852D01*
X171667434Y-33116842D01*
X171722533Y-33129910D01*
X171737594Y-33139240D01*
X171764771Y-33179323D01*
X171836856Y-33288711D01*
X171952011Y-33464578D01*
X172108400Y-33704095D01*
X172304184Y-34004434D01*
X172537526Y-34362767D01*
X172806589Y-34776267D01*
X173109537Y-35242104D01*
X173444530Y-35757452D01*
X173809733Y-36319482D01*
X174203307Y-36925365D01*
X174623416Y-37572275D01*
X175068222Y-38257384D01*
X175535888Y-38977862D01*
X176024576Y-39730882D01*
X176532449Y-40513617D01*
X177057671Y-41323237D01*
X177598402Y-42156916D01*
X178152807Y-43011824D01*
X178697609Y-43852067D01*
X179263694Y-44725205D01*
X179817953Y-45580097D01*
X180358541Y-46413899D01*
X180883617Y-47223769D01*
X181391338Y-48006866D01*
X181879860Y-48760346D01*
X182347340Y-49481368D01*
X182791936Y-50167088D01*
X183211804Y-50814664D01*
X183605102Y-51421255D01*
X183969986Y-51984017D01*
X184304614Y-52500108D01*
X184607143Y-52966686D01*
X184875730Y-53380909D01*
X185108531Y-53739933D01*
X185303705Y-54040917D01*
X185459407Y-54281018D01*
X185573795Y-54457393D01*
X185645026Y-54567201D01*
X185671070Y-54607313D01*
X185705158Y-54676844D01*
X185697075Y-54703213D01*
X185653512Y-54682479D01*
X185542396Y-54623256D01*
X185370901Y-54529528D01*
X185146202Y-54405283D01*
X184875471Y-54254507D01*
X184565885Y-54081187D01*
X184224616Y-53889309D01*
X183858838Y-53682860D01*
X183747377Y-53619800D01*
X181834856Y-52537188D01*
X181164820Y-52490646D01*
X174914356Y-42799106D01*
X168663893Y-33107566D01*
X170175876Y-33096262D01*
X170598045Y-33093781D01*
X170941353Y-33093405D01*
X171212873Y-33095328D01*
G36*
X179397276Y-51666424D02*
G01*
X179575353Y-52003697D01*
X179740251Y-52317332D01*
X179887750Y-52599208D01*
X180013633Y-52841202D01*
X180113682Y-53035195D01*
X180183679Y-53173063D01*
X180219405Y-53246686D01*
X180223181Y-53256610D01*
X180181223Y-53260927D01*
X180059426Y-53265050D01*
X179863907Y-53268934D01*
X179600784Y-53272530D01*
X179276173Y-53275793D01*
X178896193Y-53278676D01*
X178466959Y-53281130D01*
X177994589Y-53283111D01*
X177485201Y-53284570D01*
X176944911Y-53285461D01*
X176420619Y-53285739D01*
X172618056Y-53285739D01*
X172557392Y-53189038D01*
X172512172Y-53114459D01*
X172432433Y-52980303D01*
X172323701Y-52796040D01*
X172191498Y-52571139D01*
X172041352Y-52315067D01*
X171878785Y-52037294D01*
X171709322Y-51747288D01*
X171538489Y-51454519D01*
X171371809Y-51168455D01*
X171214808Y-50898565D01*
X171073010Y-50654318D01*
X170951940Y-50445182D01*
X170857121Y-50280625D01*
X170794080Y-50170118D01*
X170768340Y-50123128D01*
X170768020Y-50122203D01*
X170809992Y-50119739D01*
X170931880Y-50117384D01*
X171127647Y-50115163D01*
X171391253Y-50113103D01*
X171716658Y-50111229D01*
X172097825Y-50109569D01*
X172528714Y-50108147D01*
X173003287Y-50106989D01*
X173515503Y-50106123D01*
X174059326Y-50105574D01*
X174628714Y-50105368D01*
X174669696Y-50105367D01*
X178571372Y-50105367D01*
X179397276Y-51666424D01*
X179397276Y-51666424D01*
G37*
X179397276Y-51666424D02*
X179575353Y-52003697D01*
X179740251Y-52317332D01*
X179887750Y-52599208D01*
X180013633Y-52841202D01*
X180113682Y-53035195D01*
X180183679Y-53173063D01*
X180219405Y-53246686D01*
X180223181Y-53256610D01*
X180181223Y-53260927D01*
X180059426Y-53265050D01*
X179863907Y-53268934D01*
X179600784Y-53272530D01*
X179276173Y-53275793D01*
X178896193Y-53278676D01*
X178466959Y-53281130D01*
X177994589Y-53283111D01*
X177485201Y-53284570D01*
X176944911Y-53285461D01*
X176420619Y-53285739D01*
X172618056Y-53285739D01*
X172557392Y-53189038D01*
X172512172Y-53114459D01*
X172432433Y-52980303D01*
X172323701Y-52796040D01*
X172191498Y-52571139D01*
X172041352Y-52315067D01*
X171878785Y-52037294D01*
X171709322Y-51747288D01*
X171538489Y-51454519D01*
X171371809Y-51168455D01*
X171214808Y-50898565D01*
X171073010Y-50654318D01*
X170951940Y-50445182D01*
X170857121Y-50280625D01*
X170794080Y-50170118D01*
X170768340Y-50123128D01*
X170768020Y-50122203D01*
X170809992Y-50119739D01*
X170931880Y-50117384D01*
X171127647Y-50115163D01*
X171391253Y-50113103D01*
X171716658Y-50111229D01*
X172097825Y-50109569D01*
X172528714Y-50108147D01*
X173003287Y-50106989D01*
X173515503Y-50106123D01*
X174059326Y-50105574D01*
X174628714Y-50105368D01*
X174669696Y-50105367D01*
X178571372Y-50105367D01*
X179397276Y-51666424D01*
G36*
X163394504Y-39725969D02*
G01*
X163461315Y-39836975D01*
X163567530Y-40014738D01*
X163710998Y-40255628D01*
X163889569Y-40556017D01*
X164101093Y-40912275D01*
X164343417Y-41320774D01*
X164614391Y-41777884D01*
X164911865Y-42279975D01*
X165233688Y-42823419D01*
X165577709Y-43404587D01*
X165941778Y-44019850D01*
X166323743Y-44665577D01*
X166721454Y-45338141D01*
X167132760Y-46033912D01*
X167545071Y-46731593D01*
X167968054Y-47447391D01*
X168379781Y-48144050D01*
X168778082Y-48817902D01*
X169160789Y-49465280D01*
X169525732Y-50082518D01*
X169870741Y-50665948D01*
X170193646Y-51211902D01*
X170492277Y-51716715D01*
X170764466Y-52176718D01*
X171008042Y-52588244D01*
X171220836Y-52947627D01*
X171400679Y-53251199D01*
X171545400Y-53495292D01*
X171652830Y-53676241D01*
X171720799Y-53790377D01*
X171746925Y-53833708D01*
X171809378Y-53930409D01*
X163332826Y-53930409D01*
X163332826Y-46787465D01*
X163333041Y-46011660D01*
X163333671Y-45259853D01*
X163334693Y-44536472D01*
X163336085Y-43845946D01*
X163337824Y-43192705D01*
X163339887Y-42581179D01*
X163342252Y-42015796D01*
X163344895Y-41500985D01*
X163347794Y-41041177D01*
X163350927Y-40640800D01*
X163354270Y-40304283D01*
X163357801Y-40036056D01*
X163361497Y-39840548D01*
X163365335Y-39722189D01*
X163369248Y-39685350D01*
X163394504Y-39725969D01*
X163394504Y-39725969D01*
G37*
X163394504Y-39725969D02*
X163461315Y-39836975D01*
X163567530Y-40014738D01*
X163710998Y-40255628D01*
X163889569Y-40556017D01*
X164101093Y-40912275D01*
X164343417Y-41320774D01*
X164614391Y-41777884D01*
X164911865Y-42279975D01*
X165233688Y-42823419D01*
X165577709Y-43404587D01*
X165941778Y-44019850D01*
X166323743Y-44665577D01*
X166721454Y-45338141D01*
X167132760Y-46033912D01*
X167545071Y-46731593D01*
X167968054Y-47447391D01*
X168379781Y-48144050D01*
X168778082Y-48817902D01*
X169160789Y-49465280D01*
X169525732Y-50082518D01*
X169870741Y-50665948D01*
X170193646Y-51211902D01*
X170492277Y-51716715D01*
X170764466Y-52176718D01*
X171008042Y-52588244D01*
X171220836Y-52947627D01*
X171400679Y-53251199D01*
X171545400Y-53495292D01*
X171652830Y-53676241D01*
X171720799Y-53790377D01*
X171746925Y-53833708D01*
X171809378Y-53930409D01*
X163332826Y-53930409D01*
X163332826Y-46787465D01*
X163333041Y-46011660D01*
X163333671Y-45259853D01*
X163334693Y-44536472D01*
X163336085Y-43845946D01*
X163337824Y-43192705D01*
X163339887Y-42581179D01*
X163342252Y-42015796D01*
X163344895Y-41500985D01*
X163347794Y-41041177D01*
X163350927Y-40640800D01*
X163354270Y-40304283D01*
X163357801Y-40036056D01*
X163361497Y-39840548D01*
X163365335Y-39722189D01*
X163369248Y-39685350D01*
X163394504Y-39725969D01*
G36*
X154253723Y-33386925D02*
G01*
X162279865Y-33386926D01*
X162290467Y-47945723D01*
X162291383Y-49097412D01*
X162292448Y-50245098D01*
X162293652Y-51384651D01*
X162294986Y-52511942D01*
X162296442Y-53622843D01*
X162298011Y-54713223D01*
X162299684Y-55778953D01*
X162301451Y-56815905D01*
X162303305Y-57819949D01*
X162305237Y-58786955D01*
X162307236Y-59712794D01*
X162309296Y-60593338D01*
X162311406Y-61424456D01*
X162313558Y-62202019D01*
X162315743Y-62921899D01*
X162317952Y-63579966D01*
X162320176Y-64172090D01*
X162322407Y-64694143D01*
X162324635Y-65141995D01*
X162326852Y-65511516D01*
X162328714Y-65760104D01*
X162356359Y-69015688D01*
X146227580Y-69015688D01*
X146226479Y-59124769D01*
X146743317Y-59124769D01*
X146840017Y-59143394D01*
X146932400Y-59153899D01*
X147077595Y-59162854D01*
X147226819Y-59167873D01*
X147516921Y-59173725D01*
X147515978Y-58589729D01*
X148160404Y-58589729D01*
X148164243Y-58800021D01*
X148175767Y-58952303D01*
X148198525Y-59055873D01*
X148236064Y-59120031D01*
X148291932Y-59154074D01*
X148369678Y-59167300D01*
X148472849Y-59169009D01*
X148604994Y-59168499D01*
X148623604Y-59168740D01*
X148935195Y-59173725D01*
X148935195Y-56803867D01*
X149923689Y-56803867D01*
X149923689Y-59124769D01*
X150020389Y-59144259D01*
X150113672Y-59153666D01*
X150258628Y-59158463D01*
X150396447Y-59157993D01*
X150675804Y-59152236D01*
X150681228Y-58589729D01*
X151340776Y-58589729D01*
X151344615Y-58800021D01*
X151356139Y-58952303D01*
X151378897Y-59055873D01*
X151416436Y-59120031D01*
X151472304Y-59154074D01*
X151550050Y-59167300D01*
X151653221Y-59169009D01*
X151785366Y-59168499D01*
X151803976Y-59168740D01*
X152115567Y-59173725D01*
X152115567Y-57227025D01*
X153059898Y-57227025D01*
X153062628Y-57438671D01*
X153070174Y-57710706D01*
X153081522Y-58053062D01*
X153089320Y-58283913D01*
X153098608Y-58581326D01*
X153107598Y-58803693D01*
X153121990Y-58961716D01*
X153147484Y-59066096D01*
X153189779Y-59127535D01*
X153254575Y-59156734D01*
X153347573Y-59164394D01*
X153474471Y-59161216D01*
X153555330Y-59158842D01*
X153856176Y-59152236D01*
X153856457Y-59123034D01*
X154466119Y-59123034D01*
X154569438Y-59142527D01*
X154663714Y-59153110D01*
X154812027Y-59162197D01*
X154982461Y-59167837D01*
X154984349Y-59167873D01*
X155295939Y-59173725D01*
X155295939Y-59124769D01*
X156370389Y-59124769D01*
X156467090Y-59143394D01*
X156559472Y-59153899D01*
X156704667Y-59162854D01*
X156853892Y-59167873D01*
X157143993Y-59173725D01*
X157143050Y-58589729D01*
X157787477Y-58589729D01*
X157791316Y-58800021D01*
X157802840Y-58952303D01*
X157825597Y-59055873D01*
X157863136Y-59120031D01*
X157919005Y-59154074D01*
X157996751Y-59167300D01*
X158099922Y-59169009D01*
X158232066Y-59168499D01*
X158250677Y-59168740D01*
X158562267Y-59173725D01*
X158562267Y-56803867D01*
X159550762Y-56803867D01*
X159550762Y-59124769D01*
X159647462Y-59144259D01*
X159740745Y-59153666D01*
X159885701Y-59158463D01*
X160023520Y-59157993D01*
X160302877Y-59152236D01*
X160308301Y-58589729D01*
X160967849Y-58589729D01*
X160971688Y-58800021D01*
X160983212Y-58952303D01*
X161005970Y-59055873D01*
X161043509Y-59120031D01*
X161099377Y-59154074D01*
X161177123Y-59167300D01*
X161280294Y-59169009D01*
X161412439Y-59168499D01*
X161431049Y-59168740D01*
X161742640Y-59173725D01*
X161742640Y-56741876D01*
X161374084Y-56380166D01*
X161171560Y-56585782D01*
X160969036Y-56791399D01*
X160969036Y-57957922D01*
X160968148Y-58312129D01*
X160967849Y-58589729D01*
X160308301Y-58589729D01*
X160325691Y-56786520D01*
X160118019Y-56581971D01*
X159910346Y-56377421D01*
X159550762Y-56803867D01*
X158562267Y-56803867D01*
X158562267Y-56741876D01*
X158377990Y-56561021D01*
X158193712Y-56380166D01*
X157991188Y-56585782D01*
X157788663Y-56791399D01*
X157788663Y-57957922D01*
X157787775Y-58312129D01*
X157787477Y-58589729D01*
X157143050Y-58589729D01*
X157142067Y-57981086D01*
X157140141Y-56788446D01*
X156768189Y-56373518D01*
X156570286Y-56580982D01*
X156372382Y-56788446D01*
X156371385Y-57956608D01*
X156370389Y-59124769D01*
X155295939Y-59124769D01*
X155295939Y-56775273D01*
X155105438Y-56566970D01*
X154914937Y-56358666D01*
X154526187Y-56788446D01*
X154524130Y-57218226D01*
X154521649Y-57414500D01*
X154516184Y-57669619D01*
X154508428Y-57956554D01*
X154499077Y-58248274D01*
X154494096Y-58385520D01*
X154466119Y-59123034D01*
X153856457Y-59123034D01*
X153878990Y-56786520D01*
X153669518Y-56580197D01*
X153460045Y-56373874D01*
X153260564Y-56601911D01*
X153201270Y-56668991D01*
X153153872Y-56726922D01*
X153117356Y-56785637D01*
X153090712Y-56855072D01*
X153072929Y-56945158D01*
X153062995Y-57065832D01*
X153059898Y-57227025D01*
X152115567Y-57227025D01*
X152115567Y-56741876D01*
X151931289Y-56561021D01*
X151747012Y-56380166D01*
X151544487Y-56585782D01*
X151341963Y-56791399D01*
X151341963Y-57957922D01*
X151341075Y-58312129D01*
X151340776Y-58589729D01*
X150681228Y-58589729D01*
X150698618Y-56786520D01*
X150490946Y-56581971D01*
X150283273Y-56377421D01*
X149923689Y-56803867D01*
X148935195Y-56803867D01*
X148935195Y-56741876D01*
X148566639Y-56380166D01*
X148364115Y-56585782D01*
X148161591Y-56791399D01*
X148161591Y-57957922D01*
X148160703Y-58312129D01*
X148160404Y-58589729D01*
X147515978Y-58589729D01*
X147514995Y-57981086D01*
X147513069Y-56788446D01*
X147141117Y-56373518D01*
X146745309Y-56788446D01*
X146744313Y-57956608D01*
X146743317Y-59124769D01*
X146226479Y-59124769D01*
X146226217Y-56777702D01*
X146226099Y-55727281D01*
X146225979Y-54683965D01*
X146225859Y-53652087D01*
X146225737Y-52635986D01*
X146225616Y-51639997D01*
X146225496Y-50668456D01*
X146225377Y-49725699D01*
X146225340Y-49430664D01*
X146743317Y-49430664D01*
X146743513Y-50151654D01*
X146744087Y-50849087D01*
X146745016Y-51518128D01*
X146746279Y-52153942D01*
X146747852Y-52751694D01*
X146749713Y-53306548D01*
X146751840Y-53813669D01*
X146754210Y-54268221D01*
X146756802Y-54665369D01*
X146759592Y-55000277D01*
X146762559Y-55268111D01*
X146765679Y-55464035D01*
X146768931Y-55583213D01*
X146771969Y-55620877D01*
X146821149Y-55628767D01*
X146944305Y-55635825D01*
X147129454Y-55641738D01*
X147364617Y-55646191D01*
X147637814Y-55648871D01*
X147865037Y-55649529D01*
X148929454Y-55649529D01*
X149923689Y-55649529D01*
X152109826Y-55649529D01*
X152123441Y-49492930D01*
X152125463Y-48630318D01*
X152127406Y-47849411D01*
X152129087Y-47145959D01*
X152130324Y-46515712D01*
X152130934Y-45954420D01*
X152130734Y-45457831D01*
X152129542Y-45021697D01*
X152127175Y-44641766D01*
X152124624Y-44417127D01*
X153065809Y-44417127D01*
X153067563Y-44810991D01*
X153071328Y-45276058D01*
X153076456Y-45819319D01*
X153077073Y-45883927D01*
X153080976Y-46340079D01*
X153084723Y-46868747D01*
X153088259Y-47456491D01*
X153091529Y-48089871D01*
X153094476Y-48755447D01*
X153097045Y-49439779D01*
X153099181Y-50129426D01*
X153100828Y-50810950D01*
X153101930Y-51470909D01*
X153102398Y-52007143D01*
X153104061Y-55649529D01*
X155295939Y-55649529D01*
X155295939Y-49458984D01*
X155295939Y-49430664D01*
X156370389Y-49430664D01*
X156370586Y-50151654D01*
X156371160Y-50849087D01*
X156372089Y-51518128D01*
X156373351Y-52153942D01*
X156374924Y-52751694D01*
X156376786Y-53306548D01*
X156378913Y-53813669D01*
X156381283Y-54268221D01*
X156383875Y-54665369D01*
X156386665Y-55000277D01*
X156389632Y-55268111D01*
X156392752Y-55464035D01*
X156396004Y-55583213D01*
X156399041Y-55620877D01*
X156448222Y-55628767D01*
X156571377Y-55635825D01*
X156756527Y-55641738D01*
X156991690Y-55646191D01*
X157264886Y-55648871D01*
X157492110Y-55649529D01*
X158556526Y-55649529D01*
X159550762Y-55649529D01*
X161736899Y-55649529D01*
X161750514Y-49492930D01*
X161752536Y-48630318D01*
X161754479Y-47849411D01*
X161756160Y-47145959D01*
X161757397Y-46515712D01*
X161758007Y-45954420D01*
X161757807Y-45457831D01*
X161756614Y-45021697D01*
X161754247Y-44641766D01*
X161750523Y-44313788D01*
X161745259Y-44033513D01*
X161738272Y-43796690D01*
X161729379Y-43599069D01*
X161718399Y-43436399D01*
X161705149Y-43304431D01*
X161689446Y-43198914D01*
X161671107Y-43115597D01*
X161649950Y-43050230D01*
X161625792Y-42998564D01*
X161598451Y-42956346D01*
X161567744Y-42919328D01*
X161533489Y-42883258D01*
X161495503Y-42843887D01*
X161463354Y-42808368D01*
X161235584Y-42606036D01*
X160973289Y-42481091D01*
X160681855Y-42434791D01*
X160366667Y-42468393D01*
X160205140Y-42514424D01*
X159994078Y-42625776D01*
X159802569Y-42798158D01*
X159655358Y-43006799D01*
X159607754Y-43112400D01*
X159600314Y-43155458D01*
X159593534Y-43244081D01*
X159587387Y-43381254D01*
X159581848Y-43569961D01*
X159576892Y-43813183D01*
X159572494Y-44113904D01*
X159568628Y-44475109D01*
X159565269Y-44899779D01*
X159562392Y-45390898D01*
X159559972Y-45951450D01*
X159557983Y-46584417D01*
X159556399Y-47292784D01*
X159555197Y-48079532D01*
X159554349Y-48947646D01*
X159554031Y-49449952D01*
X159550762Y-55649529D01*
X158556526Y-55649529D01*
X158571280Y-49492930D01*
X158573463Y-48629262D01*
X158575547Y-47847309D01*
X158577351Y-47142834D01*
X158578692Y-46511595D01*
X158579388Y-45949354D01*
X158579256Y-45451871D01*
X158578113Y-45014905D01*
X158575779Y-44634218D01*
X158572069Y-44305569D01*
X158566802Y-44024719D01*
X158559795Y-43787429D01*
X158550866Y-43589458D01*
X158539833Y-43426567D01*
X158526513Y-43294517D01*
X158510724Y-43189067D01*
X158492284Y-43105978D01*
X158471009Y-43041010D01*
X158446718Y-42989925D01*
X158419228Y-42948481D01*
X158388357Y-42912439D01*
X158353923Y-42877560D01*
X158315743Y-42839604D01*
X158283600Y-42805528D01*
X158103502Y-42627284D01*
X157934661Y-42514468D01*
X157751452Y-42454866D01*
X157528251Y-42436264D01*
X157508737Y-42436181D01*
X157184444Y-42473241D01*
X156902818Y-42581987D01*
X156669605Y-42758765D01*
X156490554Y-42999923D01*
X156432656Y-43120078D01*
X156423929Y-43150238D01*
X156416035Y-43199587D01*
X156408934Y-43272175D01*
X156402586Y-43372049D01*
X156396951Y-43503258D01*
X156391990Y-43669851D01*
X156387661Y-43875876D01*
X156383926Y-44125381D01*
X156380744Y-44422415D01*
X156378075Y-44771027D01*
X156375879Y-45175265D01*
X156374117Y-45639178D01*
X156372749Y-46166814D01*
X156371734Y-46762221D01*
X156371033Y-47429448D01*
X156370605Y-48172544D01*
X156370411Y-48995558D01*
X156370389Y-49430664D01*
X155295939Y-49430664D01*
X155295917Y-48607356D01*
X155295811Y-47837437D01*
X155295567Y-47144984D01*
X155295128Y-46525751D01*
X155294438Y-45975492D01*
X155293442Y-45489961D01*
X155292082Y-45064914D01*
X155290303Y-44696106D01*
X155288050Y-44379289D01*
X155285265Y-44110220D01*
X155281893Y-43884653D01*
X155277878Y-43698342D01*
X155273164Y-43547041D01*
X155267694Y-43426506D01*
X155261413Y-43332492D01*
X155254264Y-43260751D01*
X155246193Y-43207040D01*
X155237141Y-43167113D01*
X155227054Y-43136724D01*
X155215876Y-43111627D01*
X155212037Y-43103979D01*
X155031098Y-42824854D01*
X154812292Y-42619078D01*
X154559779Y-42489521D01*
X154277720Y-42439053D01*
X154247561Y-42438463D01*
X153916224Y-42470135D01*
X153637384Y-42569376D01*
X153409787Y-42736676D01*
X153365114Y-42784200D01*
X153301856Y-42856326D01*
X153247757Y-42922740D01*
X153202167Y-42990434D01*
X153164436Y-43066399D01*
X153133916Y-43157629D01*
X153109955Y-43271116D01*
X153091904Y-43413851D01*
X153079114Y-43592828D01*
X153070935Y-43815038D01*
X153066716Y-44087473D01*
X153065809Y-44417127D01*
X152124624Y-44417127D01*
X152123450Y-44313788D01*
X152118186Y-44033513D01*
X152111199Y-43796690D01*
X152102307Y-43599069D01*
X152091327Y-43436399D01*
X152078076Y-43304431D01*
X152062373Y-43198914D01*
X152044034Y-43115597D01*
X152022877Y-43050230D01*
X151998720Y-42998564D01*
X151971379Y-42956346D01*
X151940672Y-42919328D01*
X151906416Y-42883258D01*
X151868430Y-42843887D01*
X151836281Y-42808368D01*
X151608512Y-42606036D01*
X151346217Y-42481091D01*
X151054782Y-42434791D01*
X150739594Y-42468393D01*
X150578068Y-42514424D01*
X150367005Y-42625776D01*
X150175496Y-42798158D01*
X150028286Y-43006799D01*
X149980681Y-43112400D01*
X149973242Y-43155458D01*
X149966461Y-43244081D01*
X149960314Y-43381254D01*
X149954775Y-43569961D01*
X149949819Y-43813183D01*
X149945421Y-44113904D01*
X149941555Y-44475109D01*
X149938197Y-44899779D01*
X149935320Y-45390898D01*
X149932899Y-45951450D01*
X149930910Y-46584417D01*
X149929326Y-47292784D01*
X149928124Y-48079532D01*
X149927276Y-48947646D01*
X149926958Y-49449952D01*
X149923689Y-55649529D01*
X148929454Y-55649529D01*
X148944208Y-49492930D01*
X148946390Y-48629262D01*
X148948475Y-47847309D01*
X148950279Y-47142834D01*
X148951620Y-46511595D01*
X148952315Y-45949354D01*
X148952183Y-45451871D01*
X148951041Y-45014905D01*
X148948706Y-44634218D01*
X148944996Y-44305569D01*
X148939729Y-44024719D01*
X148932722Y-43787429D01*
X148923794Y-43589458D01*
X148912761Y-43426567D01*
X148899441Y-43294517D01*
X148883652Y-43189067D01*
X148865211Y-43105978D01*
X148843936Y-43041010D01*
X148819645Y-42989925D01*
X148792155Y-42948481D01*
X148761285Y-42912439D01*
X148726850Y-42877560D01*
X148688670Y-42839604D01*
X148656527Y-42805528D01*
X148476430Y-42627284D01*
X148307589Y-42514468D01*
X148124379Y-42454866D01*
X147901178Y-42436264D01*
X147881664Y-42436181D01*
X147557372Y-42473241D01*
X147275745Y-42581987D01*
X147042533Y-42758765D01*
X146863481Y-42999923D01*
X146805583Y-43120078D01*
X146796857Y-43150238D01*
X146788963Y-43199587D01*
X146781862Y-43272175D01*
X146775514Y-43372049D01*
X146769879Y-43503258D01*
X146764917Y-43669851D01*
X146760588Y-43875876D01*
X146756853Y-44125381D01*
X146753671Y-44422415D01*
X146751002Y-44771027D01*
X146748807Y-45175265D01*
X146747045Y-45639178D01*
X146745676Y-46166814D01*
X146744661Y-46762221D01*
X146743960Y-47429448D01*
X146743532Y-48172544D01*
X146743338Y-48995558D01*
X146743317Y-49430664D01*
X146225340Y-49430664D01*
X146225260Y-48816062D01*
X146225145Y-47943882D01*
X146225033Y-47113494D01*
X146224925Y-46329236D01*
X146224822Y-45595442D01*
X146224723Y-44916449D01*
X146224629Y-44296594D01*
X146224542Y-43740212D01*
X146224461Y-43251639D01*
X146224387Y-42835212D01*
X146224321Y-42495266D01*
X146224263Y-42236139D01*
X146224254Y-42197414D01*
X146224179Y-41738305D01*
X146224169Y-41267666D01*
X146667193Y-41267666D01*
X146698868Y-41345029D01*
X146767734Y-41425436D01*
X146829396Y-41483276D01*
X147001432Y-41638700D01*
X148663220Y-41638700D01*
X148863675Y-41482528D01*
X148981707Y-41381921D01*
X149042681Y-41300599D01*
X149051402Y-41263867D01*
X149842071Y-41263867D01*
X149875139Y-41341766D01*
X149945956Y-41423548D01*
X150009769Y-41483276D01*
X150181804Y-41638700D01*
X151845844Y-41638700D01*
X152045007Y-41477532D01*
X152164664Y-41370478D01*
X152225803Y-41283355D01*
X152229353Y-41265932D01*
X153016332Y-41265932D01*
X153050650Y-41347063D01*
X153123236Y-41432612D01*
X153179273Y-41486536D01*
X153340440Y-41636374D01*
X155032200Y-41638700D01*
X155225797Y-41477532D01*
X155346466Y-41364545D01*
X155406841Y-41270112D01*
X155407289Y-41267666D01*
X156294265Y-41267666D01*
X156325941Y-41345029D01*
X156394807Y-41425436D01*
X156456469Y-41483276D01*
X156628505Y-41638700D01*
X158290293Y-41638700D01*
X158490747Y-41482528D01*
X158608780Y-41381921D01*
X158669754Y-41300599D01*
X158678475Y-41263867D01*
X159469144Y-41263867D01*
X159502211Y-41341766D01*
X159573029Y-41423548D01*
X159636841Y-41483276D01*
X159808877Y-41638700D01*
X161472917Y-41638700D01*
X161672080Y-41477532D01*
X161791736Y-41370478D01*
X161852876Y-41283355D01*
X161871305Y-41192919D01*
X161871408Y-41184396D01*
X161865876Y-41133796D01*
X161843183Y-41082044D01*
X161794381Y-41020358D01*
X161710523Y-40939954D01*
X161582662Y-40832051D01*
X161401850Y-40687865D01*
X161224489Y-40549372D01*
X160577405Y-40046317D01*
X160021961Y-40573896D01*
X159801175Y-40786117D01*
X159639841Y-40950975D01*
X159533618Y-41078721D01*
X159478166Y-41179602D01*
X159469144Y-41263867D01*
X158678475Y-41263867D01*
X158690380Y-41213729D01*
X158691201Y-41184683D01*
X158686910Y-41131939D01*
X158668033Y-41080884D01*
X158625565Y-41022560D01*
X158550501Y-40948010D01*
X158433835Y-40848279D01*
X158266562Y-40714408D01*
X158043192Y-40540169D01*
X157395182Y-40037329D01*
X156845923Y-40569402D01*
X156626426Y-40784591D01*
X156465860Y-40951809D01*
X156359877Y-41081259D01*
X156304128Y-41183144D01*
X156294265Y-41267666D01*
X155407289Y-41267666D01*
X155422133Y-41186752D01*
X155417556Y-41137119D01*
X155395699Y-41086186D01*
X155347667Y-41025236D01*
X155264560Y-40945556D01*
X155137484Y-40838430D01*
X154957540Y-40695144D01*
X154774988Y-40552849D01*
X154125102Y-40048558D01*
X153571604Y-40569155D01*
X153349077Y-40781366D01*
X153186653Y-40946937D01*
X153079966Y-41076081D01*
X153024648Y-41179008D01*
X153016332Y-41265932D01*
X152229353Y-41265932D01*
X152244232Y-41192919D01*
X152244335Y-41184396D01*
X152238804Y-41133796D01*
X152216110Y-41082044D01*
X152167308Y-41020358D01*
X152083450Y-40939954D01*
X151955589Y-40832051D01*
X151774777Y-40687865D01*
X151597417Y-40549372D01*
X150950332Y-40046317D01*
X150394888Y-40573896D01*
X150174103Y-40786117D01*
X150012768Y-40950975D01*
X149906545Y-41078721D01*
X149851093Y-41179602D01*
X149842071Y-41263867D01*
X149051402Y-41263867D01*
X149063307Y-41213729D01*
X149064129Y-41184683D01*
X149059838Y-41131939D01*
X149040961Y-41080884D01*
X148998493Y-41022560D01*
X148923428Y-40948010D01*
X148806762Y-40848279D01*
X148639489Y-40714408D01*
X148416119Y-40540169D01*
X147768109Y-40037329D01*
X147218850Y-40569402D01*
X146999354Y-40784591D01*
X146838788Y-40951809D01*
X146732804Y-41081259D01*
X146677055Y-41183144D01*
X146667193Y-41267666D01*
X146224169Y-41267666D01*
X146224167Y-41208120D01*
X146224214Y-40621741D01*
X146224317Y-39994048D01*
X146224471Y-39339923D01*
X146224674Y-38674246D01*
X146224735Y-38509181D01*
X146702507Y-38509181D01*
X146704872Y-38665892D01*
X146711148Y-38760833D01*
X146714735Y-38777677D01*
X146766701Y-38841348D01*
X146836059Y-38829275D01*
X146911984Y-38746906D01*
X146961975Y-38653219D01*
X147065827Y-38474474D01*
X147192665Y-38370527D01*
X147357002Y-38330639D01*
X147399503Y-38329394D01*
X147555346Y-38356209D01*
X147676662Y-38442250D01*
X147755521Y-38512102D01*
X147803555Y-38522470D01*
X147835876Y-38492248D01*
X147955392Y-38394952D01*
X148120296Y-38339841D01*
X148298686Y-38331482D01*
X148458664Y-38374437D01*
X148497643Y-38397552D01*
X148581400Y-38476729D01*
X148673530Y-38592587D01*
X148701146Y-38633931D01*
X148793591Y-38749496D01*
X148879455Y-38800871D01*
X148892756Y-38802152D01*
X148935466Y-38794791D01*
X148960997Y-38761150D01*
X148973692Y-38683887D01*
X148976887Y-38578784D01*
X149879991Y-38578784D01*
X149881814Y-38706960D01*
X149889690Y-38785565D01*
X149904860Y-38826716D01*
X149928563Y-38842532D01*
X149962041Y-38845129D01*
X149963235Y-38845130D01*
X150035983Y-38819317D01*
X150101018Y-38731740D01*
X150136431Y-38656740D01*
X150243032Y-38474540D01*
X150379056Y-38368244D01*
X150555376Y-38329824D01*
X150579875Y-38329394D01*
X150735718Y-38356209D01*
X150857034Y-38442250D01*
X150935893Y-38512102D01*
X150983928Y-38522470D01*
X151016248Y-38492248D01*
X151143060Y-38388365D01*
X151322638Y-38334672D01*
X151406430Y-38329394D01*
X151555796Y-38343905D01*
X151672734Y-38397649D01*
X151781951Y-38505939D01*
X151858142Y-38609395D01*
X151958253Y-38731629D01*
X152046284Y-38795928D01*
X152074654Y-38802152D01*
X152116988Y-38794350D01*
X152141967Y-38759286D01*
X152153915Y-38679470D01*
X152157159Y-38537413D01*
X152157035Y-38469072D01*
X152137830Y-38169940D01*
X153029870Y-38169940D01*
X153042559Y-38466608D01*
X153059235Y-38650342D01*
X153077172Y-38763966D01*
X153100808Y-38823270D01*
X153134586Y-38844040D01*
X153149028Y-38845130D01*
X153220514Y-38802864D01*
X153290380Y-38675540D01*
X153299177Y-38653219D01*
X153397907Y-38472990D01*
X153532424Y-38367520D01*
X153712242Y-38329725D01*
X153734123Y-38329394D01*
X153891385Y-38358526D01*
X154020648Y-38447583D01*
X154112553Y-38519588D01*
X154160878Y-38521409D01*
X154166561Y-38511146D01*
X154229852Y-38440348D01*
X154348407Y-38378040D01*
X154491677Y-38337608D01*
X154581370Y-38329394D01*
X154744439Y-38368879D01*
X154906203Y-38477651D01*
X155046289Y-38641179D01*
X155068483Y-38676749D01*
X155141724Y-38762763D01*
X155219351Y-38801923D01*
X155224438Y-38802152D01*
X155258504Y-38797001D01*
X155280662Y-38772170D01*
X155292569Y-38713592D01*
X155295881Y-38607199D01*
X155293769Y-38509181D01*
X156329580Y-38509181D01*
X156331944Y-38665892D01*
X156338221Y-38760833D01*
X156341808Y-38777677D01*
X156393774Y-38841348D01*
X156463132Y-38829275D01*
X156539057Y-38746906D01*
X156589048Y-38653219D01*
X156692899Y-38474474D01*
X156819738Y-38370527D01*
X156984074Y-38330639D01*
X157026576Y-38329394D01*
X157184582Y-38357017D01*
X157299505Y-38438021D01*
X157408133Y-38546648D01*
X157537228Y-38438021D01*
X157683055Y-38352590D01*
X157846865Y-38329394D01*
X158023193Y-38353761D01*
X158166611Y-38435228D01*
X158296955Y-38586345D01*
X158328219Y-38633931D01*
X158420664Y-38749496D01*
X158506528Y-38800871D01*
X158519829Y-38802152D01*
X158562539Y-38794791D01*
X158588070Y-38761150D01*
X158600765Y-38683887D01*
X158603960Y-38578784D01*
X159507064Y-38578784D01*
X159508887Y-38706960D01*
X159516763Y-38785565D01*
X159531932Y-38826716D01*
X159555636Y-38842532D01*
X159589113Y-38845129D01*
X159590308Y-38845130D01*
X159663056Y-38819317D01*
X159728091Y-38731740D01*
X159763503Y-38656740D01*
X159870105Y-38474540D01*
X160006129Y-38368244D01*
X160182449Y-38329824D01*
X160206948Y-38329394D01*
X160362791Y-38356209D01*
X160484107Y-38442250D01*
X160562966Y-38512102D01*
X160611000Y-38522470D01*
X160643321Y-38492248D01*
X160770132Y-38388365D01*
X160949710Y-38334672D01*
X161033503Y-38329394D01*
X161182869Y-38343905D01*
X161299807Y-38397649D01*
X161409024Y-38505939D01*
X161485215Y-38609395D01*
X161585325Y-38731629D01*
X161673357Y-38795928D01*
X161701726Y-38802152D01*
X161744061Y-38794350D01*
X161769040Y-38759286D01*
X161780988Y-38679470D01*
X161784232Y-38537413D01*
X161784108Y-38469072D01*
X161758710Y-38073499D01*
X161689314Y-37702637D01*
X161580649Y-37374032D01*
X161437444Y-37105231D01*
X161403988Y-37058762D01*
X161227488Y-36849054D01*
X161063191Y-36707662D01*
X160892809Y-36622535D01*
X160698058Y-36581621D01*
X160676811Y-36579522D01*
X160476204Y-36569413D01*
X160321978Y-36588143D01*
X160186740Y-36645934D01*
X160043097Y-36753006D01*
X159926203Y-36859595D01*
X159795923Y-36987568D01*
X159698238Y-37100730D01*
X159628047Y-37214841D01*
X159580248Y-37345666D01*
X159549741Y-37508966D01*
X159531425Y-37720505D01*
X159520198Y-37996044D01*
X159516614Y-38125248D01*
X159510053Y-38388920D01*
X159507064Y-38578784D01*
X158603960Y-38578784D01*
X158604968Y-38545662D01*
X158605245Y-38461137D01*
X158574385Y-37995757D01*
X158482634Y-37583203D01*
X158331236Y-37226943D01*
X158121435Y-36930443D01*
X158019119Y-36827228D01*
X157852399Y-36692085D01*
X157695345Y-36612140D01*
X157514695Y-36574848D01*
X157329888Y-36567296D01*
X157166427Y-36582254D01*
X157022120Y-36634863D01*
X156874997Y-36736721D01*
X156705451Y-36897003D01*
X156583445Y-37030895D01*
X156493164Y-37157288D01*
X156429280Y-37293277D01*
X156386465Y-37455960D01*
X156359392Y-37662434D01*
X156342734Y-37929795D01*
X156337057Y-38079285D01*
X156331245Y-38307909D01*
X156329580Y-38509181D01*
X155293769Y-38509181D01*
X155292255Y-38438923D01*
X155286434Y-38275671D01*
X155262888Y-37931017D01*
X155217085Y-37650298D01*
X155142841Y-37413009D01*
X155033968Y-37198647D01*
X154905918Y-37014391D01*
X154734958Y-36818085D01*
X154567802Y-36689157D01*
X154380054Y-36613786D01*
X154147314Y-36578152D01*
X154134071Y-36577167D01*
X153974546Y-36568480D01*
X153866833Y-36576638D01*
X153777137Y-36610743D01*
X153671665Y-36679899D01*
X153624123Y-36714543D01*
X153481842Y-36830601D01*
X153348362Y-36958405D01*
X153283765Y-37031720D01*
X153174271Y-37227493D01*
X153093947Y-37491434D01*
X153045059Y-37810072D01*
X153029870Y-38169940D01*
X152137830Y-38169940D01*
X152131637Y-38073499D01*
X152062241Y-37702637D01*
X151953576Y-37374032D01*
X151810372Y-37105231D01*
X151776916Y-37058762D01*
X151600416Y-36849054D01*
X151436118Y-36707662D01*
X151265736Y-36622535D01*
X151070985Y-36581621D01*
X151049738Y-36579522D01*
X150849131Y-36569413D01*
X150694905Y-36588143D01*
X150559668Y-36645934D01*
X150416024Y-36753006D01*
X150299130Y-36859595D01*
X150168850Y-36987568D01*
X150071165Y-37100730D01*
X150000974Y-37214841D01*
X149953175Y-37345666D01*
X149922669Y-37508966D01*
X149904352Y-37720505D01*
X149893126Y-37996044D01*
X149889542Y-38125248D01*
X149882980Y-38388920D01*
X149879991Y-38578784D01*
X148976887Y-38578784D01*
X148977895Y-38545662D01*
X148978173Y-38461137D01*
X148947313Y-37995757D01*
X148855562Y-37583203D01*
X148704163Y-37226943D01*
X148494362Y-36930443D01*
X148392047Y-36827228D01*
X148225326Y-36692085D01*
X148068272Y-36612140D01*
X147887622Y-36574848D01*
X147702815Y-36567296D01*
X147539355Y-36582254D01*
X147395047Y-36634863D01*
X147247924Y-36736721D01*
X147078378Y-36897003D01*
X146956373Y-37030895D01*
X146866092Y-37157288D01*
X146802207Y-37293277D01*
X146759392Y-37455960D01*
X146732319Y-37662434D01*
X146715661Y-37929795D01*
X146709984Y-38079285D01*
X146704172Y-38307909D01*
X146702507Y-38509181D01*
X146224735Y-38509181D01*
X146224922Y-38011898D01*
X146225210Y-37367759D01*
X146225536Y-36756711D01*
X146225617Y-36621018D01*
X146227580Y-33386923D01*
X154253723Y-33386925D01*
X154253723Y-33386925D01*
G37*
X154253723Y-33386925D02*
X162279865Y-33386926D01*
X162290467Y-47945723D01*
X162291383Y-49097412D01*
X162292448Y-50245098D01*
X162293652Y-51384651D01*
X162294986Y-52511942D01*
X162296442Y-53622843D01*
X162298011Y-54713223D01*
X162299684Y-55778953D01*
X162301451Y-56815905D01*
X162303305Y-57819949D01*
X162305237Y-58786955D01*
X162307236Y-59712794D01*
X162309296Y-60593338D01*
X162311406Y-61424456D01*
X162313558Y-62202019D01*
X162315743Y-62921899D01*
X162317952Y-63579966D01*
X162320176Y-64172090D01*
X162322407Y-64694143D01*
X162324635Y-65141995D01*
X162326852Y-65511516D01*
X162328714Y-65760104D01*
X162356359Y-69015688D01*
X146227580Y-69015688D01*
X146226479Y-59124769D01*
X146743317Y-59124769D01*
X146840017Y-59143394D01*
X146932400Y-59153899D01*
X147077595Y-59162854D01*
X147226819Y-59167873D01*
X147516921Y-59173725D01*
X147515978Y-58589729D01*
X148160404Y-58589729D01*
X148164243Y-58800021D01*
X148175767Y-58952303D01*
X148198525Y-59055873D01*
X148236064Y-59120031D01*
X148291932Y-59154074D01*
X148369678Y-59167300D01*
X148472849Y-59169009D01*
X148604994Y-59168499D01*
X148623604Y-59168740D01*
X148935195Y-59173725D01*
X148935195Y-56803867D01*
X149923689Y-56803867D01*
X149923689Y-59124769D01*
X150020389Y-59144259D01*
X150113672Y-59153666D01*
X150258628Y-59158463D01*
X150396447Y-59157993D01*
X150675804Y-59152236D01*
X150681228Y-58589729D01*
X151340776Y-58589729D01*
X151344615Y-58800021D01*
X151356139Y-58952303D01*
X151378897Y-59055873D01*
X151416436Y-59120031D01*
X151472304Y-59154074D01*
X151550050Y-59167300D01*
X151653221Y-59169009D01*
X151785366Y-59168499D01*
X151803976Y-59168740D01*
X152115567Y-59173725D01*
X152115567Y-57227025D01*
X153059898Y-57227025D01*
X153062628Y-57438671D01*
X153070174Y-57710706D01*
X153081522Y-58053062D01*
X153089320Y-58283913D01*
X153098608Y-58581326D01*
X153107598Y-58803693D01*
X153121990Y-58961716D01*
X153147484Y-59066096D01*
X153189779Y-59127535D01*
X153254575Y-59156734D01*
X153347573Y-59164394D01*
X153474471Y-59161216D01*
X153555330Y-59158842D01*
X153856176Y-59152236D01*
X153856457Y-59123034D01*
X154466119Y-59123034D01*
X154569438Y-59142527D01*
X154663714Y-59153110D01*
X154812027Y-59162197D01*
X154982461Y-59167837D01*
X154984349Y-59167873D01*
X155295939Y-59173725D01*
X155295939Y-59124769D01*
X156370389Y-59124769D01*
X156467090Y-59143394D01*
X156559472Y-59153899D01*
X156704667Y-59162854D01*
X156853892Y-59167873D01*
X157143993Y-59173725D01*
X157143050Y-58589729D01*
X157787477Y-58589729D01*
X157791316Y-58800021D01*
X157802840Y-58952303D01*
X157825597Y-59055873D01*
X157863136Y-59120031D01*
X157919005Y-59154074D01*
X157996751Y-59167300D01*
X158099922Y-59169009D01*
X158232066Y-59168499D01*
X158250677Y-59168740D01*
X158562267Y-59173725D01*
X158562267Y-56803867D01*
X159550762Y-56803867D01*
X159550762Y-59124769D01*
X159647462Y-59144259D01*
X159740745Y-59153666D01*
X159885701Y-59158463D01*
X160023520Y-59157993D01*
X160302877Y-59152236D01*
X160308301Y-58589729D01*
X160967849Y-58589729D01*
X160971688Y-58800021D01*
X160983212Y-58952303D01*
X161005970Y-59055873D01*
X161043509Y-59120031D01*
X161099377Y-59154074D01*
X161177123Y-59167300D01*
X161280294Y-59169009D01*
X161412439Y-59168499D01*
X161431049Y-59168740D01*
X161742640Y-59173725D01*
X161742640Y-56741876D01*
X161374084Y-56380166D01*
X161171560Y-56585782D01*
X160969036Y-56791399D01*
X160969036Y-57957922D01*
X160968148Y-58312129D01*
X160967849Y-58589729D01*
X160308301Y-58589729D01*
X160325691Y-56786520D01*
X160118019Y-56581971D01*
X159910346Y-56377421D01*
X159550762Y-56803867D01*
X158562267Y-56803867D01*
X158562267Y-56741876D01*
X158377990Y-56561021D01*
X158193712Y-56380166D01*
X157991188Y-56585782D01*
X157788663Y-56791399D01*
X157788663Y-57957922D01*
X157787775Y-58312129D01*
X157787477Y-58589729D01*
X157143050Y-58589729D01*
X157142067Y-57981086D01*
X157140141Y-56788446D01*
X156768189Y-56373518D01*
X156570286Y-56580982D01*
X156372382Y-56788446D01*
X156371385Y-57956608D01*
X156370389Y-59124769D01*
X155295939Y-59124769D01*
X155295939Y-56775273D01*
X155105438Y-56566970D01*
X154914937Y-56358666D01*
X154526187Y-56788446D01*
X154524130Y-57218226D01*
X154521649Y-57414500D01*
X154516184Y-57669619D01*
X154508428Y-57956554D01*
X154499077Y-58248274D01*
X154494096Y-58385520D01*
X154466119Y-59123034D01*
X153856457Y-59123034D01*
X153878990Y-56786520D01*
X153669518Y-56580197D01*
X153460045Y-56373874D01*
X153260564Y-56601911D01*
X153201270Y-56668991D01*
X153153872Y-56726922D01*
X153117356Y-56785637D01*
X153090712Y-56855072D01*
X153072929Y-56945158D01*
X153062995Y-57065832D01*
X153059898Y-57227025D01*
X152115567Y-57227025D01*
X152115567Y-56741876D01*
X151931289Y-56561021D01*
X151747012Y-56380166D01*
X151544487Y-56585782D01*
X151341963Y-56791399D01*
X151341963Y-57957922D01*
X151341075Y-58312129D01*
X151340776Y-58589729D01*
X150681228Y-58589729D01*
X150698618Y-56786520D01*
X150490946Y-56581971D01*
X150283273Y-56377421D01*
X149923689Y-56803867D01*
X148935195Y-56803867D01*
X148935195Y-56741876D01*
X148566639Y-56380166D01*
X148364115Y-56585782D01*
X148161591Y-56791399D01*
X148161591Y-57957922D01*
X148160703Y-58312129D01*
X148160404Y-58589729D01*
X147515978Y-58589729D01*
X147514995Y-57981086D01*
X147513069Y-56788446D01*
X147141117Y-56373518D01*
X146745309Y-56788446D01*
X146744313Y-57956608D01*
X146743317Y-59124769D01*
X146226479Y-59124769D01*
X146226217Y-56777702D01*
X146226099Y-55727281D01*
X146225979Y-54683965D01*
X146225859Y-53652087D01*
X146225737Y-52635986D01*
X146225616Y-51639997D01*
X146225496Y-50668456D01*
X146225377Y-49725699D01*
X146225340Y-49430664D01*
X146743317Y-49430664D01*
X146743513Y-50151654D01*
X146744087Y-50849087D01*
X146745016Y-51518128D01*
X146746279Y-52153942D01*
X146747852Y-52751694D01*
X146749713Y-53306548D01*
X146751840Y-53813669D01*
X146754210Y-54268221D01*
X146756802Y-54665369D01*
X146759592Y-55000277D01*
X146762559Y-55268111D01*
X146765679Y-55464035D01*
X146768931Y-55583213D01*
X146771969Y-55620877D01*
X146821149Y-55628767D01*
X146944305Y-55635825D01*
X147129454Y-55641738D01*
X147364617Y-55646191D01*
X147637814Y-55648871D01*
X147865037Y-55649529D01*
X148929454Y-55649529D01*
X149923689Y-55649529D01*
X152109826Y-55649529D01*
X152123441Y-49492930D01*
X152125463Y-48630318D01*
X152127406Y-47849411D01*
X152129087Y-47145959D01*
X152130324Y-46515712D01*
X152130934Y-45954420D01*
X152130734Y-45457831D01*
X152129542Y-45021697D01*
X152127175Y-44641766D01*
X152124624Y-44417127D01*
X153065809Y-44417127D01*
X153067563Y-44810991D01*
X153071328Y-45276058D01*
X153076456Y-45819319D01*
X153077073Y-45883927D01*
X153080976Y-46340079D01*
X153084723Y-46868747D01*
X153088259Y-47456491D01*
X153091529Y-48089871D01*
X153094476Y-48755447D01*
X153097045Y-49439779D01*
X153099181Y-50129426D01*
X153100828Y-50810950D01*
X153101930Y-51470909D01*
X153102398Y-52007143D01*
X153104061Y-55649529D01*
X155295939Y-55649529D01*
X155295939Y-49458984D01*
X155295939Y-49430664D01*
X156370389Y-49430664D01*
X156370586Y-50151654D01*
X156371160Y-50849087D01*
X156372089Y-51518128D01*
X156373351Y-52153942D01*
X156374924Y-52751694D01*
X156376786Y-53306548D01*
X156378913Y-53813669D01*
X156381283Y-54268221D01*
X156383875Y-54665369D01*
X156386665Y-55000277D01*
X156389632Y-55268111D01*
X156392752Y-55464035D01*
X156396004Y-55583213D01*
X156399041Y-55620877D01*
X156448222Y-55628767D01*
X156571377Y-55635825D01*
X156756527Y-55641738D01*
X156991690Y-55646191D01*
X157264886Y-55648871D01*
X157492110Y-55649529D01*
X158556526Y-55649529D01*
X159550762Y-55649529D01*
X161736899Y-55649529D01*
X161750514Y-49492930D01*
X161752536Y-48630318D01*
X161754479Y-47849411D01*
X161756160Y-47145959D01*
X161757397Y-46515712D01*
X161758007Y-45954420D01*
X161757807Y-45457831D01*
X161756614Y-45021697D01*
X161754247Y-44641766D01*
X161750523Y-44313788D01*
X161745259Y-44033513D01*
X161738272Y-43796690D01*
X161729379Y-43599069D01*
X161718399Y-43436399D01*
X161705149Y-43304431D01*
X161689446Y-43198914D01*
X161671107Y-43115597D01*
X161649950Y-43050230D01*
X161625792Y-42998564D01*
X161598451Y-42956346D01*
X161567744Y-42919328D01*
X161533489Y-42883258D01*
X161495503Y-42843887D01*
X161463354Y-42808368D01*
X161235584Y-42606036D01*
X160973289Y-42481091D01*
X160681855Y-42434791D01*
X160366667Y-42468393D01*
X160205140Y-42514424D01*
X159994078Y-42625776D01*
X159802569Y-42798158D01*
X159655358Y-43006799D01*
X159607754Y-43112400D01*
X159600314Y-43155458D01*
X159593534Y-43244081D01*
X159587387Y-43381254D01*
X159581848Y-43569961D01*
X159576892Y-43813183D01*
X159572494Y-44113904D01*
X159568628Y-44475109D01*
X159565269Y-44899779D01*
X159562392Y-45390898D01*
X159559972Y-45951450D01*
X159557983Y-46584417D01*
X159556399Y-47292784D01*
X159555197Y-48079532D01*
X159554349Y-48947646D01*
X159554031Y-49449952D01*
X159550762Y-55649529D01*
X158556526Y-55649529D01*
X158571280Y-49492930D01*
X158573463Y-48629262D01*
X158575547Y-47847309D01*
X158577351Y-47142834D01*
X158578692Y-46511595D01*
X158579388Y-45949354D01*
X158579256Y-45451871D01*
X158578113Y-45014905D01*
X158575779Y-44634218D01*
X158572069Y-44305569D01*
X158566802Y-44024719D01*
X158559795Y-43787429D01*
X158550866Y-43589458D01*
X158539833Y-43426567D01*
X158526513Y-43294517D01*
X158510724Y-43189067D01*
X158492284Y-43105978D01*
X158471009Y-43041010D01*
X158446718Y-42989925D01*
X158419228Y-42948481D01*
X158388357Y-42912439D01*
X158353923Y-42877560D01*
X158315743Y-42839604D01*
X158283600Y-42805528D01*
X158103502Y-42627284D01*
X157934661Y-42514468D01*
X157751452Y-42454866D01*
X157528251Y-42436264D01*
X157508737Y-42436181D01*
X157184444Y-42473241D01*
X156902818Y-42581987D01*
X156669605Y-42758765D01*
X156490554Y-42999923D01*
X156432656Y-43120078D01*
X156423929Y-43150238D01*
X156416035Y-43199587D01*
X156408934Y-43272175D01*
X156402586Y-43372049D01*
X156396951Y-43503258D01*
X156391990Y-43669851D01*
X156387661Y-43875876D01*
X156383926Y-44125381D01*
X156380744Y-44422415D01*
X156378075Y-44771027D01*
X156375879Y-45175265D01*
X156374117Y-45639178D01*
X156372749Y-46166814D01*
X156371734Y-46762221D01*
X156371033Y-47429448D01*
X156370605Y-48172544D01*
X156370411Y-48995558D01*
X156370389Y-49430664D01*
X155295939Y-49430664D01*
X155295917Y-48607356D01*
X155295811Y-47837437D01*
X155295567Y-47144984D01*
X155295128Y-46525751D01*
X155294438Y-45975492D01*
X155293442Y-45489961D01*
X155292082Y-45064914D01*
X155290303Y-44696106D01*
X155288050Y-44379289D01*
X155285265Y-44110220D01*
X155281893Y-43884653D01*
X155277878Y-43698342D01*
X155273164Y-43547041D01*
X155267694Y-43426506D01*
X155261413Y-43332492D01*
X155254264Y-43260751D01*
X155246193Y-43207040D01*
X155237141Y-43167113D01*
X155227054Y-43136724D01*
X155215876Y-43111627D01*
X155212037Y-43103979D01*
X155031098Y-42824854D01*
X154812292Y-42619078D01*
X154559779Y-42489521D01*
X154277720Y-42439053D01*
X154247561Y-42438463D01*
X153916224Y-42470135D01*
X153637384Y-42569376D01*
X153409787Y-42736676D01*
X153365114Y-42784200D01*
X153301856Y-42856326D01*
X153247757Y-42922740D01*
X153202167Y-42990434D01*
X153164436Y-43066399D01*
X153133916Y-43157629D01*
X153109955Y-43271116D01*
X153091904Y-43413851D01*
X153079114Y-43592828D01*
X153070935Y-43815038D01*
X153066716Y-44087473D01*
X153065809Y-44417127D01*
X152124624Y-44417127D01*
X152123450Y-44313788D01*
X152118186Y-44033513D01*
X152111199Y-43796690D01*
X152102307Y-43599069D01*
X152091327Y-43436399D01*
X152078076Y-43304431D01*
X152062373Y-43198914D01*
X152044034Y-43115597D01*
X152022877Y-43050230D01*
X151998720Y-42998564D01*
X151971379Y-42956346D01*
X151940672Y-42919328D01*
X151906416Y-42883258D01*
X151868430Y-42843887D01*
X151836281Y-42808368D01*
X151608512Y-42606036D01*
X151346217Y-42481091D01*
X151054782Y-42434791D01*
X150739594Y-42468393D01*
X150578068Y-42514424D01*
X150367005Y-42625776D01*
X150175496Y-42798158D01*
X150028286Y-43006799D01*
X149980681Y-43112400D01*
X149973242Y-43155458D01*
X149966461Y-43244081D01*
X149960314Y-43381254D01*
X149954775Y-43569961D01*
X149949819Y-43813183D01*
X149945421Y-44113904D01*
X149941555Y-44475109D01*
X149938197Y-44899779D01*
X149935320Y-45390898D01*
X149932899Y-45951450D01*
X149930910Y-46584417D01*
X149929326Y-47292784D01*
X149928124Y-48079532D01*
X149927276Y-48947646D01*
X149926958Y-49449952D01*
X149923689Y-55649529D01*
X148929454Y-55649529D01*
X148944208Y-49492930D01*
X148946390Y-48629262D01*
X148948475Y-47847309D01*
X148950279Y-47142834D01*
X148951620Y-46511595D01*
X148952315Y-45949354D01*
X148952183Y-45451871D01*
X148951041Y-45014905D01*
X148948706Y-44634218D01*
X148944996Y-44305569D01*
X148939729Y-44024719D01*
X148932722Y-43787429D01*
X148923794Y-43589458D01*
X148912761Y-43426567D01*
X148899441Y-43294517D01*
X148883652Y-43189067D01*
X148865211Y-43105978D01*
X148843936Y-43041010D01*
X148819645Y-42989925D01*
X148792155Y-42948481D01*
X148761285Y-42912439D01*
X148726850Y-42877560D01*
X148688670Y-42839604D01*
X148656527Y-42805528D01*
X148476430Y-42627284D01*
X148307589Y-42514468D01*
X148124379Y-42454866D01*
X147901178Y-42436264D01*
X147881664Y-42436181D01*
X147557372Y-42473241D01*
X147275745Y-42581987D01*
X147042533Y-42758765D01*
X146863481Y-42999923D01*
X146805583Y-43120078D01*
X146796857Y-43150238D01*
X146788963Y-43199587D01*
X146781862Y-43272175D01*
X146775514Y-43372049D01*
X146769879Y-43503258D01*
X146764917Y-43669851D01*
X146760588Y-43875876D01*
X146756853Y-44125381D01*
X146753671Y-44422415D01*
X146751002Y-44771027D01*
X146748807Y-45175265D01*
X146747045Y-45639178D01*
X146745676Y-46166814D01*
X146744661Y-46762221D01*
X146743960Y-47429448D01*
X146743532Y-48172544D01*
X146743338Y-48995558D01*
X146743317Y-49430664D01*
X146225340Y-49430664D01*
X146225260Y-48816062D01*
X146225145Y-47943882D01*
X146225033Y-47113494D01*
X146224925Y-46329236D01*
X146224822Y-45595442D01*
X146224723Y-44916449D01*
X146224629Y-44296594D01*
X146224542Y-43740212D01*
X146224461Y-43251639D01*
X146224387Y-42835212D01*
X146224321Y-42495266D01*
X146224263Y-42236139D01*
X146224254Y-42197414D01*
X146224179Y-41738305D01*
X146224169Y-41267666D01*
X146667193Y-41267666D01*
X146698868Y-41345029D01*
X146767734Y-41425436D01*
X146829396Y-41483276D01*
X147001432Y-41638700D01*
X148663220Y-41638700D01*
X148863675Y-41482528D01*
X148981707Y-41381921D01*
X149042681Y-41300599D01*
X149051402Y-41263867D01*
X149842071Y-41263867D01*
X149875139Y-41341766D01*
X149945956Y-41423548D01*
X150009769Y-41483276D01*
X150181804Y-41638700D01*
X151845844Y-41638700D01*
X152045007Y-41477532D01*
X152164664Y-41370478D01*
X152225803Y-41283355D01*
X152229353Y-41265932D01*
X153016332Y-41265932D01*
X153050650Y-41347063D01*
X153123236Y-41432612D01*
X153179273Y-41486536D01*
X153340440Y-41636374D01*
X155032200Y-41638700D01*
X155225797Y-41477532D01*
X155346466Y-41364545D01*
X155406841Y-41270112D01*
X155407289Y-41267666D01*
X156294265Y-41267666D01*
X156325941Y-41345029D01*
X156394807Y-41425436D01*
X156456469Y-41483276D01*
X156628505Y-41638700D01*
X158290293Y-41638700D01*
X158490747Y-41482528D01*
X158608780Y-41381921D01*
X158669754Y-41300599D01*
X158678475Y-41263867D01*
X159469144Y-41263867D01*
X159502211Y-41341766D01*
X159573029Y-41423548D01*
X159636841Y-41483276D01*
X159808877Y-41638700D01*
X161472917Y-41638700D01*
X161672080Y-41477532D01*
X161791736Y-41370478D01*
X161852876Y-41283355D01*
X161871305Y-41192919D01*
X161871408Y-41184396D01*
X161865876Y-41133796D01*
X161843183Y-41082044D01*
X161794381Y-41020358D01*
X161710523Y-40939954D01*
X161582662Y-40832051D01*
X161401850Y-40687865D01*
X161224489Y-40549372D01*
X160577405Y-40046317D01*
X160021961Y-40573896D01*
X159801175Y-40786117D01*
X159639841Y-40950975D01*
X159533618Y-41078721D01*
X159478166Y-41179602D01*
X159469144Y-41263867D01*
X158678475Y-41263867D01*
X158690380Y-41213729D01*
X158691201Y-41184683D01*
X158686910Y-41131939D01*
X158668033Y-41080884D01*
X158625565Y-41022560D01*
X158550501Y-40948010D01*
X158433835Y-40848279D01*
X158266562Y-40714408D01*
X158043192Y-40540169D01*
X157395182Y-40037329D01*
X156845923Y-40569402D01*
X156626426Y-40784591D01*
X156465860Y-40951809D01*
X156359877Y-41081259D01*
X156304128Y-41183144D01*
X156294265Y-41267666D01*
X155407289Y-41267666D01*
X155422133Y-41186752D01*
X155417556Y-41137119D01*
X155395699Y-41086186D01*
X155347667Y-41025236D01*
X155264560Y-40945556D01*
X155137484Y-40838430D01*
X154957540Y-40695144D01*
X154774988Y-40552849D01*
X154125102Y-40048558D01*
X153571604Y-40569155D01*
X153349077Y-40781366D01*
X153186653Y-40946937D01*
X153079966Y-41076081D01*
X153024648Y-41179008D01*
X153016332Y-41265932D01*
X152229353Y-41265932D01*
X152244232Y-41192919D01*
X152244335Y-41184396D01*
X152238804Y-41133796D01*
X152216110Y-41082044D01*
X152167308Y-41020358D01*
X152083450Y-40939954D01*
X151955589Y-40832051D01*
X151774777Y-40687865D01*
X151597417Y-40549372D01*
X150950332Y-40046317D01*
X150394888Y-40573896D01*
X150174103Y-40786117D01*
X150012768Y-40950975D01*
X149906545Y-41078721D01*
X149851093Y-41179602D01*
X149842071Y-41263867D01*
X149051402Y-41263867D01*
X149063307Y-41213729D01*
X149064129Y-41184683D01*
X149059838Y-41131939D01*
X149040961Y-41080884D01*
X148998493Y-41022560D01*
X148923428Y-40948010D01*
X148806762Y-40848279D01*
X148639489Y-40714408D01*
X148416119Y-40540169D01*
X147768109Y-40037329D01*
X147218850Y-40569402D01*
X146999354Y-40784591D01*
X146838788Y-40951809D01*
X146732804Y-41081259D01*
X146677055Y-41183144D01*
X146667193Y-41267666D01*
X146224169Y-41267666D01*
X146224167Y-41208120D01*
X146224214Y-40621741D01*
X146224317Y-39994048D01*
X146224471Y-39339923D01*
X146224674Y-38674246D01*
X146224735Y-38509181D01*
X146702507Y-38509181D01*
X146704872Y-38665892D01*
X146711148Y-38760833D01*
X146714735Y-38777677D01*
X146766701Y-38841348D01*
X146836059Y-38829275D01*
X146911984Y-38746906D01*
X146961975Y-38653219D01*
X147065827Y-38474474D01*
X147192665Y-38370527D01*
X147357002Y-38330639D01*
X147399503Y-38329394D01*
X147555346Y-38356209D01*
X147676662Y-38442250D01*
X147755521Y-38512102D01*
X147803555Y-38522470D01*
X147835876Y-38492248D01*
X147955392Y-38394952D01*
X148120296Y-38339841D01*
X148298686Y-38331482D01*
X148458664Y-38374437D01*
X148497643Y-38397552D01*
X148581400Y-38476729D01*
X148673530Y-38592587D01*
X148701146Y-38633931D01*
X148793591Y-38749496D01*
X148879455Y-38800871D01*
X148892756Y-38802152D01*
X148935466Y-38794791D01*
X148960997Y-38761150D01*
X148973692Y-38683887D01*
X148976887Y-38578784D01*
X149879991Y-38578784D01*
X149881814Y-38706960D01*
X149889690Y-38785565D01*
X149904860Y-38826716D01*
X149928563Y-38842532D01*
X149962041Y-38845129D01*
X149963235Y-38845130D01*
X150035983Y-38819317D01*
X150101018Y-38731740D01*
X150136431Y-38656740D01*
X150243032Y-38474540D01*
X150379056Y-38368244D01*
X150555376Y-38329824D01*
X150579875Y-38329394D01*
X150735718Y-38356209D01*
X150857034Y-38442250D01*
X150935893Y-38512102D01*
X150983928Y-38522470D01*
X151016248Y-38492248D01*
X151143060Y-38388365D01*
X151322638Y-38334672D01*
X151406430Y-38329394D01*
X151555796Y-38343905D01*
X151672734Y-38397649D01*
X151781951Y-38505939D01*
X151858142Y-38609395D01*
X151958253Y-38731629D01*
X152046284Y-38795928D01*
X152074654Y-38802152D01*
X152116988Y-38794350D01*
X152141967Y-38759286D01*
X152153915Y-38679470D01*
X152157159Y-38537413D01*
X152157035Y-38469072D01*
X152137830Y-38169940D01*
X153029870Y-38169940D01*
X153042559Y-38466608D01*
X153059235Y-38650342D01*
X153077172Y-38763966D01*
X153100808Y-38823270D01*
X153134586Y-38844040D01*
X153149028Y-38845130D01*
X153220514Y-38802864D01*
X153290380Y-38675540D01*
X153299177Y-38653219D01*
X153397907Y-38472990D01*
X153532424Y-38367520D01*
X153712242Y-38329725D01*
X153734123Y-38329394D01*
X153891385Y-38358526D01*
X154020648Y-38447583D01*
X154112553Y-38519588D01*
X154160878Y-38521409D01*
X154166561Y-38511146D01*
X154229852Y-38440348D01*
X154348407Y-38378040D01*
X154491677Y-38337608D01*
X154581370Y-38329394D01*
X154744439Y-38368879D01*
X154906203Y-38477651D01*
X155046289Y-38641179D01*
X155068483Y-38676749D01*
X155141724Y-38762763D01*
X155219351Y-38801923D01*
X155224438Y-38802152D01*
X155258504Y-38797001D01*
X155280662Y-38772170D01*
X155292569Y-38713592D01*
X155295881Y-38607199D01*
X155293769Y-38509181D01*
X156329580Y-38509181D01*
X156331944Y-38665892D01*
X156338221Y-38760833D01*
X156341808Y-38777677D01*
X156393774Y-38841348D01*
X156463132Y-38829275D01*
X156539057Y-38746906D01*
X156589048Y-38653219D01*
X156692899Y-38474474D01*
X156819738Y-38370527D01*
X156984074Y-38330639D01*
X157026576Y-38329394D01*
X157184582Y-38357017D01*
X157299505Y-38438021D01*
X157408133Y-38546648D01*
X157537228Y-38438021D01*
X157683055Y-38352590D01*
X157846865Y-38329394D01*
X158023193Y-38353761D01*
X158166611Y-38435228D01*
X158296955Y-38586345D01*
X158328219Y-38633931D01*
X158420664Y-38749496D01*
X158506528Y-38800871D01*
X158519829Y-38802152D01*
X158562539Y-38794791D01*
X158588070Y-38761150D01*
X158600765Y-38683887D01*
X158603960Y-38578784D01*
X159507064Y-38578784D01*
X159508887Y-38706960D01*
X159516763Y-38785565D01*
X159531932Y-38826716D01*
X159555636Y-38842532D01*
X159589113Y-38845129D01*
X159590308Y-38845130D01*
X159663056Y-38819317D01*
X159728091Y-38731740D01*
X159763503Y-38656740D01*
X159870105Y-38474540D01*
X160006129Y-38368244D01*
X160182449Y-38329824D01*
X160206948Y-38329394D01*
X160362791Y-38356209D01*
X160484107Y-38442250D01*
X160562966Y-38512102D01*
X160611000Y-38522470D01*
X160643321Y-38492248D01*
X160770132Y-38388365D01*
X160949710Y-38334672D01*
X161033503Y-38329394D01*
X161182869Y-38343905D01*
X161299807Y-38397649D01*
X161409024Y-38505939D01*
X161485215Y-38609395D01*
X161585325Y-38731629D01*
X161673357Y-38795928D01*
X161701726Y-38802152D01*
X161744061Y-38794350D01*
X161769040Y-38759286D01*
X161780988Y-38679470D01*
X161784232Y-38537413D01*
X161784108Y-38469072D01*
X161758710Y-38073499D01*
X161689314Y-37702637D01*
X161580649Y-37374032D01*
X161437444Y-37105231D01*
X161403988Y-37058762D01*
X161227488Y-36849054D01*
X161063191Y-36707662D01*
X160892809Y-36622535D01*
X160698058Y-36581621D01*
X160676811Y-36579522D01*
X160476204Y-36569413D01*
X160321978Y-36588143D01*
X160186740Y-36645934D01*
X160043097Y-36753006D01*
X159926203Y-36859595D01*
X159795923Y-36987568D01*
X159698238Y-37100730D01*
X159628047Y-37214841D01*
X159580248Y-37345666D01*
X159549741Y-37508966D01*
X159531425Y-37720505D01*
X159520198Y-37996044D01*
X159516614Y-38125248D01*
X159510053Y-38388920D01*
X159507064Y-38578784D01*
X158603960Y-38578784D01*
X158604968Y-38545662D01*
X158605245Y-38461137D01*
X158574385Y-37995757D01*
X158482634Y-37583203D01*
X158331236Y-37226943D01*
X158121435Y-36930443D01*
X158019119Y-36827228D01*
X157852399Y-36692085D01*
X157695345Y-36612140D01*
X157514695Y-36574848D01*
X157329888Y-36567296D01*
X157166427Y-36582254D01*
X157022120Y-36634863D01*
X156874997Y-36736721D01*
X156705451Y-36897003D01*
X156583445Y-37030895D01*
X156493164Y-37157288D01*
X156429280Y-37293277D01*
X156386465Y-37455960D01*
X156359392Y-37662434D01*
X156342734Y-37929795D01*
X156337057Y-38079285D01*
X156331245Y-38307909D01*
X156329580Y-38509181D01*
X155293769Y-38509181D01*
X155292255Y-38438923D01*
X155286434Y-38275671D01*
X155262888Y-37931017D01*
X155217085Y-37650298D01*
X155142841Y-37413009D01*
X155033968Y-37198647D01*
X154905918Y-37014391D01*
X154734958Y-36818085D01*
X154567802Y-36689157D01*
X154380054Y-36613786D01*
X154147314Y-36578152D01*
X154134071Y-36577167D01*
X153974546Y-36568480D01*
X153866833Y-36576638D01*
X153777137Y-36610743D01*
X153671665Y-36679899D01*
X153624123Y-36714543D01*
X153481842Y-36830601D01*
X153348362Y-36958405D01*
X153283765Y-37031720D01*
X153174271Y-37227493D01*
X153093947Y-37491434D01*
X153045059Y-37810072D01*
X153029870Y-38169940D01*
X152137830Y-38169940D01*
X152131637Y-38073499D01*
X152062241Y-37702637D01*
X151953576Y-37374032D01*
X151810372Y-37105231D01*
X151776916Y-37058762D01*
X151600416Y-36849054D01*
X151436118Y-36707662D01*
X151265736Y-36622535D01*
X151070985Y-36581621D01*
X151049738Y-36579522D01*
X150849131Y-36569413D01*
X150694905Y-36588143D01*
X150559668Y-36645934D01*
X150416024Y-36753006D01*
X150299130Y-36859595D01*
X150168850Y-36987568D01*
X150071165Y-37100730D01*
X150000974Y-37214841D01*
X149953175Y-37345666D01*
X149922669Y-37508966D01*
X149904352Y-37720505D01*
X149893126Y-37996044D01*
X149889542Y-38125248D01*
X149882980Y-38388920D01*
X149879991Y-38578784D01*
X148976887Y-38578784D01*
X148977895Y-38545662D01*
X148978173Y-38461137D01*
X148947313Y-37995757D01*
X148855562Y-37583203D01*
X148704163Y-37226943D01*
X148494362Y-36930443D01*
X148392047Y-36827228D01*
X148225326Y-36692085D01*
X148068272Y-36612140D01*
X147887622Y-36574848D01*
X147702815Y-36567296D01*
X147539355Y-36582254D01*
X147395047Y-36634863D01*
X147247924Y-36736721D01*
X147078378Y-36897003D01*
X146956373Y-37030895D01*
X146866092Y-37157288D01*
X146802207Y-37293277D01*
X146759392Y-37455960D01*
X146732319Y-37662434D01*
X146715661Y-37929795D01*
X146709984Y-38079285D01*
X146704172Y-38307909D01*
X146702507Y-38509181D01*
X146224735Y-38509181D01*
X146224922Y-38011898D01*
X146225210Y-37367759D01*
X146225536Y-36756711D01*
X146225617Y-36621018D01*
X146227580Y-33386923D01*
X154253723Y-33386925D01*
G36*
X141502628Y-22793452D02*
G01*
X142516811Y-22794196D01*
X143521802Y-22795391D01*
X144508088Y-22797041D01*
X145466153Y-22799149D01*
X146386482Y-22801717D01*
X146594300Y-22802381D01*
X154245791Y-22827458D01*
X156801576Y-27443276D01*
X157124521Y-28026649D01*
X157435903Y-28589381D01*
X157733186Y-29126874D01*
X158013831Y-29634528D01*
X158275302Y-30107747D01*
X158515059Y-30541931D01*
X158730567Y-30932481D01*
X158919287Y-31274801D01*
X159078682Y-31564290D01*
X159206214Y-31796352D01*
X159299346Y-31966387D01*
X159355540Y-32069797D01*
X159372393Y-32101946D01*
X159331691Y-32107944D01*
X159205190Y-32113119D01*
X158993043Y-32117472D01*
X158695405Y-32121001D01*
X158312427Y-32123706D01*
X157844264Y-32125588D01*
X157291069Y-32126645D01*
X156652994Y-32126878D01*
X155930194Y-32126287D01*
X155122821Y-32124870D01*
X154231029Y-32122629D01*
X153254972Y-32119562D01*
X152194801Y-32115670D01*
X151840497Y-32114261D01*
X144293570Y-32083724D01*
X144293570Y-68876729D01*
X144196870Y-68902644D01*
X144137987Y-68907149D01*
X144000645Y-68911423D01*
X143792338Y-68915398D01*
X143520565Y-68919003D01*
X143192820Y-68922171D01*
X142816600Y-68924831D01*
X142399400Y-68926915D01*
X141948718Y-68928354D01*
X141472049Y-68929078D01*
X141324477Y-68929145D01*
X138548785Y-68929732D01*
X138520162Y-58478934D01*
X138517335Y-57407354D01*
X138514583Y-56288035D01*
X138511922Y-55129602D01*
X138509363Y-53940677D01*
X138506921Y-52729884D01*
X138504609Y-51505846D01*
X138502440Y-50277186D01*
X138500428Y-49052527D01*
X138498586Y-47840494D01*
X138496928Y-46649708D01*
X138495466Y-45488794D01*
X138494214Y-44366374D01*
X138493186Y-43291072D01*
X138492394Y-42271511D01*
X138491853Y-41316315D01*
X138491576Y-40434106D01*
X138491540Y-40019996D01*
X138491540Y-32011857D01*
X130630156Y-32000998D01*
X122768773Y-31990138D01*
X126135275Y-26230823D01*
X138061760Y-26230823D01*
X138103296Y-26235409D01*
X138222138Y-26240165D01*
X138409635Y-26244942D01*
X138657139Y-26249593D01*
X138955999Y-26253970D01*
X139297566Y-26257924D01*
X139673190Y-26261308D01*
X139963536Y-26263331D01*
X140428410Y-26266229D01*
X140924599Y-26269411D01*
X141432837Y-26272748D01*
X141933857Y-26276111D01*
X142408393Y-26279369D01*
X142837177Y-26282395D01*
X143200944Y-26285057D01*
X143228780Y-26285267D01*
X144592246Y-26295553D01*
X144449807Y-25983962D01*
X144263942Y-25578269D01*
X144085299Y-25190043D01*
X143917425Y-24826869D01*
X143763865Y-24496335D01*
X143628167Y-24206028D01*
X143513876Y-23963536D01*
X143424540Y-23776444D01*
X143363704Y-23652341D01*
X143334916Y-23598813D01*
X143334820Y-23598683D01*
X143277141Y-23579811D01*
X143138793Y-23564879D01*
X142924974Y-23553931D01*
X142640883Y-23547014D01*
X142291717Y-23544172D01*
X141882675Y-23545451D01*
X141418956Y-23550895D01*
X140905758Y-23560550D01*
X140396610Y-23573130D01*
X139365257Y-23601300D01*
X138713508Y-24905633D01*
X138559401Y-25214637D01*
X138418291Y-25498722D01*
X138294612Y-25748872D01*
X138192799Y-25956070D01*
X138117286Y-26111298D01*
X138072508Y-26205542D01*
X138061760Y-26230823D01*
X126135275Y-26230823D01*
X128119761Y-22835824D01*
X133531285Y-22806564D01*
X134200032Y-22803383D01*
X134945219Y-22800625D01*
X135757331Y-22798295D01*
X136626855Y-22796395D01*
X137544275Y-22794928D01*
X138500077Y-22793897D01*
X139484747Y-22793305D01*
X140488768Y-22793156D01*
X141502628Y-22793452D01*
X141502628Y-22793452D01*
G37*
X141502628Y-22793452D02*
X142516811Y-22794196D01*
X143521802Y-22795391D01*
X144508088Y-22797041D01*
X145466153Y-22799149D01*
X146386482Y-22801717D01*
X146594300Y-22802381D01*
X154245791Y-22827458D01*
X156801576Y-27443276D01*
X157124521Y-28026649D01*
X157435903Y-28589381D01*
X157733186Y-29126874D01*
X158013831Y-29634528D01*
X158275302Y-30107747D01*
X158515059Y-30541931D01*
X158730567Y-30932481D01*
X158919287Y-31274801D01*
X159078682Y-31564290D01*
X159206214Y-31796352D01*
X159299346Y-31966387D01*
X159355540Y-32069797D01*
X159372393Y-32101946D01*
X159331691Y-32107944D01*
X159205190Y-32113119D01*
X158993043Y-32117472D01*
X158695405Y-32121001D01*
X158312427Y-32123706D01*
X157844264Y-32125588D01*
X157291069Y-32126645D01*
X156652994Y-32126878D01*
X155930194Y-32126287D01*
X155122821Y-32124870D01*
X154231029Y-32122629D01*
X153254972Y-32119562D01*
X152194801Y-32115670D01*
X151840497Y-32114261D01*
X144293570Y-32083724D01*
X144293570Y-68876729D01*
X144196870Y-68902644D01*
X144137987Y-68907149D01*
X144000645Y-68911423D01*
X143792338Y-68915398D01*
X143520565Y-68919003D01*
X143192820Y-68922171D01*
X142816600Y-68924831D01*
X142399400Y-68926915D01*
X141948718Y-68928354D01*
X141472049Y-68929078D01*
X141324477Y-68929145D01*
X138548785Y-68929732D01*
X138520162Y-58478934D01*
X138517335Y-57407354D01*
X138514583Y-56288035D01*
X138511922Y-55129602D01*
X138509363Y-53940677D01*
X138506921Y-52729884D01*
X138504609Y-51505846D01*
X138502440Y-50277186D01*
X138500428Y-49052527D01*
X138498586Y-47840494D01*
X138496928Y-46649708D01*
X138495466Y-45488794D01*
X138494214Y-44366374D01*
X138493186Y-43291072D01*
X138492394Y-42271511D01*
X138491853Y-41316315D01*
X138491576Y-40434106D01*
X138491540Y-40019996D01*
X138491540Y-32011857D01*
X130630156Y-32000998D01*
X122768773Y-31990138D01*
X126135275Y-26230823D01*
X138061760Y-26230823D01*
X138103296Y-26235409D01*
X138222138Y-26240165D01*
X138409635Y-26244942D01*
X138657139Y-26249593D01*
X138955999Y-26253970D01*
X139297566Y-26257924D01*
X139673190Y-26261308D01*
X139963536Y-26263331D01*
X140428410Y-26266229D01*
X140924599Y-26269411D01*
X141432837Y-26272748D01*
X141933857Y-26276111D01*
X142408393Y-26279369D01*
X142837177Y-26282395D01*
X143200944Y-26285057D01*
X143228780Y-26285267D01*
X144592246Y-26295553D01*
X144449807Y-25983962D01*
X144263942Y-25578269D01*
X144085299Y-25190043D01*
X143917425Y-24826869D01*
X143763865Y-24496335D01*
X143628167Y-24206028D01*
X143513876Y-23963536D01*
X143424540Y-23776444D01*
X143363704Y-23652341D01*
X143334916Y-23598813D01*
X143334820Y-23598683D01*
X143277141Y-23579811D01*
X143138793Y-23564879D01*
X142924974Y-23553931D01*
X142640883Y-23547014D01*
X142291717Y-23544172D01*
X141882675Y-23545451D01*
X141418956Y-23550895D01*
X140905758Y-23560550D01*
X140396610Y-23573130D01*
X139365257Y-23601300D01*
X138713508Y-24905633D01*
X138559401Y-25214637D01*
X138418291Y-25498722D01*
X138294612Y-25748872D01*
X138192799Y-25956070D01*
X138117286Y-26111298D01*
X138072508Y-26205542D01*
X138061760Y-26230823D01*
X126135275Y-26230823D01*
X128119761Y-22835824D01*
X133531285Y-22806564D01*
X134200032Y-22803383D01*
X134945219Y-22800625D01*
X135757331Y-22798295D01*
X136626855Y-22796395D01*
X137544275Y-22794928D01*
X138500077Y-22793897D01*
X139484747Y-22793305D01*
X140488768Y-22793156D01*
X141502628Y-22793452D01*
G36*
X187774119Y-60430832D02*
G01*
X187866471Y-60555693D01*
X187939775Y-60657700D01*
X187975221Y-60710189D01*
X187963825Y-60716042D01*
X187920619Y-60721481D01*
X187842925Y-60726520D01*
X187728068Y-60731171D01*
X187573370Y-60735447D01*
X187376155Y-60739364D01*
X187133747Y-60742932D01*
X186843470Y-60746167D01*
X186502647Y-60749081D01*
X186108602Y-60751688D01*
X185658659Y-60754001D01*
X185150140Y-60756034D01*
X184580371Y-60757799D01*
X183946674Y-60759310D01*
X183246373Y-60760582D01*
X182476792Y-60761626D01*
X181635255Y-60762456D01*
X180719084Y-60763086D01*
X179725604Y-60763529D01*
X178652138Y-60763798D01*
X177496010Y-60763908D01*
X177217257Y-60763911D01*
X166427242Y-60763911D01*
X166427242Y-60205197D01*
X187605071Y-60205197D01*
X187774119Y-60430832D01*
X187774119Y-60430832D01*
G37*
X187774119Y-60430832D02*
X187866471Y-60555693D01*
X187939775Y-60657700D01*
X187975221Y-60710189D01*
X187963825Y-60716042D01*
X187920619Y-60721481D01*
X187842925Y-60726520D01*
X187728068Y-60731171D01*
X187573370Y-60735447D01*
X187376155Y-60739364D01*
X187133747Y-60742932D01*
X186843470Y-60746167D01*
X186502647Y-60749081D01*
X186108602Y-60751688D01*
X185658659Y-60754001D01*
X185150140Y-60756034D01*
X184580371Y-60757799D01*
X183946674Y-60759310D01*
X183246373Y-60760582D01*
X182476792Y-60761626D01*
X181635255Y-60762456D01*
X180719084Y-60763086D01*
X179725604Y-60763529D01*
X178652138Y-60763798D01*
X177496010Y-60763908D01*
X177217257Y-60763911D01*
X166427242Y-60763911D01*
X166427242Y-60205197D01*
X187605071Y-60205197D01*
X187774119Y-60430832D01*
G36*
X117217428Y-59431593D02*
G01*
X106276990Y-59431593D01*
X105092952Y-59431520D01*
X103992211Y-59431292D01*
X102972110Y-59430896D01*
X102029990Y-59430319D01*
X101163194Y-59429548D01*
X100369063Y-59428570D01*
X99644938Y-59427371D01*
X98988163Y-59425939D01*
X98396078Y-59424260D01*
X97866025Y-59422322D01*
X97395347Y-59420111D01*
X96981385Y-59417614D01*
X96621481Y-59414818D01*
X96312976Y-59411710D01*
X96053214Y-59408277D01*
X95839534Y-59404506D01*
X95669280Y-59400384D01*
X95539794Y-59395898D01*
X95448416Y-59391034D01*
X95392489Y-59385779D01*
X95369355Y-59380121D01*
X95368604Y-59377871D01*
X95409904Y-59317072D01*
X95485837Y-59211767D01*
X95569705Y-59098514D01*
X95738754Y-58872879D01*
X117217428Y-58872879D01*
X117217428Y-59431593D01*
X117217428Y-59431593D01*
G37*
X117217428Y-59431593D02*
X106276990Y-59431593D01*
X105092952Y-59431520D01*
X103992211Y-59431292D01*
X102972110Y-59430896D01*
X102029990Y-59430319D01*
X101163194Y-59429548D01*
X100369063Y-59428570D01*
X99644938Y-59427371D01*
X98988163Y-59425939D01*
X98396078Y-59424260D01*
X97866025Y-59422322D01*
X97395347Y-59420111D01*
X96981385Y-59417614D01*
X96621481Y-59414818D01*
X96312976Y-59411710D01*
X96053214Y-59408277D01*
X95839534Y-59404506D01*
X95669280Y-59400384D01*
X95539794Y-59395898D01*
X95448416Y-59391034D01*
X95392489Y-59385779D01*
X95369355Y-59380121D01*
X95368604Y-59377871D01*
X95409904Y-59317072D01*
X95485837Y-59211767D01*
X95569705Y-59098514D01*
X95738754Y-58872879D01*
X117217428Y-58872879D01*
X117217428Y-59431593D01*
G36*
X174985666Y-33087451D02*
G01*
X177451100Y-33088825D01*
X182135702Y-40102232D01*
X182622158Y-40830512D01*
X183105540Y-41554188D01*
X183582846Y-42268765D01*
X184051073Y-42969745D01*
X184507216Y-43652633D01*
X184948271Y-44312930D01*
X185371236Y-44946141D01*
X185773107Y-45547770D01*
X186150879Y-46113318D01*
X186501550Y-46638291D01*
X186822116Y-47118191D01*
X187109573Y-47548522D01*
X187360917Y-47924786D01*
X187573146Y-48242488D01*
X187743255Y-48497131D01*
X187854883Y-48664225D01*
X187979225Y-48852130D01*
X188146929Y-49108402D01*
X188355297Y-49428833D01*
X188601630Y-49809217D01*
X188883232Y-50245347D01*
X189197403Y-50733016D01*
X189541445Y-51268017D01*
X189912661Y-51846143D01*
X190308352Y-52463188D01*
X190725820Y-53114944D01*
X191162367Y-53797205D01*
X191615296Y-54505763D01*
X192081907Y-55236412D01*
X192559502Y-55984945D01*
X193045385Y-56747156D01*
X193536855Y-57518836D01*
X193919897Y-58120764D01*
X194404719Y-58882890D01*
X194880799Y-59631222D01*
X195345798Y-60362089D01*
X195797379Y-61071818D01*
X196233205Y-61756737D01*
X196650938Y-62413173D01*
X197048240Y-63037455D01*
X197422775Y-63625910D01*
X197772204Y-64174866D01*
X198094189Y-64680650D01*
X198386394Y-65139590D01*
X198646481Y-65548014D01*
X198872112Y-65902249D01*
X199060950Y-66198623D01*
X199210656Y-66433465D01*
X199318894Y-66603100D01*
X199383084Y-66703480D01*
X199523298Y-66922870D01*
X199649789Y-67122216D01*
X199754237Y-67288296D01*
X199828326Y-67407886D01*
X199862983Y-67466340D01*
X199910131Y-67554436D01*
X194962705Y-67554436D01*
X194727852Y-67190385D01*
X194616789Y-67017135D01*
X194476307Y-66796388D01*
X194322523Y-66553551D01*
X194171554Y-66314030D01*
X194134865Y-66255613D01*
X193993593Y-66031229D01*
X193812262Y-65744446D01*
X193593673Y-65399640D01*
X193340624Y-65001188D01*
X193055914Y-64553465D01*
X192742343Y-64060847D01*
X192402709Y-63527711D01*
X192039811Y-62958433D01*
X191656449Y-62357388D01*
X191255421Y-61728952D01*
X190839526Y-61077502D01*
X190411564Y-60407414D01*
X189974333Y-59723063D01*
X189530633Y-59028826D01*
X189083262Y-58329078D01*
X188635019Y-57628196D01*
X188188704Y-56930555D01*
X187747115Y-56240533D01*
X187313052Y-55562503D01*
X186889313Y-54900844D01*
X186478698Y-54259930D01*
X186084006Y-53644138D01*
X185708034Y-53057843D01*
X185353584Y-52505422D01*
X185023453Y-51991251D01*
X184720440Y-51519705D01*
X184521029Y-51209708D01*
X185770330Y-51209708D01*
X185774113Y-51220659D01*
X185784148Y-51240563D01*
X185802183Y-51272049D01*
X185829967Y-51317750D01*
X185869247Y-51380298D01*
X185921771Y-51462324D01*
X185989287Y-51566459D01*
X186073542Y-51695336D01*
X186176285Y-51851586D01*
X186299264Y-52037841D01*
X186444226Y-52256732D01*
X186612920Y-52510891D01*
X186807093Y-52802950D01*
X187028493Y-53135540D01*
X187278868Y-53511293D01*
X187559966Y-53932841D01*
X187873535Y-54402814D01*
X188221323Y-54923846D01*
X188605077Y-55498567D01*
X189026546Y-56129609D01*
X189487478Y-56819603D01*
X189989620Y-57571182D01*
X190534720Y-58386978D01*
X191124527Y-59269620D01*
X191598948Y-59979563D01*
X195741878Y-66179140D01*
X196711662Y-66179140D01*
X197024552Y-66178739D01*
X197261494Y-66177008D01*
X197432494Y-66173158D01*
X197547558Y-66166400D01*
X197616692Y-66155943D01*
X197649902Y-66140998D01*
X197657194Y-66120775D01*
X197652939Y-66104849D01*
X197627435Y-66061738D01*
X197558053Y-65949501D01*
X197446969Y-65771583D01*
X197296363Y-65531436D01*
X197108412Y-65232506D01*
X196885294Y-64878242D01*
X196629186Y-64472092D01*
X196342266Y-64017505D01*
X196026713Y-63517929D01*
X195684703Y-62976813D01*
X195318415Y-62397604D01*
X194930027Y-61783752D01*
X194521716Y-61138704D01*
X194095660Y-60465909D01*
X193654037Y-59768815D01*
X193199024Y-59050871D01*
X192934123Y-58633023D01*
X188243815Y-51235488D01*
X187016324Y-51211549D01*
X186700449Y-51205989D01*
X186413454Y-51202085D01*
X186166312Y-51199896D01*
X185969992Y-51199478D01*
X185835467Y-51200889D01*
X185773707Y-51204185D01*
X185771051Y-51205076D01*
X185770330Y-51209708D01*
X184521029Y-51209708D01*
X184447345Y-51095162D01*
X184206967Y-50721996D01*
X184002104Y-50404584D01*
X183835556Y-50147301D01*
X183710122Y-49954525D01*
X183639807Y-49847499D01*
X183530323Y-49682317D01*
X183376023Y-49449592D01*
X183179615Y-49153405D01*
X182943805Y-48797838D01*
X182671301Y-48386970D01*
X182364810Y-47924883D01*
X182027038Y-47415658D01*
X181660693Y-46863376D01*
X181268483Y-46272118D01*
X180853113Y-45645964D01*
X180417292Y-44988997D01*
X179963726Y-44305297D01*
X179495123Y-43598945D01*
X179014190Y-42874022D01*
X178523633Y-42134609D01*
X178026160Y-41384787D01*
X177709877Y-40908074D01*
X177222076Y-40172847D01*
X176746477Y-39456011D01*
X176285297Y-38760909D01*
X175840754Y-38090880D01*
X175415062Y-37449266D01*
X175010439Y-36839408D01*
X174629102Y-36264646D01*
X174273267Y-35728321D01*
X173945150Y-35233774D01*
X173646969Y-34784346D01*
X173380939Y-34383378D01*
X173275732Y-34224806D01*
X174507107Y-34224806D01*
X174531253Y-34261603D01*
X174602228Y-34365833D01*
X174717838Y-34534327D01*
X174875887Y-34763911D01*
X175074182Y-35051415D01*
X175310526Y-35393667D01*
X175582726Y-35787496D01*
X175888586Y-36229731D01*
X176225912Y-36717200D01*
X176592510Y-37246732D01*
X176986183Y-37815155D01*
X177404738Y-38419299D01*
X177845980Y-39055991D01*
X178307714Y-39722060D01*
X178787745Y-40414336D01*
X179283878Y-41129646D01*
X179793919Y-41864819D01*
X179987295Y-42143503D01*
X185467483Y-50040900D01*
X186122405Y-50064095D01*
X186502075Y-50077287D01*
X186804053Y-50087104D01*
X187036532Y-50093665D01*
X187207702Y-50097089D01*
X187325758Y-50097497D01*
X187398892Y-50095009D01*
X187435296Y-50089743D01*
X187443486Y-50083387D01*
X187420103Y-50046000D01*
X187351379Y-49940196D01*
X187239451Y-49769210D01*
X187086457Y-49536279D01*
X186894532Y-49244639D01*
X186665815Y-48897526D01*
X186402442Y-48498175D01*
X186106550Y-48049824D01*
X185780276Y-47555709D01*
X185425758Y-47019064D01*
X185045132Y-46443128D01*
X184640535Y-45831135D01*
X184214105Y-45186322D01*
X183767978Y-44511926D01*
X183304292Y-43811181D01*
X182825183Y-43087325D01*
X182332789Y-42343594D01*
X182192980Y-42132456D01*
X176942473Y-34203505D01*
X175724790Y-34203505D01*
X175411275Y-34204226D01*
X175127671Y-34206260D01*
X174884788Y-34209421D01*
X174693435Y-34213517D01*
X174564423Y-34218361D01*
X174508560Y-34223762D01*
X174507107Y-34224806D01*
X173275732Y-34224806D01*
X173149277Y-34034210D01*
X172954200Y-33740184D01*
X172797925Y-33504640D01*
X172682667Y-33330920D01*
X172610644Y-33222363D01*
X172584381Y-33182778D01*
X172520233Y-33086077D01*
X174985666Y-33087451D01*
X174985666Y-33087451D01*
G37*
X174985666Y-33087451D02*
X177451100Y-33088825D01*
X182135702Y-40102232D01*
X182622158Y-40830512D01*
X183105540Y-41554188D01*
X183582846Y-42268765D01*
X184051073Y-42969745D01*
X184507216Y-43652633D01*
X184948271Y-44312930D01*
X185371236Y-44946141D01*
X185773107Y-45547770D01*
X186150879Y-46113318D01*
X186501550Y-46638291D01*
X186822116Y-47118191D01*
X187109573Y-47548522D01*
X187360917Y-47924786D01*
X187573146Y-48242488D01*
X187743255Y-48497131D01*
X187854883Y-48664225D01*
X187979225Y-48852130D01*
X188146929Y-49108402D01*
X188355297Y-49428833D01*
X188601630Y-49809217D01*
X188883232Y-50245347D01*
X189197403Y-50733016D01*
X189541445Y-51268017D01*
X189912661Y-51846143D01*
X190308352Y-52463188D01*
X190725820Y-53114944D01*
X191162367Y-53797205D01*
X191615296Y-54505763D01*
X192081907Y-55236412D01*
X192559502Y-55984945D01*
X193045385Y-56747156D01*
X193536855Y-57518836D01*
X193919897Y-58120764D01*
X194404719Y-58882890D01*
X194880799Y-59631222D01*
X195345798Y-60362089D01*
X195797379Y-61071818D01*
X196233205Y-61756737D01*
X196650938Y-62413173D01*
X197048240Y-63037455D01*
X197422775Y-63625910D01*
X197772204Y-64174866D01*
X198094189Y-64680650D01*
X198386394Y-65139590D01*
X198646481Y-65548014D01*
X198872112Y-65902249D01*
X199060950Y-66198623D01*
X199210656Y-66433465D01*
X199318894Y-66603100D01*
X199383084Y-66703480D01*
X199523298Y-66922870D01*
X199649789Y-67122216D01*
X199754237Y-67288296D01*
X199828326Y-67407886D01*
X199862983Y-67466340D01*
X199910131Y-67554436D01*
X194962705Y-67554436D01*
X194727852Y-67190385D01*
X194616789Y-67017135D01*
X194476307Y-66796388D01*
X194322523Y-66553551D01*
X194171554Y-66314030D01*
X194134865Y-66255613D01*
X193993593Y-66031229D01*
X193812262Y-65744446D01*
X193593673Y-65399640D01*
X193340624Y-65001188D01*
X193055914Y-64553465D01*
X192742343Y-64060847D01*
X192402709Y-63527711D01*
X192039811Y-62958433D01*
X191656449Y-62357388D01*
X191255421Y-61728952D01*
X190839526Y-61077502D01*
X190411564Y-60407414D01*
X189974333Y-59723063D01*
X189530633Y-59028826D01*
X189083262Y-58329078D01*
X188635019Y-57628196D01*
X188188704Y-56930555D01*
X187747115Y-56240533D01*
X187313052Y-55562503D01*
X186889313Y-54900844D01*
X186478698Y-54259930D01*
X186084006Y-53644138D01*
X185708034Y-53057843D01*
X185353584Y-52505422D01*
X185023453Y-51991251D01*
X184720440Y-51519705D01*
X184521029Y-51209708D01*
X185770330Y-51209708D01*
X185774113Y-51220659D01*
X185784148Y-51240563D01*
X185802183Y-51272049D01*
X185829967Y-51317750D01*
X185869247Y-51380298D01*
X185921771Y-51462324D01*
X185989287Y-51566459D01*
X186073542Y-51695336D01*
X186176285Y-51851586D01*
X186299264Y-52037841D01*
X186444226Y-52256732D01*
X186612920Y-52510891D01*
X186807093Y-52802950D01*
X187028493Y-53135540D01*
X187278868Y-53511293D01*
X187559966Y-53932841D01*
X187873535Y-54402814D01*
X188221323Y-54923846D01*
X188605077Y-55498567D01*
X189026546Y-56129609D01*
X189487478Y-56819603D01*
X189989620Y-57571182D01*
X190534720Y-58386978D01*
X191124527Y-59269620D01*
X191598948Y-59979563D01*
X195741878Y-66179140D01*
X196711662Y-66179140D01*
X197024552Y-66178739D01*
X197261494Y-66177008D01*
X197432494Y-66173158D01*
X197547558Y-66166400D01*
X197616692Y-66155943D01*
X197649902Y-66140998D01*
X197657194Y-66120775D01*
X197652939Y-66104849D01*
X197627435Y-66061738D01*
X197558053Y-65949501D01*
X197446969Y-65771583D01*
X197296363Y-65531436D01*
X197108412Y-65232506D01*
X196885294Y-64878242D01*
X196629186Y-64472092D01*
X196342266Y-64017505D01*
X196026713Y-63517929D01*
X195684703Y-62976813D01*
X195318415Y-62397604D01*
X194930027Y-61783752D01*
X194521716Y-61138704D01*
X194095660Y-60465909D01*
X193654037Y-59768815D01*
X193199024Y-59050871D01*
X192934123Y-58633023D01*
X188243815Y-51235488D01*
X187016324Y-51211549D01*
X186700449Y-51205989D01*
X186413454Y-51202085D01*
X186166312Y-51199896D01*
X185969992Y-51199478D01*
X185835467Y-51200889D01*
X185773707Y-51204185D01*
X185771051Y-51205076D01*
X185770330Y-51209708D01*
X184521029Y-51209708D01*
X184447345Y-51095162D01*
X184206967Y-50721996D01*
X184002104Y-50404584D01*
X183835556Y-50147301D01*
X183710122Y-49954525D01*
X183639807Y-49847499D01*
X183530323Y-49682317D01*
X183376023Y-49449592D01*
X183179615Y-49153405D01*
X182943805Y-48797838D01*
X182671301Y-48386970D01*
X182364810Y-47924883D01*
X182027038Y-47415658D01*
X181660693Y-46863376D01*
X181268483Y-46272118D01*
X180853113Y-45645964D01*
X180417292Y-44988997D01*
X179963726Y-44305297D01*
X179495123Y-43598945D01*
X179014190Y-42874022D01*
X178523633Y-42134609D01*
X178026160Y-41384787D01*
X177709877Y-40908074D01*
X177222076Y-40172847D01*
X176746477Y-39456011D01*
X176285297Y-38760909D01*
X175840754Y-38090880D01*
X175415062Y-37449266D01*
X175010439Y-36839408D01*
X174629102Y-36264646D01*
X174273267Y-35728321D01*
X173945150Y-35233774D01*
X173646969Y-34784346D01*
X173380939Y-34383378D01*
X173275732Y-34224806D01*
X174507107Y-34224806D01*
X174531253Y-34261603D01*
X174602228Y-34365833D01*
X174717838Y-34534327D01*
X174875887Y-34763911D01*
X175074182Y-35051415D01*
X175310526Y-35393667D01*
X175582726Y-35787496D01*
X175888586Y-36229731D01*
X176225912Y-36717200D01*
X176592510Y-37246732D01*
X176986183Y-37815155D01*
X177404738Y-38419299D01*
X177845980Y-39055991D01*
X178307714Y-39722060D01*
X178787745Y-40414336D01*
X179283878Y-41129646D01*
X179793919Y-41864819D01*
X179987295Y-42143503D01*
X185467483Y-50040900D01*
X186122405Y-50064095D01*
X186502075Y-50077287D01*
X186804053Y-50087104D01*
X187036532Y-50093665D01*
X187207702Y-50097089D01*
X187325758Y-50097497D01*
X187398892Y-50095009D01*
X187435296Y-50089743D01*
X187443486Y-50083387D01*
X187420103Y-50046000D01*
X187351379Y-49940196D01*
X187239451Y-49769210D01*
X187086457Y-49536279D01*
X186894532Y-49244639D01*
X186665815Y-48897526D01*
X186402442Y-48498175D01*
X186106550Y-48049824D01*
X185780276Y-47555709D01*
X185425758Y-47019064D01*
X185045132Y-46443128D01*
X184640535Y-45831135D01*
X184214105Y-45186322D01*
X183767978Y-44511926D01*
X183304292Y-43811181D01*
X182825183Y-43087325D01*
X182332789Y-42343594D01*
X182192980Y-42132456D01*
X176942473Y-34203505D01*
X175724790Y-34203505D01*
X175411275Y-34204226D01*
X175127671Y-34206260D01*
X174884788Y-34209421D01*
X174693435Y-34213517D01*
X174564423Y-34218361D01*
X174508560Y-34223762D01*
X174507107Y-34224806D01*
X173275732Y-34224806D01*
X173149277Y-34034210D01*
X172954200Y-33740184D01*
X172797925Y-33504640D01*
X172682667Y-33330920D01*
X172610644Y-33222363D01*
X172584381Y-33182778D01*
X172520233Y-33086077D01*
X174985666Y-33087451D01*
G36*
X176215482Y-58874132D02*
G01*
X186820305Y-58875385D01*
X187002961Y-59127068D01*
X187092294Y-59253557D01*
X187157377Y-59352190D01*
X187185356Y-59403392D01*
X187185618Y-59405172D01*
X187143245Y-59407515D01*
X187018548Y-59409803D01*
X186815159Y-59412026D01*
X186536709Y-59414176D01*
X186186831Y-59416243D01*
X185769156Y-59418219D01*
X185287317Y-59420095D01*
X184744944Y-59421862D01*
X184145670Y-59423511D01*
X183493126Y-59425033D01*
X182790945Y-59426420D01*
X182042759Y-59427661D01*
X181252199Y-59428749D01*
X180422896Y-59429675D01*
X179558484Y-59430430D01*
X178662593Y-59431004D01*
X177738857Y-59431389D01*
X176790905Y-59431576D01*
X176398139Y-59431593D01*
X165610660Y-59431593D01*
X165610660Y-58872879D01*
X176215482Y-58874132D01*
X176215482Y-58874132D01*
G37*
X176215482Y-58874132D02*
X186820305Y-58875385D01*
X187002961Y-59127068D01*
X187092294Y-59253557D01*
X187157377Y-59352190D01*
X187185356Y-59403392D01*
X187185618Y-59405172D01*
X187143245Y-59407515D01*
X187018548Y-59409803D01*
X186815159Y-59412026D01*
X186536709Y-59414176D01*
X186186831Y-59416243D01*
X185769156Y-59418219D01*
X185287317Y-59420095D01*
X184744944Y-59421862D01*
X184145670Y-59423511D01*
X183493126Y-59425033D01*
X182790945Y-59426420D01*
X182042759Y-59427661D01*
X181252199Y-59428749D01*
X180422896Y-59429675D01*
X179558484Y-59430430D01*
X178662593Y-59431004D01*
X177738857Y-59431389D01*
X176790905Y-59431576D01*
X176398139Y-59431593D01*
X165610660Y-59431593D01*
X165610660Y-58872879D01*
X176215482Y-58874132D01*
G36*
X128496703Y-33342347D02*
G01*
X129216719Y-33342374D01*
X129932922Y-33342415D01*
X130637833Y-33342469D01*
X131323971Y-33342536D01*
X131983854Y-33342617D01*
X132610003Y-33342710D01*
X133194936Y-33342816D01*
X133731174Y-33342934D01*
X134211235Y-33343065D01*
X134627638Y-33343208D01*
X134802403Y-33343281D01*
X136292116Y-33343945D01*
X136295122Y-48225079D01*
X136295441Y-49385473D01*
X136295924Y-50540018D01*
X136296564Y-51684734D01*
X136297353Y-52815643D01*
X136298286Y-53928765D01*
X136299353Y-55020121D01*
X136300549Y-56085731D01*
X136301866Y-57121616D01*
X136303298Y-58123797D01*
X136304836Y-59088295D01*
X136306474Y-60011129D01*
X136308205Y-60888321D01*
X136310022Y-61715892D01*
X136311917Y-62489862D01*
X136313884Y-63206252D01*
X136315915Y-63861082D01*
X136318004Y-64450374D01*
X136320142Y-64970148D01*
X136322323Y-65416424D01*
X136324541Y-65785223D01*
X136326787Y-66072567D01*
X136327083Y-66103928D01*
X136356037Y-69101644D01*
X134726919Y-69101760D01*
X134483952Y-69101985D01*
X134161784Y-69102613D01*
X133767167Y-69103620D01*
X133306854Y-69104980D01*
X132787599Y-69106668D01*
X132216154Y-69108660D01*
X131599273Y-69110930D01*
X130943709Y-69113453D01*
X130256215Y-69116204D01*
X129543544Y-69119158D01*
X128812450Y-69122291D01*
X128069684Y-69125576D01*
X127322001Y-69128989D01*
X127048646Y-69130264D01*
X120999492Y-69158651D01*
X120999445Y-68625156D01*
X120999371Y-68544865D01*
X120999160Y-68381597D01*
X120998817Y-68138335D01*
X120998346Y-67818056D01*
X120997752Y-67423742D01*
X120997039Y-66958373D01*
X120996213Y-66424929D01*
X120995279Y-65826390D01*
X120994240Y-65165736D01*
X120993103Y-64445947D01*
X120991870Y-63670004D01*
X120990548Y-62840886D01*
X120989141Y-61961574D01*
X120987654Y-61035047D01*
X120986092Y-60064286D01*
X120984458Y-59052272D01*
X120982759Y-58001983D01*
X120980999Y-56916401D01*
X120980718Y-56743115D01*
X121472251Y-56743115D01*
X121472251Y-57886790D01*
X121473286Y-58192066D01*
X121476206Y-58468770D01*
X121480727Y-58705372D01*
X121486568Y-58890344D01*
X121493448Y-59012155D01*
X121500903Y-59059117D01*
X121554723Y-59072665D01*
X121671534Y-59082756D01*
X121828386Y-59087590D01*
X121866216Y-59087769D01*
X122202877Y-59087769D01*
X122201044Y-57895130D01*
X122199212Y-56702490D01*
X122196007Y-56698898D01*
X122847547Y-56698898D01*
X122847547Y-59087769D01*
X123578173Y-59087769D01*
X123576890Y-57895130D01*
X123575655Y-56745468D01*
X124477226Y-56745468D01*
X124504921Y-57884385D01*
X124513015Y-58189211D01*
X124521659Y-58465668D01*
X124530386Y-58702155D01*
X124538726Y-58887073D01*
X124546213Y-59008824D01*
X124552178Y-59055536D01*
X124601591Y-59071092D01*
X124714098Y-59082528D01*
X124866861Y-59087674D01*
X124891538Y-59087769D01*
X125211337Y-59087769D01*
X125211337Y-56743115D01*
X125856007Y-56743115D01*
X125856007Y-59087769D01*
X126586633Y-59087769D01*
X126586633Y-57866478D01*
X127533224Y-57866478D01*
X127533958Y-58174529D01*
X127536574Y-58454079D01*
X127540806Y-58693707D01*
X127546392Y-58881992D01*
X127553066Y-59007510D01*
X127560565Y-59058842D01*
X127560801Y-59059117D01*
X127614622Y-59072665D01*
X127731433Y-59082756D01*
X127888284Y-59087590D01*
X127926114Y-59087769D01*
X128262775Y-59087769D01*
X128262775Y-56759177D01*
X128864467Y-56759177D01*
X128864467Y-57894821D01*
X128865510Y-58198993D01*
X128868449Y-58474564D01*
X128872999Y-58709962D01*
X128878876Y-58893612D01*
X128885794Y-59013944D01*
X128893119Y-59059117D01*
X128946626Y-59072287D01*
X129063967Y-59082264D01*
X129223032Y-59087410D01*
X129279921Y-59087769D01*
X129638071Y-59087769D01*
X129638071Y-56745468D01*
X130637144Y-56745468D01*
X130656620Y-57862896D01*
X130662499Y-58166196D01*
X130668979Y-58442350D01*
X130675687Y-58679341D01*
X130682252Y-58865151D01*
X130688300Y-58987764D01*
X130692960Y-59034047D01*
X130739400Y-59064589D01*
X130859265Y-59082202D01*
X131054996Y-59087769D01*
X131400169Y-59087769D01*
X131400169Y-56743115D01*
X132001861Y-56743115D01*
X132001861Y-59087769D01*
X132732487Y-59087769D01*
X132732487Y-57866478D01*
X133679078Y-57866478D01*
X133679813Y-58174529D01*
X133682428Y-58454079D01*
X133686661Y-58693707D01*
X133692246Y-58881992D01*
X133698920Y-59007510D01*
X133706419Y-59058842D01*
X133706655Y-59059117D01*
X133760476Y-59072665D01*
X133877287Y-59082756D01*
X134034139Y-59087590D01*
X134071969Y-59087769D01*
X134408630Y-59087769D01*
X134408630Y-57887967D01*
X135012182Y-57887967D01*
X135012724Y-58193080D01*
X135015200Y-58469617D01*
X135019348Y-58706042D01*
X135024903Y-58890821D01*
X135031602Y-59012417D01*
X135038974Y-59059117D01*
X135092481Y-59072287D01*
X135209821Y-59082264D01*
X135368887Y-59087410D01*
X135425776Y-59087769D01*
X135783926Y-59087769D01*
X135783926Y-56732800D01*
X135601269Y-56514752D01*
X135418613Y-56296704D01*
X135014043Y-56745468D01*
X135012182Y-57887967D01*
X134408630Y-57887967D01*
X134408630Y-56698898D01*
X134220397Y-56514161D01*
X134032164Y-56329425D01*
X133856158Y-56515957D01*
X133680153Y-56702490D01*
X133679078Y-57866478D01*
X132732487Y-57866478D01*
X132732487Y-56677673D01*
X132559335Y-56496680D01*
X132386183Y-56315688D01*
X132194022Y-56529401D01*
X132001861Y-56743115D01*
X131400169Y-56743115D01*
X131400169Y-56732295D01*
X131209668Y-56523992D01*
X131019167Y-56315688D01*
X130828156Y-56530578D01*
X130637144Y-56745468D01*
X129638071Y-56745468D01*
X129638071Y-56726848D01*
X129447956Y-56512789D01*
X129257841Y-56298729D01*
X128864467Y-56759177D01*
X128262775Y-56759177D01*
X128262775Y-56698898D01*
X128074542Y-56514161D01*
X127886309Y-56329425D01*
X127710304Y-56515957D01*
X127534298Y-56702490D01*
X127533224Y-57866478D01*
X126586633Y-57866478D01*
X126586633Y-56692056D01*
X126242341Y-56315688D01*
X126049174Y-56529401D01*
X125856007Y-56743115D01*
X125211337Y-56743115D01*
X125211337Y-56677673D01*
X125039661Y-56496680D01*
X124867985Y-56315688D01*
X124672605Y-56530578D01*
X124477226Y-56745468D01*
X123575655Y-56745468D01*
X123575608Y-56702490D01*
X123239814Y-56315688D01*
X123043680Y-56507293D01*
X122847547Y-56698898D01*
X122196007Y-56698898D01*
X122026646Y-56509089D01*
X121854081Y-56315688D01*
X121663166Y-56529401D01*
X121472251Y-56743115D01*
X120980718Y-56743115D01*
X120979182Y-55798505D01*
X120977313Y-54651275D01*
X120975398Y-53477692D01*
X120973440Y-52280736D01*
X120971445Y-51063387D01*
X120970878Y-50717803D01*
X120966366Y-47968933D01*
X121471549Y-47968933D01*
X121472081Y-48608533D01*
X121473351Y-49256620D01*
X121475370Y-49907237D01*
X121478147Y-50554424D01*
X121481694Y-51192222D01*
X121486021Y-51814672D01*
X121491139Y-52415815D01*
X121497059Y-52989693D01*
X121500768Y-53300157D01*
X121529286Y-55563573D01*
X123578173Y-55563573D01*
X123577229Y-49385485D01*
X123577064Y-48533767D01*
X123576807Y-47763754D01*
X123576404Y-47071195D01*
X123575801Y-46451839D01*
X123574945Y-45901434D01*
X123573781Y-45415730D01*
X123572257Y-44990474D01*
X123570318Y-44621418D01*
X123568403Y-44369222D01*
X124485678Y-44369222D01*
X124487504Y-44770360D01*
X124491379Y-45243424D01*
X124496637Y-45795405D01*
X124496675Y-45799302D01*
X124500534Y-46246024D01*
X124504243Y-46765513D01*
X124507748Y-47344581D01*
X124510993Y-47970037D01*
X124513924Y-48628695D01*
X124516487Y-49307363D01*
X124518626Y-49992855D01*
X124520288Y-50671980D01*
X124521417Y-51331551D01*
X124521934Y-51899698D01*
X124523689Y-55563573D01*
X126580875Y-55563573D01*
X126594498Y-49428463D01*
X126596318Y-48564329D01*
X126597731Y-47782082D01*
X126598194Y-47447603D01*
X127531954Y-47447603D01*
X127532033Y-48196153D01*
X127532136Y-49024732D01*
X127532149Y-49373360D01*
X127532149Y-55563573D01*
X129638071Y-55563573D01*
X129638071Y-43902460D01*
X130634418Y-43902460D01*
X130635831Y-44240828D01*
X130641338Y-44653391D01*
X130642880Y-44750097D01*
X130645979Y-44985198D01*
X130648992Y-45298403D01*
X130651888Y-45681859D01*
X130654634Y-46127716D01*
X130657199Y-46628119D01*
X130659552Y-47175218D01*
X130661661Y-47761159D01*
X130663494Y-48378092D01*
X130665020Y-49018163D01*
X130666208Y-49673521D01*
X130667025Y-50336313D01*
X130667382Y-50846737D01*
X130669543Y-55563573D01*
X132726520Y-55563573D01*
X132741041Y-49377538D01*
X133678003Y-49377538D01*
X133678003Y-55563573D01*
X135783926Y-55563573D01*
X135780656Y-49406974D01*
X135779990Y-48498615D01*
X135778984Y-47673172D01*
X135777613Y-46927607D01*
X135775850Y-46258881D01*
X135773670Y-45663955D01*
X135771045Y-45139790D01*
X135767951Y-44683348D01*
X135764362Y-44291589D01*
X135760250Y-43961474D01*
X135755590Y-43689966D01*
X135750357Y-43474024D01*
X135744524Y-43310610D01*
X135738064Y-43196685D01*
X135730953Y-43129211D01*
X135726704Y-43110659D01*
X135642821Y-42948283D01*
X135511995Y-42769043D01*
X135359003Y-42603457D01*
X135225212Y-42492934D01*
X135132817Y-42439377D01*
X135033891Y-42408349D01*
X134901099Y-42394238D01*
X134730658Y-42391359D01*
X134541660Y-42395985D01*
X134407262Y-42413582D01*
X134296338Y-42450802D01*
X134190416Y-42506831D01*
X133984619Y-42670231D01*
X133813813Y-42888082D01*
X133723383Y-43070516D01*
X133716263Y-43126891D01*
X133709775Y-43257046D01*
X133703914Y-43462037D01*
X133698671Y-43742918D01*
X133694039Y-44100747D01*
X133690011Y-44536578D01*
X133686577Y-45051467D01*
X133683733Y-45646469D01*
X133681468Y-46322640D01*
X133679776Y-47081036D01*
X133678650Y-47922712D01*
X133678081Y-48848724D01*
X133678003Y-49377538D01*
X132741041Y-49377538D01*
X132755424Y-43250375D01*
X132655847Y-43026788D01*
X132554898Y-42854555D01*
X132414642Y-42685121D01*
X132255841Y-42538385D01*
X132099256Y-42434241D01*
X131998196Y-42396529D01*
X131675593Y-42368827D01*
X131381488Y-42418282D01*
X131122566Y-42542963D01*
X130938556Y-42702866D01*
X130856799Y-42796773D01*
X130790340Y-42887298D01*
X130737778Y-42984138D01*
X130697714Y-43096991D01*
X130668746Y-43235552D01*
X130649475Y-43409519D01*
X130638499Y-43628589D01*
X130634418Y-43902460D01*
X129638071Y-43902460D01*
X129638071Y-43245763D01*
X129527257Y-43023388D01*
X129393236Y-42811758D01*
X129222241Y-42625755D01*
X129033827Y-42482408D01*
X128847549Y-42398745D01*
X128797937Y-42388259D01*
X128501450Y-42377536D01*
X128223258Y-42431424D01*
X127980700Y-42544106D01*
X127791114Y-42709767D01*
X127773588Y-42731826D01*
X127740710Y-42773100D01*
X127710949Y-42809326D01*
X127684150Y-42844757D01*
X127660159Y-42883649D01*
X127638821Y-42930254D01*
X127619982Y-42988827D01*
X127603486Y-43063621D01*
X127589179Y-43158891D01*
X127576907Y-43278890D01*
X127566514Y-43427871D01*
X127557846Y-43610090D01*
X127550749Y-43829799D01*
X127545068Y-44091253D01*
X127540648Y-44398705D01*
X127537335Y-44756410D01*
X127534973Y-45168620D01*
X127533409Y-45639591D01*
X127532488Y-46173576D01*
X127532054Y-46774829D01*
X127531954Y-47447603D01*
X126598194Y-47447603D01*
X126598707Y-47077654D01*
X126599215Y-46446977D01*
X126599225Y-45885982D01*
X126598705Y-45390601D01*
X126597625Y-44956766D01*
X126595955Y-44580409D01*
X126593664Y-44257461D01*
X126590722Y-43983855D01*
X126587097Y-43755522D01*
X126582759Y-43568394D01*
X126577677Y-43418402D01*
X126571821Y-43301480D01*
X126565161Y-43213557D01*
X126557664Y-43150567D01*
X126549302Y-43108441D01*
X126546840Y-43099952D01*
X126472572Y-42946718D01*
X126351854Y-42781169D01*
X126204398Y-42623484D01*
X126049915Y-42493841D01*
X125908117Y-42412419D01*
X125861379Y-42398263D01*
X125533765Y-42369101D01*
X125237983Y-42417313D01*
X124978254Y-42541692D01*
X124790715Y-42704498D01*
X124726177Y-42775831D01*
X124670993Y-42842194D01*
X124624498Y-42910576D01*
X124586030Y-42987969D01*
X124554923Y-43081363D01*
X124530513Y-43197748D01*
X124512136Y-43344116D01*
X124499129Y-43527457D01*
X124490826Y-43754761D01*
X124486564Y-44033019D01*
X124485678Y-44369222D01*
X123568403Y-44369222D01*
X123567910Y-44304308D01*
X123564981Y-44034894D01*
X123561475Y-43808926D01*
X123557340Y-43622151D01*
X123552522Y-43470319D01*
X123546966Y-43349178D01*
X123540620Y-43254478D01*
X123533429Y-43181968D01*
X123525340Y-43127396D01*
X123516298Y-43086511D01*
X123506251Y-43055062D01*
X123496927Y-43032675D01*
X123331875Y-42757615D01*
X123122357Y-42554998D01*
X122873778Y-42427263D01*
X122591548Y-42376846D01*
X122281075Y-42406186D01*
X122170234Y-42434705D01*
X121970171Y-42532116D01*
X121781189Y-42690729D01*
X121625915Y-42886570D01*
X121526976Y-43095666D01*
X121518855Y-43124844D01*
X121511360Y-43197793D01*
X121504475Y-43350736D01*
X121498212Y-43577716D01*
X121492581Y-43872773D01*
X121487592Y-44229947D01*
X121483256Y-44643282D01*
X121479584Y-45106816D01*
X121476586Y-45614592D01*
X121474273Y-46160651D01*
X121472656Y-46739033D01*
X121471744Y-47343780D01*
X121471549Y-47968933D01*
X120966366Y-47968933D01*
X120955167Y-41146473D01*
X121386295Y-41146473D01*
X121414885Y-41221540D01*
X121487996Y-41325494D01*
X121545440Y-41389764D01*
X121704585Y-41552744D01*
X123347811Y-41552744D01*
X123527459Y-41398972D01*
X123629054Y-41306025D01*
X123691233Y-41226689D01*
X124448796Y-41226689D01*
X124484692Y-41305250D01*
X124554454Y-41389416D01*
X124575098Y-41411019D01*
X124712462Y-41552744D01*
X126389608Y-41552744D01*
X126552587Y-41393599D01*
X126661457Y-41268927D01*
X126680303Y-41225328D01*
X127449194Y-41225328D01*
X127483501Y-41301422D01*
X127554528Y-41379873D01*
X127598111Y-41419358D01*
X127750030Y-41552744D01*
X129401692Y-41550418D01*
X129562860Y-41400580D01*
X129677350Y-41258789D01*
X129708410Y-41170573D01*
X130583587Y-41170573D01*
X130612469Y-41260755D01*
X130685076Y-41370568D01*
X130720952Y-41411019D01*
X130858317Y-41552744D01*
X132535462Y-41552744D01*
X132698442Y-41393599D01*
X132808131Y-41267532D01*
X132825970Y-41225734D01*
X133594920Y-41225734D01*
X133630762Y-41300508D01*
X133704242Y-41376808D01*
X133753215Y-41418200D01*
X133914383Y-41549862D01*
X135547547Y-41551672D01*
X135730203Y-41382021D01*
X135849440Y-41251774D01*
X135908440Y-41142424D01*
X135912860Y-41112301D01*
X135872852Y-41008555D01*
X135755629Y-40883013D01*
X135730203Y-40861467D01*
X135625494Y-40775425D01*
X135474085Y-40651502D01*
X135295967Y-40506040D01*
X135111133Y-40355383D01*
X135104805Y-40350231D01*
X134662063Y-39989760D01*
X134127055Y-40523484D01*
X133911804Y-40741172D01*
X133755158Y-40910205D01*
X133652925Y-41040619D01*
X133600910Y-41142450D01*
X133594920Y-41225734D01*
X132825970Y-41225734D01*
X132855148Y-41157373D01*
X132859394Y-41103497D01*
X132851947Y-41050576D01*
X132825243Y-40994799D01*
X132770198Y-40926841D01*
X132677732Y-40837373D01*
X132538762Y-40717069D01*
X132344205Y-40556602D01*
X132261069Y-40489038D01*
X132066939Y-40333364D01*
X131894701Y-40198519D01*
X131755791Y-40093196D01*
X131661648Y-40026085D01*
X131624797Y-40005536D01*
X131583580Y-40035412D01*
X131494527Y-40118178D01*
X131368077Y-40243537D01*
X131214670Y-40401193D01*
X131084205Y-40538693D01*
X130865911Y-40777024D01*
X130710635Y-40960115D01*
X130617018Y-41089682D01*
X130583699Y-41167442D01*
X130583587Y-41170573D01*
X129708410Y-41170573D01*
X129727786Y-41115545D01*
X129711502Y-40987862D01*
X129640840Y-40902572D01*
X129579567Y-40855605D01*
X129465617Y-40765092D01*
X129312724Y-40642055D01*
X129134622Y-40497520D01*
X129036320Y-40417293D01*
X128514988Y-39990978D01*
X127980590Y-40524093D01*
X127766098Y-40741023D01*
X127610059Y-40909437D01*
X127508126Y-41039510D01*
X127455954Y-41141415D01*
X127449194Y-41225328D01*
X126680303Y-41225328D01*
X126708330Y-41160493D01*
X126712748Y-41103497D01*
X126704868Y-41050429D01*
X126677523Y-40994288D01*
X126621626Y-40925758D01*
X126528091Y-40835524D01*
X126387831Y-40714270D01*
X126191760Y-40552680D01*
X126113412Y-40489038D01*
X125919096Y-40333350D01*
X125746512Y-40198496D01*
X125607139Y-40093171D01*
X125512453Y-40026068D01*
X125475092Y-40005536D01*
X125433102Y-40035324D01*
X125343229Y-40117809D01*
X125216047Y-40242671D01*
X125062130Y-40399590D01*
X124935596Y-40532016D01*
X124734324Y-40747958D01*
X124589530Y-40914368D01*
X124496692Y-41042276D01*
X124451288Y-41142707D01*
X124448796Y-41226689D01*
X123691233Y-41226689D01*
X123692941Y-41224510D01*
X123714632Y-41144953D01*
X123689638Y-41057881D01*
X123613471Y-40953823D01*
X123481642Y-40823304D01*
X123289665Y-40656852D01*
X123102388Y-40501813D01*
X122907951Y-40343595D01*
X122735987Y-40206223D01*
X122597579Y-40098342D01*
X122503806Y-40028598D01*
X122466260Y-40005536D01*
X122418553Y-40035711D01*
X122325885Y-40117900D01*
X122200094Y-40239598D01*
X122053016Y-40388301D01*
X121896487Y-40551505D01*
X121742343Y-40716703D01*
X121602421Y-40871393D01*
X121488557Y-41003070D01*
X121412587Y-41099228D01*
X121386295Y-41146473D01*
X120955167Y-41146473D01*
X120951262Y-38766498D01*
X133624757Y-38766498D01*
X133726592Y-38752091D01*
X133817478Y-38705023D01*
X133874041Y-38596564D01*
X133968322Y-38416475D01*
X134115167Y-38303611D01*
X134246218Y-38263396D01*
X134359090Y-38252929D01*
X134442559Y-38282442D01*
X134534943Y-38363140D01*
X134620418Y-38440765D01*
X134673015Y-38460457D01*
X134714878Y-38430324D01*
X134715713Y-38429323D01*
X134790101Y-38365508D01*
X134894223Y-38301267D01*
X135068552Y-38253540D01*
X135240225Y-38291027D01*
X135407751Y-38412992D01*
X135569639Y-38618701D01*
X135583687Y-38640984D01*
X135652718Y-38723261D01*
X135718489Y-38759120D01*
X135720449Y-38759174D01*
X135753314Y-38719419D01*
X135774709Y-38611502D01*
X135784668Y-38452442D01*
X135783226Y-38259260D01*
X135770416Y-38048976D01*
X135746272Y-37838609D01*
X135718286Y-37679148D01*
X135639554Y-37382967D01*
X135533554Y-37141851D01*
X135384969Y-36925744D01*
X135266898Y-36793382D01*
X135043381Y-36609252D01*
X134810441Y-36509842D01*
X134573073Y-36495255D01*
X134336271Y-36565593D01*
X134105029Y-36720962D01*
X134053687Y-36768220D01*
X133921825Y-36903976D01*
X133822762Y-37031319D01*
X133751432Y-37166243D01*
X133702766Y-37324742D01*
X133671699Y-37522810D01*
X133653162Y-37776440D01*
X133643031Y-38064443D01*
X133624757Y-38766498D01*
X120951262Y-38766498D01*
X120951249Y-38759174D01*
X121416435Y-38759174D01*
X121526966Y-38759174D01*
X121606794Y-38742684D01*
X121658894Y-38678222D01*
X121689241Y-38598006D01*
X121762298Y-38427349D01*
X121858084Y-38324344D01*
X121994302Y-38270836D01*
X122011683Y-38267348D01*
X122196755Y-38271612D01*
X122357503Y-38358288D01*
X122427555Y-38431124D01*
X122480317Y-38479980D01*
X122502767Y-38468447D01*
X122502767Y-38468441D01*
X122539912Y-38407569D01*
X122630189Y-38338696D01*
X122744558Y-38279043D01*
X122853980Y-38245832D01*
X122881914Y-38243598D01*
X123055515Y-38284516D01*
X123217697Y-38400872D01*
X123344206Y-38566012D01*
X123430406Y-38698666D01*
X123493909Y-38758660D01*
X123537535Y-38743213D01*
X123564103Y-38649544D01*
X123576434Y-38474872D01*
X123578173Y-38335260D01*
X123569848Y-38131803D01*
X124460698Y-38131803D01*
X124468398Y-38361627D01*
X124482385Y-38550225D01*
X124497930Y-38668521D01*
X124519079Y-38732129D01*
X124549879Y-38756669D01*
X124571424Y-38759174D01*
X124639202Y-38722237D01*
X124694533Y-38607015D01*
X124700471Y-38587954D01*
X124774778Y-38416356D01*
X124882313Y-38315793D01*
X125040173Y-38272874D01*
X125107548Y-38269049D01*
X125244258Y-38276056D01*
X125335213Y-38314145D01*
X125406714Y-38383510D01*
X125475935Y-38458006D01*
X125514977Y-38471457D01*
X125547257Y-38430019D01*
X125551796Y-38421638D01*
X125643678Y-38329939D01*
X125786486Y-38270275D01*
X125947617Y-38254383D01*
X125998840Y-38260667D01*
X126142751Y-38317028D01*
X126272592Y-38435639D01*
X126397024Y-38620722D01*
X126466302Y-38710967D01*
X126532665Y-38749599D01*
X126542902Y-38749190D01*
X126585503Y-38699965D01*
X126612178Y-38582176D01*
X126622862Y-38411741D01*
X126617829Y-38217714D01*
X127489171Y-38217714D01*
X127489709Y-38442651D01*
X127492899Y-38595171D01*
X127501101Y-38688812D01*
X127516676Y-38737111D01*
X127541987Y-38753606D01*
X127579393Y-38751837D01*
X127582257Y-38751418D01*
X127671676Y-38696158D01*
X127721936Y-38599107D01*
X127820868Y-38417072D01*
X127973199Y-38302268D01*
X128100364Y-38263396D01*
X128213235Y-38252929D01*
X128296704Y-38282442D01*
X128389089Y-38363140D01*
X128474563Y-38440765D01*
X128527160Y-38460457D01*
X128569024Y-38430324D01*
X128569859Y-38429323D01*
X128644247Y-38365508D01*
X128748368Y-38301267D01*
X128922697Y-38253540D01*
X129094370Y-38291027D01*
X129261896Y-38412992D01*
X129423784Y-38618701D01*
X129437833Y-38640984D01*
X129506863Y-38723261D01*
X129572634Y-38759120D01*
X129574595Y-38759174D01*
X129605986Y-38743207D01*
X129625279Y-38685548D01*
X129634913Y-38571561D01*
X129637331Y-38386612D01*
X129637325Y-38383116D01*
X129615010Y-38016857D01*
X130615551Y-38016857D01*
X130618496Y-38404605D01*
X130624483Y-38579825D01*
X130635468Y-38685917D01*
X130655690Y-38739705D01*
X130689391Y-38758015D01*
X130707855Y-38759174D01*
X130786666Y-38716648D01*
X130853677Y-38598006D01*
X130949891Y-38422424D01*
X131078676Y-38315327D01*
X131237758Y-38264014D01*
X131349673Y-38252985D01*
X131432339Y-38281325D01*
X131526510Y-38363168D01*
X131528027Y-38364684D01*
X131611311Y-38442712D01*
X131658143Y-38463921D01*
X131689996Y-38434998D01*
X131699540Y-38418106D01*
X131790357Y-38328468D01*
X131932614Y-38270315D01*
X132094225Y-38254827D01*
X132148977Y-38261471D01*
X132293665Y-38325658D01*
X132435510Y-38451885D01*
X132551666Y-38618598D01*
X132572760Y-38661309D01*
X132635632Y-38736511D01*
X132696408Y-38759174D01*
X132736154Y-38750027D01*
X132759905Y-38711181D01*
X132771638Y-38625528D01*
X132775331Y-38475962D01*
X132775465Y-38419130D01*
X132760368Y-38110674D01*
X132718510Y-37797112D01*
X132655037Y-37506266D01*
X132575098Y-37265960D01*
X132552974Y-37216688D01*
X132420948Y-36996917D01*
X132253811Y-36799218D01*
X132070245Y-36641594D01*
X131888935Y-36542047D01*
X131835890Y-36525743D01*
X131603092Y-36497348D01*
X131390565Y-36534028D01*
X131186619Y-36640935D01*
X130979562Y-36823224D01*
X130862242Y-36954938D01*
X130771697Y-37087950D01*
X130703660Y-37249325D01*
X130656225Y-37450386D01*
X130627490Y-37702456D01*
X130615551Y-38016857D01*
X129615010Y-38016857D01*
X129611997Y-37967412D01*
X129540698Y-37590929D01*
X129427878Y-37259884D01*
X129277984Y-36980495D01*
X129095466Y-36758979D01*
X128884772Y-36601553D01*
X128650351Y-36514434D01*
X128396652Y-36503840D01*
X128303769Y-36519440D01*
X128190713Y-36555457D01*
X128083823Y-36618788D01*
X127961809Y-36724383D01*
X127849061Y-36838735D01*
X127719164Y-36979767D01*
X127636442Y-37087232D01*
X127586210Y-37187249D01*
X127553784Y-37305933D01*
X127537471Y-37392918D01*
X127518305Y-37548182D01*
X127502739Y-37760336D01*
X127492473Y-38000333D01*
X127489171Y-38217714D01*
X126617829Y-38217714D01*
X126617488Y-38204577D01*
X126595990Y-37976602D01*
X126558300Y-37743732D01*
X126547315Y-37691063D01*
X126460238Y-37371321D01*
X126347742Y-37114281D01*
X126198215Y-36897808D01*
X126051398Y-36745631D01*
X125824168Y-36585722D01*
X125582322Y-36506352D01*
X125335475Y-36508771D01*
X125093242Y-36594229D01*
X125054839Y-36616122D01*
X124924039Y-36719414D01*
X124782677Y-36868080D01*
X124656440Y-37031718D01*
X124571013Y-37179926D01*
X124564008Y-37197092D01*
X124520403Y-37362307D01*
X124487340Y-37589117D01*
X124466783Y-37853593D01*
X124460698Y-38131803D01*
X123569848Y-38131803D01*
X123561339Y-37923885D01*
X123507804Y-37578181D01*
X123413015Y-37284102D01*
X123272420Y-37027602D01*
X123081467Y-36794636D01*
X123077586Y-36790617D01*
X122875699Y-36618623D01*
X122669147Y-36523752D01*
X122437601Y-36498615D01*
X122305677Y-36509944D01*
X122192267Y-36531987D01*
X122097650Y-36572162D01*
X121998476Y-36644894D01*
X121871396Y-36764604D01*
X121836004Y-36800059D01*
X121670352Y-36985555D01*
X121558677Y-37150806D01*
X121522453Y-37233455D01*
X121501893Y-37336438D01*
X121481331Y-37505529D01*
X121462636Y-37720897D01*
X121447681Y-37962713D01*
X121442383Y-38082270D01*
X121416435Y-38759174D01*
X120951249Y-38759174D01*
X120942359Y-33343945D01*
X122464412Y-33342995D01*
X122732635Y-33342861D01*
X123079334Y-33342743D01*
X123497027Y-33342640D01*
X123978235Y-33342552D01*
X124515476Y-33342479D01*
X125101269Y-33342421D01*
X125728135Y-33342378D01*
X126388592Y-33342349D01*
X127075159Y-33342334D01*
X127780357Y-33342334D01*
X128496703Y-33342347D01*
X128496703Y-33342347D01*
G37*
X128496703Y-33342347D02*
X129216719Y-33342374D01*
X129932922Y-33342415D01*
X130637833Y-33342469D01*
X131323971Y-33342536D01*
X131983854Y-33342617D01*
X132610003Y-33342710D01*
X133194936Y-33342816D01*
X133731174Y-33342934D01*
X134211235Y-33343065D01*
X134627638Y-33343208D01*
X134802403Y-33343281D01*
X136292116Y-33343945D01*
X136295122Y-48225079D01*
X136295441Y-49385473D01*
X136295924Y-50540018D01*
X136296564Y-51684734D01*
X136297353Y-52815643D01*
X136298286Y-53928765D01*
X136299353Y-55020121D01*
X136300549Y-56085731D01*
X136301866Y-57121616D01*
X136303298Y-58123797D01*
X136304836Y-59088295D01*
X136306474Y-60011129D01*
X136308205Y-60888321D01*
X136310022Y-61715892D01*
X136311917Y-62489862D01*
X136313884Y-63206252D01*
X136315915Y-63861082D01*
X136318004Y-64450374D01*
X136320142Y-64970148D01*
X136322323Y-65416424D01*
X136324541Y-65785223D01*
X136326787Y-66072567D01*
X136327083Y-66103928D01*
X136356037Y-69101644D01*
X134726919Y-69101760D01*
X134483952Y-69101985D01*
X134161784Y-69102613D01*
X133767167Y-69103620D01*
X133306854Y-69104980D01*
X132787599Y-69106668D01*
X132216154Y-69108660D01*
X131599273Y-69110930D01*
X130943709Y-69113453D01*
X130256215Y-69116204D01*
X129543544Y-69119158D01*
X128812450Y-69122291D01*
X128069684Y-69125576D01*
X127322001Y-69128989D01*
X127048646Y-69130264D01*
X120999492Y-69158651D01*
X120999445Y-68625156D01*
X120999371Y-68544865D01*
X120999160Y-68381597D01*
X120998817Y-68138335D01*
X120998346Y-67818056D01*
X120997752Y-67423742D01*
X120997039Y-66958373D01*
X120996213Y-66424929D01*
X120995279Y-65826390D01*
X120994240Y-65165736D01*
X120993103Y-64445947D01*
X120991870Y-63670004D01*
X120990548Y-62840886D01*
X120989141Y-61961574D01*
X120987654Y-61035047D01*
X120986092Y-60064286D01*
X120984458Y-59052272D01*
X120982759Y-58001983D01*
X120980999Y-56916401D01*
X120980718Y-56743115D01*
X121472251Y-56743115D01*
X121472251Y-57886790D01*
X121473286Y-58192066D01*
X121476206Y-58468770D01*
X121480727Y-58705372D01*
X121486568Y-58890344D01*
X121493448Y-59012155D01*
X121500903Y-59059117D01*
X121554723Y-59072665D01*
X121671534Y-59082756D01*
X121828386Y-59087590D01*
X121866216Y-59087769D01*
X122202877Y-59087769D01*
X122201044Y-57895130D01*
X122199212Y-56702490D01*
X122196007Y-56698898D01*
X122847547Y-56698898D01*
X122847547Y-59087769D01*
X123578173Y-59087769D01*
X123576890Y-57895130D01*
X123575655Y-56745468D01*
X124477226Y-56745468D01*
X124504921Y-57884385D01*
X124513015Y-58189211D01*
X124521659Y-58465668D01*
X124530386Y-58702155D01*
X124538726Y-58887073D01*
X124546213Y-59008824D01*
X124552178Y-59055536D01*
X124601591Y-59071092D01*
X124714098Y-59082528D01*
X124866861Y-59087674D01*
X124891538Y-59087769D01*
X125211337Y-59087769D01*
X125211337Y-56743115D01*
X125856007Y-56743115D01*
X125856007Y-59087769D01*
X126586633Y-59087769D01*
X126586633Y-57866478D01*
X127533224Y-57866478D01*
X127533958Y-58174529D01*
X127536574Y-58454079D01*
X127540806Y-58693707D01*
X127546392Y-58881992D01*
X127553066Y-59007510D01*
X127560565Y-59058842D01*
X127560801Y-59059117D01*
X127614622Y-59072665D01*
X127731433Y-59082756D01*
X127888284Y-59087590D01*
X127926114Y-59087769D01*
X128262775Y-59087769D01*
X128262775Y-56759177D01*
X128864467Y-56759177D01*
X128864467Y-57894821D01*
X128865510Y-58198993D01*
X128868449Y-58474564D01*
X128872999Y-58709962D01*
X128878876Y-58893612D01*
X128885794Y-59013944D01*
X128893119Y-59059117D01*
X128946626Y-59072287D01*
X129063967Y-59082264D01*
X129223032Y-59087410D01*
X129279921Y-59087769D01*
X129638071Y-59087769D01*
X129638071Y-56745468D01*
X130637144Y-56745468D01*
X130656620Y-57862896D01*
X130662499Y-58166196D01*
X130668979Y-58442350D01*
X130675687Y-58679341D01*
X130682252Y-58865151D01*
X130688300Y-58987764D01*
X130692960Y-59034047D01*
X130739400Y-59064589D01*
X130859265Y-59082202D01*
X131054996Y-59087769D01*
X131400169Y-59087769D01*
X131400169Y-56743115D01*
X132001861Y-56743115D01*
X132001861Y-59087769D01*
X132732487Y-59087769D01*
X132732487Y-57866478D01*
X133679078Y-57866478D01*
X133679813Y-58174529D01*
X133682428Y-58454079D01*
X133686661Y-58693707D01*
X133692246Y-58881992D01*
X133698920Y-59007510D01*
X133706419Y-59058842D01*
X133706655Y-59059117D01*
X133760476Y-59072665D01*
X133877287Y-59082756D01*
X134034139Y-59087590D01*
X134071969Y-59087769D01*
X134408630Y-59087769D01*
X134408630Y-57887967D01*
X135012182Y-57887967D01*
X135012724Y-58193080D01*
X135015200Y-58469617D01*
X135019348Y-58706042D01*
X135024903Y-58890821D01*
X135031602Y-59012417D01*
X135038974Y-59059117D01*
X135092481Y-59072287D01*
X135209821Y-59082264D01*
X135368887Y-59087410D01*
X135425776Y-59087769D01*
X135783926Y-59087769D01*
X135783926Y-56732800D01*
X135601269Y-56514752D01*
X135418613Y-56296704D01*
X135014043Y-56745468D01*
X135012182Y-57887967D01*
X134408630Y-57887967D01*
X134408630Y-56698898D01*
X134220397Y-56514161D01*
X134032164Y-56329425D01*
X133856158Y-56515957D01*
X133680153Y-56702490D01*
X133679078Y-57866478D01*
X132732487Y-57866478D01*
X132732487Y-56677673D01*
X132559335Y-56496680D01*
X132386183Y-56315688D01*
X132194022Y-56529401D01*
X132001861Y-56743115D01*
X131400169Y-56743115D01*
X131400169Y-56732295D01*
X131209668Y-56523992D01*
X131019167Y-56315688D01*
X130828156Y-56530578D01*
X130637144Y-56745468D01*
X129638071Y-56745468D01*
X129638071Y-56726848D01*
X129447956Y-56512789D01*
X129257841Y-56298729D01*
X128864467Y-56759177D01*
X128262775Y-56759177D01*
X128262775Y-56698898D01*
X128074542Y-56514161D01*
X127886309Y-56329425D01*
X127710304Y-56515957D01*
X127534298Y-56702490D01*
X127533224Y-57866478D01*
X126586633Y-57866478D01*
X126586633Y-56692056D01*
X126242341Y-56315688D01*
X126049174Y-56529401D01*
X125856007Y-56743115D01*
X125211337Y-56743115D01*
X125211337Y-56677673D01*
X125039661Y-56496680D01*
X124867985Y-56315688D01*
X124672605Y-56530578D01*
X124477226Y-56745468D01*
X123575655Y-56745468D01*
X123575608Y-56702490D01*
X123239814Y-56315688D01*
X123043680Y-56507293D01*
X122847547Y-56698898D01*
X122196007Y-56698898D01*
X122026646Y-56509089D01*
X121854081Y-56315688D01*
X121663166Y-56529401D01*
X121472251Y-56743115D01*
X120980718Y-56743115D01*
X120979182Y-55798505D01*
X120977313Y-54651275D01*
X120975398Y-53477692D01*
X120973440Y-52280736D01*
X120971445Y-51063387D01*
X120970878Y-50717803D01*
X120966366Y-47968933D01*
X121471549Y-47968933D01*
X121472081Y-48608533D01*
X121473351Y-49256620D01*
X121475370Y-49907237D01*
X121478147Y-50554424D01*
X121481694Y-51192222D01*
X121486021Y-51814672D01*
X121491139Y-52415815D01*
X121497059Y-52989693D01*
X121500768Y-53300157D01*
X121529286Y-55563573D01*
X123578173Y-55563573D01*
X123577229Y-49385485D01*
X123577064Y-48533767D01*
X123576807Y-47763754D01*
X123576404Y-47071195D01*
X123575801Y-46451839D01*
X123574945Y-45901434D01*
X123573781Y-45415730D01*
X123572257Y-44990474D01*
X123570318Y-44621418D01*
X123568403Y-44369222D01*
X124485678Y-44369222D01*
X124487504Y-44770360D01*
X124491379Y-45243424D01*
X124496637Y-45795405D01*
X124496675Y-45799302D01*
X124500534Y-46246024D01*
X124504243Y-46765513D01*
X124507748Y-47344581D01*
X124510993Y-47970037D01*
X124513924Y-48628695D01*
X124516487Y-49307363D01*
X124518626Y-49992855D01*
X124520288Y-50671980D01*
X124521417Y-51331551D01*
X124521934Y-51899698D01*
X124523689Y-55563573D01*
X126580875Y-55563573D01*
X126594498Y-49428463D01*
X126596318Y-48564329D01*
X126597731Y-47782082D01*
X126598194Y-47447603D01*
X127531954Y-47447603D01*
X127532033Y-48196153D01*
X127532136Y-49024732D01*
X127532149Y-49373360D01*
X127532149Y-55563573D01*
X129638071Y-55563573D01*
X129638071Y-43902460D01*
X130634418Y-43902460D01*
X130635831Y-44240828D01*
X130641338Y-44653391D01*
X130642880Y-44750097D01*
X130645979Y-44985198D01*
X130648992Y-45298403D01*
X130651888Y-45681859D01*
X130654634Y-46127716D01*
X130657199Y-46628119D01*
X130659552Y-47175218D01*
X130661661Y-47761159D01*
X130663494Y-48378092D01*
X130665020Y-49018163D01*
X130666208Y-49673521D01*
X130667025Y-50336313D01*
X130667382Y-50846737D01*
X130669543Y-55563573D01*
X132726520Y-55563573D01*
X132741041Y-49377538D01*
X133678003Y-49377538D01*
X133678003Y-55563573D01*
X135783926Y-55563573D01*
X135780656Y-49406974D01*
X135779990Y-48498615D01*
X135778984Y-47673172D01*
X135777613Y-46927607D01*
X135775850Y-46258881D01*
X135773670Y-45663955D01*
X135771045Y-45139790D01*
X135767951Y-44683348D01*
X135764362Y-44291589D01*
X135760250Y-43961474D01*
X135755590Y-43689966D01*
X135750357Y-43474024D01*
X135744524Y-43310610D01*
X135738064Y-43196685D01*
X135730953Y-43129211D01*
X135726704Y-43110659D01*
X135642821Y-42948283D01*
X135511995Y-42769043D01*
X135359003Y-42603457D01*
X135225212Y-42492934D01*
X135132817Y-42439377D01*
X135033891Y-42408349D01*
X134901099Y-42394238D01*
X134730658Y-42391359D01*
X134541660Y-42395985D01*
X134407262Y-42413582D01*
X134296338Y-42450802D01*
X134190416Y-42506831D01*
X133984619Y-42670231D01*
X133813813Y-42888082D01*
X133723383Y-43070516D01*
X133716263Y-43126891D01*
X133709775Y-43257046D01*
X133703914Y-43462037D01*
X133698671Y-43742918D01*
X133694039Y-44100747D01*
X133690011Y-44536578D01*
X133686577Y-45051467D01*
X133683733Y-45646469D01*
X133681468Y-46322640D01*
X133679776Y-47081036D01*
X133678650Y-47922712D01*
X133678081Y-48848724D01*
X133678003Y-49377538D01*
X132741041Y-49377538D01*
X132755424Y-43250375D01*
X132655847Y-43026788D01*
X132554898Y-42854555D01*
X132414642Y-42685121D01*
X132255841Y-42538385D01*
X132099256Y-42434241D01*
X131998196Y-42396529D01*
X131675593Y-42368827D01*
X131381488Y-42418282D01*
X131122566Y-42542963D01*
X130938556Y-42702866D01*
X130856799Y-42796773D01*
X130790340Y-42887298D01*
X130737778Y-42984138D01*
X130697714Y-43096991D01*
X130668746Y-43235552D01*
X130649475Y-43409519D01*
X130638499Y-43628589D01*
X130634418Y-43902460D01*
X129638071Y-43902460D01*
X129638071Y-43245763D01*
X129527257Y-43023388D01*
X129393236Y-42811758D01*
X129222241Y-42625755D01*
X129033827Y-42482408D01*
X128847549Y-42398745D01*
X128797937Y-42388259D01*
X128501450Y-42377536D01*
X128223258Y-42431424D01*
X127980700Y-42544106D01*
X127791114Y-42709767D01*
X127773588Y-42731826D01*
X127740710Y-42773100D01*
X127710949Y-42809326D01*
X127684150Y-42844757D01*
X127660159Y-42883649D01*
X127638821Y-42930254D01*
X127619982Y-42988827D01*
X127603486Y-43063621D01*
X127589179Y-43158891D01*
X127576907Y-43278890D01*
X127566514Y-43427871D01*
X127557846Y-43610090D01*
X127550749Y-43829799D01*
X127545068Y-44091253D01*
X127540648Y-44398705D01*
X127537335Y-44756410D01*
X127534973Y-45168620D01*
X127533409Y-45639591D01*
X127532488Y-46173576D01*
X127532054Y-46774829D01*
X127531954Y-47447603D01*
X126598194Y-47447603D01*
X126598707Y-47077654D01*
X126599215Y-46446977D01*
X126599225Y-45885982D01*
X126598705Y-45390601D01*
X126597625Y-44956766D01*
X126595955Y-44580409D01*
X126593664Y-44257461D01*
X126590722Y-43983855D01*
X126587097Y-43755522D01*
X126582759Y-43568394D01*
X126577677Y-43418402D01*
X126571821Y-43301480D01*
X126565161Y-43213557D01*
X126557664Y-43150567D01*
X126549302Y-43108441D01*
X126546840Y-43099952D01*
X126472572Y-42946718D01*
X126351854Y-42781169D01*
X126204398Y-42623484D01*
X126049915Y-42493841D01*
X125908117Y-42412419D01*
X125861379Y-42398263D01*
X125533765Y-42369101D01*
X125237983Y-42417313D01*
X124978254Y-42541692D01*
X124790715Y-42704498D01*
X124726177Y-42775831D01*
X124670993Y-42842194D01*
X124624498Y-42910576D01*
X124586030Y-42987969D01*
X124554923Y-43081363D01*
X124530513Y-43197748D01*
X124512136Y-43344116D01*
X124499129Y-43527457D01*
X124490826Y-43754761D01*
X124486564Y-44033019D01*
X124485678Y-44369222D01*
X123568403Y-44369222D01*
X123567910Y-44304308D01*
X123564981Y-44034894D01*
X123561475Y-43808926D01*
X123557340Y-43622151D01*
X123552522Y-43470319D01*
X123546966Y-43349178D01*
X123540620Y-43254478D01*
X123533429Y-43181968D01*
X123525340Y-43127396D01*
X123516298Y-43086511D01*
X123506251Y-43055062D01*
X123496927Y-43032675D01*
X123331875Y-42757615D01*
X123122357Y-42554998D01*
X122873778Y-42427263D01*
X122591548Y-42376846D01*
X122281075Y-42406186D01*
X122170234Y-42434705D01*
X121970171Y-42532116D01*
X121781189Y-42690729D01*
X121625915Y-42886570D01*
X121526976Y-43095666D01*
X121518855Y-43124844D01*
X121511360Y-43197793D01*
X121504475Y-43350736D01*
X121498212Y-43577716D01*
X121492581Y-43872773D01*
X121487592Y-44229947D01*
X121483256Y-44643282D01*
X121479584Y-45106816D01*
X121476586Y-45614592D01*
X121474273Y-46160651D01*
X121472656Y-46739033D01*
X121471744Y-47343780D01*
X121471549Y-47968933D01*
X120966366Y-47968933D01*
X120955167Y-41146473D01*
X121386295Y-41146473D01*
X121414885Y-41221540D01*
X121487996Y-41325494D01*
X121545440Y-41389764D01*
X121704585Y-41552744D01*
X123347811Y-41552744D01*
X123527459Y-41398972D01*
X123629054Y-41306025D01*
X123691233Y-41226689D01*
X124448796Y-41226689D01*
X124484692Y-41305250D01*
X124554454Y-41389416D01*
X124575098Y-41411019D01*
X124712462Y-41552744D01*
X126389608Y-41552744D01*
X126552587Y-41393599D01*
X126661457Y-41268927D01*
X126680303Y-41225328D01*
X127449194Y-41225328D01*
X127483501Y-41301422D01*
X127554528Y-41379873D01*
X127598111Y-41419358D01*
X127750030Y-41552744D01*
X129401692Y-41550418D01*
X129562860Y-41400580D01*
X129677350Y-41258789D01*
X129708410Y-41170573D01*
X130583587Y-41170573D01*
X130612469Y-41260755D01*
X130685076Y-41370568D01*
X130720952Y-41411019D01*
X130858317Y-41552744D01*
X132535462Y-41552744D01*
X132698442Y-41393599D01*
X132808131Y-41267532D01*
X132825970Y-41225734D01*
X133594920Y-41225734D01*
X133630762Y-41300508D01*
X133704242Y-41376808D01*
X133753215Y-41418200D01*
X133914383Y-41549862D01*
X135547547Y-41551672D01*
X135730203Y-41382021D01*
X135849440Y-41251774D01*
X135908440Y-41142424D01*
X135912860Y-41112301D01*
X135872852Y-41008555D01*
X135755629Y-40883013D01*
X135730203Y-40861467D01*
X135625494Y-40775425D01*
X135474085Y-40651502D01*
X135295967Y-40506040D01*
X135111133Y-40355383D01*
X135104805Y-40350231D01*
X134662063Y-39989760D01*
X134127055Y-40523484D01*
X133911804Y-40741172D01*
X133755158Y-40910205D01*
X133652925Y-41040619D01*
X133600910Y-41142450D01*
X133594920Y-41225734D01*
X132825970Y-41225734D01*
X132855148Y-41157373D01*
X132859394Y-41103497D01*
X132851947Y-41050576D01*
X132825243Y-40994799D01*
X132770198Y-40926841D01*
X132677732Y-40837373D01*
X132538762Y-40717069D01*
X132344205Y-40556602D01*
X132261069Y-40489038D01*
X132066939Y-40333364D01*
X131894701Y-40198519D01*
X131755791Y-40093196D01*
X131661648Y-40026085D01*
X131624797Y-40005536D01*
X131583580Y-40035412D01*
X131494527Y-40118178D01*
X131368077Y-40243537D01*
X131214670Y-40401193D01*
X131084205Y-40538693D01*
X130865911Y-40777024D01*
X130710635Y-40960115D01*
X130617018Y-41089682D01*
X130583699Y-41167442D01*
X130583587Y-41170573D01*
X129708410Y-41170573D01*
X129727786Y-41115545D01*
X129711502Y-40987862D01*
X129640840Y-40902572D01*
X129579567Y-40855605D01*
X129465617Y-40765092D01*
X129312724Y-40642055D01*
X129134622Y-40497520D01*
X129036320Y-40417293D01*
X128514988Y-39990978D01*
X127980590Y-40524093D01*
X127766098Y-40741023D01*
X127610059Y-40909437D01*
X127508126Y-41039510D01*
X127455954Y-41141415D01*
X127449194Y-41225328D01*
X126680303Y-41225328D01*
X126708330Y-41160493D01*
X126712748Y-41103497D01*
X126704868Y-41050429D01*
X126677523Y-40994288D01*
X126621626Y-40925758D01*
X126528091Y-40835524D01*
X126387831Y-40714270D01*
X126191760Y-40552680D01*
X126113412Y-40489038D01*
X125919096Y-40333350D01*
X125746512Y-40198496D01*
X125607139Y-40093171D01*
X125512453Y-40026068D01*
X125475092Y-40005536D01*
X125433102Y-40035324D01*
X125343229Y-40117809D01*
X125216047Y-40242671D01*
X125062130Y-40399590D01*
X124935596Y-40532016D01*
X124734324Y-40747958D01*
X124589530Y-40914368D01*
X124496692Y-41042276D01*
X124451288Y-41142707D01*
X124448796Y-41226689D01*
X123691233Y-41226689D01*
X123692941Y-41224510D01*
X123714632Y-41144953D01*
X123689638Y-41057881D01*
X123613471Y-40953823D01*
X123481642Y-40823304D01*
X123289665Y-40656852D01*
X123102388Y-40501813D01*
X122907951Y-40343595D01*
X122735987Y-40206223D01*
X122597579Y-40098342D01*
X122503806Y-40028598D01*
X122466260Y-40005536D01*
X122418553Y-40035711D01*
X122325885Y-40117900D01*
X122200094Y-40239598D01*
X122053016Y-40388301D01*
X121896487Y-40551505D01*
X121742343Y-40716703D01*
X121602421Y-40871393D01*
X121488557Y-41003070D01*
X121412587Y-41099228D01*
X121386295Y-41146473D01*
X120955167Y-41146473D01*
X120951262Y-38766498D01*
X133624757Y-38766498D01*
X133726592Y-38752091D01*
X133817478Y-38705023D01*
X133874041Y-38596564D01*
X133968322Y-38416475D01*
X134115167Y-38303611D01*
X134246218Y-38263396D01*
X134359090Y-38252929D01*
X134442559Y-38282442D01*
X134534943Y-38363140D01*
X134620418Y-38440765D01*
X134673015Y-38460457D01*
X134714878Y-38430324D01*
X134715713Y-38429323D01*
X134790101Y-38365508D01*
X134894223Y-38301267D01*
X135068552Y-38253540D01*
X135240225Y-38291027D01*
X135407751Y-38412992D01*
X135569639Y-38618701D01*
X135583687Y-38640984D01*
X135652718Y-38723261D01*
X135718489Y-38759120D01*
X135720449Y-38759174D01*
X135753314Y-38719419D01*
X135774709Y-38611502D01*
X135784668Y-38452442D01*
X135783226Y-38259260D01*
X135770416Y-38048976D01*
X135746272Y-37838609D01*
X135718286Y-37679148D01*
X135639554Y-37382967D01*
X135533554Y-37141851D01*
X135384969Y-36925744D01*
X135266898Y-36793382D01*
X135043381Y-36609252D01*
X134810441Y-36509842D01*
X134573073Y-36495255D01*
X134336271Y-36565593D01*
X134105029Y-36720962D01*
X134053687Y-36768220D01*
X133921825Y-36903976D01*
X133822762Y-37031319D01*
X133751432Y-37166243D01*
X133702766Y-37324742D01*
X133671699Y-37522810D01*
X133653162Y-37776440D01*
X133643031Y-38064443D01*
X133624757Y-38766498D01*
X120951262Y-38766498D01*
X120951249Y-38759174D01*
X121416435Y-38759174D01*
X121526966Y-38759174D01*
X121606794Y-38742684D01*
X121658894Y-38678222D01*
X121689241Y-38598006D01*
X121762298Y-38427349D01*
X121858084Y-38324344D01*
X121994302Y-38270836D01*
X122011683Y-38267348D01*
X122196755Y-38271612D01*
X122357503Y-38358288D01*
X122427555Y-38431124D01*
X122480317Y-38479980D01*
X122502767Y-38468447D01*
X122502767Y-38468441D01*
X122539912Y-38407569D01*
X122630189Y-38338696D01*
X122744558Y-38279043D01*
X122853980Y-38245832D01*
X122881914Y-38243598D01*
X123055515Y-38284516D01*
X123217697Y-38400872D01*
X123344206Y-38566012D01*
X123430406Y-38698666D01*
X123493909Y-38758660D01*
X123537535Y-38743213D01*
X123564103Y-38649544D01*
X123576434Y-38474872D01*
X123578173Y-38335260D01*
X123569848Y-38131803D01*
X124460698Y-38131803D01*
X124468398Y-38361627D01*
X124482385Y-38550225D01*
X124497930Y-38668521D01*
X124519079Y-38732129D01*
X124549879Y-38756669D01*
X124571424Y-38759174D01*
X124639202Y-38722237D01*
X124694533Y-38607015D01*
X124700471Y-38587954D01*
X124774778Y-38416356D01*
X124882313Y-38315793D01*
X125040173Y-38272874D01*
X125107548Y-38269049D01*
X125244258Y-38276056D01*
X125335213Y-38314145D01*
X125406714Y-38383510D01*
X125475935Y-38458006D01*
X125514977Y-38471457D01*
X125547257Y-38430019D01*
X125551796Y-38421638D01*
X125643678Y-38329939D01*
X125786486Y-38270275D01*
X125947617Y-38254383D01*
X125998840Y-38260667D01*
X126142751Y-38317028D01*
X126272592Y-38435639D01*
X126397024Y-38620722D01*
X126466302Y-38710967D01*
X126532665Y-38749599D01*
X126542902Y-38749190D01*
X126585503Y-38699965D01*
X126612178Y-38582176D01*
X126622862Y-38411741D01*
X126617829Y-38217714D01*
X127489171Y-38217714D01*
X127489709Y-38442651D01*
X127492899Y-38595171D01*
X127501101Y-38688812D01*
X127516676Y-38737111D01*
X127541987Y-38753606D01*
X127579393Y-38751837D01*
X127582257Y-38751418D01*
X127671676Y-38696158D01*
X127721936Y-38599107D01*
X127820868Y-38417072D01*
X127973199Y-38302268D01*
X128100364Y-38263396D01*
X128213235Y-38252929D01*
X128296704Y-38282442D01*
X128389089Y-38363140D01*
X128474563Y-38440765D01*
X128527160Y-38460457D01*
X128569024Y-38430324D01*
X128569859Y-38429323D01*
X128644247Y-38365508D01*
X128748368Y-38301267D01*
X128922697Y-38253540D01*
X129094370Y-38291027D01*
X129261896Y-38412992D01*
X129423784Y-38618701D01*
X129437833Y-38640984D01*
X129506863Y-38723261D01*
X129572634Y-38759120D01*
X129574595Y-38759174D01*
X129605986Y-38743207D01*
X129625279Y-38685548D01*
X129634913Y-38571561D01*
X129637331Y-38386612D01*
X129637325Y-38383116D01*
X129615010Y-38016857D01*
X130615551Y-38016857D01*
X130618496Y-38404605D01*
X130624483Y-38579825D01*
X130635468Y-38685917D01*
X130655690Y-38739705D01*
X130689391Y-38758015D01*
X130707855Y-38759174D01*
X130786666Y-38716648D01*
X130853677Y-38598006D01*
X130949891Y-38422424D01*
X131078676Y-38315327D01*
X131237758Y-38264014D01*
X131349673Y-38252985D01*
X131432339Y-38281325D01*
X131526510Y-38363168D01*
X131528027Y-38364684D01*
X131611311Y-38442712D01*
X131658143Y-38463921D01*
X131689996Y-38434998D01*
X131699540Y-38418106D01*
X131790357Y-38328468D01*
X131932614Y-38270315D01*
X132094225Y-38254827D01*
X132148977Y-38261471D01*
X132293665Y-38325658D01*
X132435510Y-38451885D01*
X132551666Y-38618598D01*
X132572760Y-38661309D01*
X132635632Y-38736511D01*
X132696408Y-38759174D01*
X132736154Y-38750027D01*
X132759905Y-38711181D01*
X132771638Y-38625528D01*
X132775331Y-38475962D01*
X132775465Y-38419130D01*
X132760368Y-38110674D01*
X132718510Y-37797112D01*
X132655037Y-37506266D01*
X132575098Y-37265960D01*
X132552974Y-37216688D01*
X132420948Y-36996917D01*
X132253811Y-36799218D01*
X132070245Y-36641594D01*
X131888935Y-36542047D01*
X131835890Y-36525743D01*
X131603092Y-36497348D01*
X131390565Y-36534028D01*
X131186619Y-36640935D01*
X130979562Y-36823224D01*
X130862242Y-36954938D01*
X130771697Y-37087950D01*
X130703660Y-37249325D01*
X130656225Y-37450386D01*
X130627490Y-37702456D01*
X130615551Y-38016857D01*
X129615010Y-38016857D01*
X129611997Y-37967412D01*
X129540698Y-37590929D01*
X129427878Y-37259884D01*
X129277984Y-36980495D01*
X129095466Y-36758979D01*
X128884772Y-36601553D01*
X128650351Y-36514434D01*
X128396652Y-36503840D01*
X128303769Y-36519440D01*
X128190713Y-36555457D01*
X128083823Y-36618788D01*
X127961809Y-36724383D01*
X127849061Y-36838735D01*
X127719164Y-36979767D01*
X127636442Y-37087232D01*
X127586210Y-37187249D01*
X127553784Y-37305933D01*
X127537471Y-37392918D01*
X127518305Y-37548182D01*
X127502739Y-37760336D01*
X127492473Y-38000333D01*
X127489171Y-38217714D01*
X126617829Y-38217714D01*
X126617488Y-38204577D01*
X126595990Y-37976602D01*
X126558300Y-37743732D01*
X126547315Y-37691063D01*
X126460238Y-37371321D01*
X126347742Y-37114281D01*
X126198215Y-36897808D01*
X126051398Y-36745631D01*
X125824168Y-36585722D01*
X125582322Y-36506352D01*
X125335475Y-36508771D01*
X125093242Y-36594229D01*
X125054839Y-36616122D01*
X124924039Y-36719414D01*
X124782677Y-36868080D01*
X124656440Y-37031718D01*
X124571013Y-37179926D01*
X124564008Y-37197092D01*
X124520403Y-37362307D01*
X124487340Y-37589117D01*
X124466783Y-37853593D01*
X124460698Y-38131803D01*
X123569848Y-38131803D01*
X123561339Y-37923885D01*
X123507804Y-37578181D01*
X123413015Y-37284102D01*
X123272420Y-37027602D01*
X123081467Y-36794636D01*
X123077586Y-36790617D01*
X122875699Y-36618623D01*
X122669147Y-36523752D01*
X122437601Y-36498615D01*
X122305677Y-36509944D01*
X122192267Y-36531987D01*
X122097650Y-36572162D01*
X121998476Y-36644894D01*
X121871396Y-36764604D01*
X121836004Y-36800059D01*
X121670352Y-36985555D01*
X121558677Y-37150806D01*
X121522453Y-37233455D01*
X121501893Y-37336438D01*
X121481331Y-37505529D01*
X121462636Y-37720897D01*
X121447681Y-37962713D01*
X121442383Y-38082270D01*
X121416435Y-38759174D01*
X120951249Y-38759174D01*
X120942359Y-33343945D01*
X122464412Y-33342995D01*
X122732635Y-33342861D01*
X123079334Y-33342743D01*
X123497027Y-33342640D01*
X123978235Y-33342552D01*
X124515476Y-33342479D01*
X125101269Y-33342421D01*
X125728135Y-33342378D01*
X126388592Y-33342349D01*
X127075159Y-33342334D01*
X127780357Y-33342334D01*
X128496703Y-33342347D01*
G36*
X116271912Y-60806889D02*
G01*
X94394081Y-60806889D01*
X94804399Y-60251707D01*
X105538156Y-60249941D01*
X116271912Y-60248175D01*
X116271912Y-60806889D01*
X116271912Y-60806889D01*
G37*
X116271912Y-60806889D02*
X94394081Y-60806889D01*
X94804399Y-60251707D01*
X105538156Y-60249941D01*
X116271912Y-60248175D01*
X116271912Y-60806889D01*
G36*
X118119966Y-58185231D02*
G01*
X107179528Y-58185231D01*
X105995490Y-58185158D01*
X104894749Y-58184930D01*
X103874648Y-58184534D01*
X102932528Y-58183957D01*
X102065732Y-58183186D01*
X101271601Y-58182208D01*
X100547477Y-58181009D01*
X99890701Y-58179577D01*
X99298616Y-58177898D01*
X98768563Y-58175960D01*
X98297885Y-58173748D01*
X97883923Y-58171252D01*
X97524019Y-58168456D01*
X97215514Y-58165348D01*
X96955752Y-58161915D01*
X96742072Y-58158144D01*
X96571819Y-58154022D01*
X96442332Y-58149536D01*
X96350954Y-58144672D01*
X96295027Y-58139417D01*
X96271893Y-58133759D01*
X96271142Y-58131509D01*
X96312442Y-58070710D01*
X96388375Y-57965405D01*
X96472243Y-57852152D01*
X96641292Y-57626517D01*
X118119966Y-57626517D01*
X118119966Y-58185231D01*
X118119966Y-58185231D01*
G37*
X118119966Y-58185231D02*
X107179528Y-58185231D01*
X105995490Y-58185158D01*
X104894749Y-58184930D01*
X103874648Y-58184534D01*
X102932528Y-58183957D01*
X102065732Y-58183186D01*
X101271601Y-58182208D01*
X100547477Y-58181009D01*
X99890701Y-58179577D01*
X99298616Y-58177898D01*
X98768563Y-58175960D01*
X98297885Y-58173748D01*
X97883923Y-58171252D01*
X97524019Y-58168456D01*
X97215514Y-58165348D01*
X96955752Y-58161915D01*
X96742072Y-58158144D01*
X96571819Y-58154022D01*
X96442332Y-58149536D01*
X96350954Y-58144672D01*
X96295027Y-58139417D01*
X96271893Y-58133759D01*
X96271142Y-58131509D01*
X96312442Y-58070710D01*
X96388375Y-57965405D01*
X96472243Y-57852152D01*
X96641292Y-57626517D01*
X118119966Y-57626517D01*
X118119966Y-58185231D01*
G36*
X186216101Y-57924099D02*
G01*
X186310468Y-58049818D01*
X186379929Y-58148227D01*
X186411383Y-58200647D01*
X186412014Y-58203456D01*
X186369641Y-58205651D01*
X186244944Y-58207795D01*
X186041555Y-58209877D01*
X185763105Y-58211891D01*
X185413227Y-58213828D01*
X184995552Y-58215680D01*
X184513713Y-58217437D01*
X183971340Y-58219092D01*
X183372066Y-58220637D01*
X182719522Y-58222063D01*
X182017341Y-58223362D01*
X181269155Y-58224525D01*
X180478595Y-58225545D01*
X179649292Y-58226412D01*
X178784880Y-58227119D01*
X177888989Y-58227657D01*
X176965252Y-58228018D01*
X176017301Y-58228193D01*
X175624535Y-58228209D01*
X164837056Y-58228209D01*
X164837056Y-57669495D01*
X186020188Y-57669495D01*
X186216101Y-57924099D01*
X186216101Y-57924099D01*
G37*
X186216101Y-57924099D02*
X186310468Y-58049818D01*
X186379929Y-58148227D01*
X186411383Y-58200647D01*
X186412014Y-58203456D01*
X186369641Y-58205651D01*
X186244944Y-58207795D01*
X186041555Y-58209877D01*
X185763105Y-58211891D01*
X185413227Y-58213828D01*
X184995552Y-58215680D01*
X184513713Y-58217437D01*
X183971340Y-58219092D01*
X183372066Y-58220637D01*
X182719522Y-58222063D01*
X182017341Y-58223362D01*
X181269155Y-58224525D01*
X180478595Y-58225545D01*
X179649292Y-58226412D01*
X178784880Y-58227119D01*
X177888989Y-58227657D01*
X176965252Y-58228018D01*
X176017301Y-58228193D01*
X175624535Y-58228209D01*
X164837056Y-58228209D01*
X164837056Y-57669495D01*
X186020188Y-57669495D01*
X186216101Y-57924099D01*
G36*
X118979526Y-56895891D02*
G01*
X97101695Y-56895891D01*
X97306854Y-56618300D01*
X97512014Y-56340709D01*
X118979526Y-56337177D01*
X118979526Y-56895891D01*
X118979526Y-56895891D01*
G37*
X118979526Y-56895891D02*
X97101695Y-56895891D01*
X97306854Y-56618300D01*
X97512014Y-56340709D01*
X118979526Y-56337177D01*
X118979526Y-56895891D01*
G36*
X173956684Y-55230408D02*
G01*
X184537565Y-55241238D01*
X184720932Y-55477617D01*
X184812580Y-55599779D01*
X184878895Y-55695821D01*
X184905975Y-55745570D01*
X184906042Y-55746230D01*
X184863826Y-55749091D01*
X184739289Y-55751885D01*
X184536065Y-55754600D01*
X184257789Y-55757224D01*
X183908096Y-55759748D01*
X183490620Y-55762161D01*
X183008997Y-55764451D01*
X182466860Y-55766608D01*
X181867845Y-55768620D01*
X181215587Y-55770477D01*
X180513719Y-55772168D01*
X179765876Y-55773683D01*
X178975694Y-55775009D01*
X178146807Y-55776137D01*
X177282849Y-55777055D01*
X176387456Y-55777753D01*
X175464262Y-55778219D01*
X174516902Y-55778444D01*
X174141794Y-55778463D01*
X163375804Y-55778463D01*
X163375804Y-55219577D01*
X173956684Y-55230408D01*
X173956684Y-55230408D01*
G37*
X173956684Y-55230408D02*
X184537565Y-55241238D01*
X184720932Y-55477617D01*
X184812580Y-55599779D01*
X184878895Y-55695821D01*
X184905975Y-55745570D01*
X184906042Y-55746230D01*
X184863826Y-55749091D01*
X184739289Y-55751885D01*
X184536065Y-55754600D01*
X184257789Y-55757224D01*
X183908096Y-55759748D01*
X183490620Y-55762161D01*
X183008997Y-55764451D01*
X182466860Y-55766608D01*
X181867845Y-55768620D01*
X181215587Y-55770477D01*
X180513719Y-55772168D01*
X179765876Y-55773683D01*
X178975694Y-55775009D01*
X178146807Y-55776137D01*
X177282849Y-55777055D01*
X176387456Y-55777753D01*
X175464262Y-55778219D01*
X174516902Y-55778444D01*
X174141794Y-55778463D01*
X163375804Y-55778463D01*
X163375804Y-55219577D01*
X173956684Y-55230408D01*
G36*
X119839086Y-55692507D02*
G01*
X108901185Y-55692507D01*
X107937677Y-55692411D01*
X106996877Y-55692129D01*
X106082392Y-55691668D01*
X105197829Y-55691038D01*
X104346795Y-55690246D01*
X103532895Y-55689299D01*
X102759738Y-55688208D01*
X102030930Y-55686979D01*
X101350077Y-55685621D01*
X100720787Y-55684141D01*
X100146666Y-55682549D01*
X99631321Y-55680852D01*
X99178358Y-55679058D01*
X98791386Y-55677177D01*
X98474010Y-55675214D01*
X98229837Y-55673180D01*
X98062474Y-55671082D01*
X97975527Y-55668928D01*
X97963283Y-55667754D01*
X97987668Y-55624140D01*
X98052092Y-55531640D01*
X98143454Y-55408933D01*
X98159196Y-55388397D01*
X98355109Y-55133793D01*
X119839086Y-55133793D01*
X119839086Y-55692507D01*
X119839086Y-55692507D01*
G37*
X119839086Y-55692507D02*
X108901185Y-55692507D01*
X107937677Y-55692411D01*
X106996877Y-55692129D01*
X106082392Y-55691668D01*
X105197829Y-55691038D01*
X104346795Y-55690246D01*
X103532895Y-55689299D01*
X102759738Y-55688208D01*
X102030930Y-55686979D01*
X101350077Y-55685621D01*
X100720787Y-55684141D01*
X100146666Y-55682549D01*
X99631321Y-55680852D01*
X99178358Y-55679058D01*
X98791386Y-55677177D01*
X98474010Y-55675214D01*
X98229837Y-55673180D01*
X98062474Y-55671082D01*
X97975527Y-55668928D01*
X97963283Y-55667754D01*
X97987668Y-55624140D01*
X98052092Y-55531640D01*
X98143454Y-55408933D01*
X98159196Y-55388397D01*
X98355109Y-55133793D01*
X119839086Y-55133793D01*
X119839086Y-55692507D01*
G36*
X185410329Y-56605790D02*
G01*
X185502681Y-56730651D01*
X185575985Y-56832657D01*
X185611430Y-56885147D01*
X185600035Y-56891000D01*
X185556829Y-56896439D01*
X185479135Y-56901477D01*
X185364277Y-56906128D01*
X185209579Y-56910405D01*
X185012365Y-56914321D01*
X184769957Y-56917890D01*
X184479680Y-56921125D01*
X184138857Y-56924039D01*
X183744812Y-56926646D01*
X183294869Y-56928959D01*
X182786350Y-56930991D01*
X182216581Y-56932757D01*
X181582884Y-56934268D01*
X180882583Y-56935539D01*
X180113002Y-56936583D01*
X179271464Y-56937414D01*
X178355294Y-56938044D01*
X177361814Y-56938487D01*
X176288348Y-56938756D01*
X175132220Y-56938865D01*
X174853467Y-56938869D01*
X164063452Y-56938869D01*
X164063452Y-56380155D01*
X185241280Y-56380155D01*
X185410329Y-56605790D01*
X185410329Y-56605790D01*
G37*
X185410329Y-56605790D02*
X185502681Y-56730651D01*
X185575985Y-56832657D01*
X185611430Y-56885147D01*
X185600035Y-56891000D01*
X185556829Y-56896439D01*
X185479135Y-56901477D01*
X185364277Y-56906128D01*
X185209579Y-56910405D01*
X185012365Y-56914321D01*
X184769957Y-56917890D01*
X184479680Y-56921125D01*
X184138857Y-56924039D01*
X183744812Y-56926646D01*
X183294869Y-56928959D01*
X182786350Y-56930991D01*
X182216581Y-56932757D01*
X181582884Y-56934268D01*
X180882583Y-56935539D01*
X180113002Y-56936583D01*
X179271464Y-56937414D01*
X178355294Y-56938044D01*
X177361814Y-56938487D01*
X176288348Y-56938756D01*
X175132220Y-56938865D01*
X174853467Y-56938869D01*
X164063452Y-56938869D01*
X164063452Y-56380155D01*
X185241280Y-56380155D01*
X185410329Y-56605790D01*
G36*
X108175597Y-32914604D02*
G01*
X108598169Y-32915868D01*
X108986375Y-32917875D01*
X109332583Y-32920547D01*
X109629162Y-32923801D01*
X109868478Y-32927559D01*
X110042901Y-32931740D01*
X110144796Y-32936263D01*
X110169036Y-32939878D01*
X110162263Y-32952398D01*
X110141344Y-32986989D01*
X110105373Y-33045069D01*
X110053447Y-33128054D01*
X109984662Y-33237361D01*
X109898115Y-33374407D01*
X109792900Y-33540610D01*
X109668115Y-33737386D01*
X109522855Y-33966152D01*
X109356216Y-34228327D01*
X109167294Y-34525325D01*
X108955187Y-34858566D01*
X108718988Y-35229465D01*
X108457796Y-35639439D01*
X108170705Y-36089907D01*
X107856811Y-36582284D01*
X107515212Y-37117989D01*
X107145003Y-37698437D01*
X106745279Y-38325047D01*
X106315138Y-38999234D01*
X105853675Y-39722417D01*
X105359986Y-40496012D01*
X104833167Y-41321437D01*
X104272315Y-42200107D01*
X103676525Y-43133441D01*
X103044893Y-44122856D01*
X102376517Y-45169768D01*
X101670490Y-46275595D01*
X100925911Y-47441753D01*
X100141874Y-48669660D01*
X99317477Y-49960733D01*
X98451814Y-51316389D01*
X97543982Y-52738044D01*
X96593077Y-54227117D01*
X95598196Y-55785023D01*
X94558433Y-57413181D01*
X93975449Y-58326062D01*
X93487543Y-59090175D01*
X93008580Y-59840509D01*
X92540884Y-60573413D01*
X92086782Y-61285236D01*
X91648597Y-61972326D01*
X91228655Y-62631032D01*
X90829280Y-63257703D01*
X90452798Y-63848687D01*
X90101532Y-64400335D01*
X89777810Y-64908993D01*
X89483954Y-65371012D01*
X89222290Y-65782740D01*
X88995143Y-66140525D01*
X88804837Y-66440717D01*
X88653699Y-66679665D01*
X88544052Y-66853716D01*
X88478221Y-66959220D01*
X88475594Y-66963488D01*
X88059511Y-67640392D01*
X85573666Y-67640392D01*
X85031180Y-67640052D01*
X84569208Y-67638952D01*
X84182308Y-67636973D01*
X83865041Y-67633995D01*
X83611964Y-67629901D01*
X83417640Y-67624570D01*
X83276625Y-67617884D01*
X83183481Y-67609723D01*
X83132767Y-67599969D01*
X83119042Y-67588502D01*
X83119811Y-67586670D01*
X83153023Y-67533510D01*
X83223948Y-67421623D01*
X83323910Y-67264643D01*
X83444231Y-67076205D01*
X83523209Y-66952744D01*
X83633619Y-66780215D01*
X83788208Y-66538573D01*
X83862945Y-66421729D01*
X85185936Y-66421729D01*
X85187272Y-66440779D01*
X85222654Y-66455325D01*
X85301114Y-66465922D01*
X85431682Y-66473126D01*
X85623388Y-66477494D01*
X85885265Y-66479582D01*
X86132050Y-66479986D01*
X87112533Y-66479986D01*
X92118873Y-58933052D01*
X92603288Y-58202727D01*
X93075069Y-57491294D01*
X93532016Y-56802076D01*
X93971927Y-56138398D01*
X94392602Y-55503586D01*
X94791841Y-54900964D01*
X95167442Y-54333858D01*
X95517206Y-53805592D01*
X95838930Y-53319491D01*
X96130416Y-52878880D01*
X96389461Y-52487084D01*
X96613866Y-52147428D01*
X96801429Y-51863236D01*
X96949951Y-51637835D01*
X97057230Y-51474549D01*
X97121065Y-51376702D01*
X97139538Y-51347434D01*
X97102229Y-51336733D01*
X96987956Y-51327342D01*
X96805703Y-51319554D01*
X96564455Y-51313664D01*
X96273198Y-51309966D01*
X95957076Y-51308751D01*
X94760288Y-51308751D01*
X89990296Y-58836111D01*
X89524796Y-59570720D01*
X89071366Y-60286319D01*
X88632164Y-60979500D01*
X88209351Y-61646852D01*
X87805086Y-62284964D01*
X87421529Y-62890428D01*
X87060841Y-63459833D01*
X86725180Y-63989768D01*
X86416706Y-64476825D01*
X86137579Y-64917592D01*
X85889960Y-65308661D01*
X85676006Y-65646620D01*
X85497879Y-65928061D01*
X85357738Y-66149572D01*
X85257743Y-66307744D01*
X85200053Y-66399168D01*
X85185936Y-66421729D01*
X83862945Y-66421729D01*
X83984861Y-66231128D01*
X84221461Y-65861190D01*
X84495892Y-65432069D01*
X84806037Y-64947075D01*
X85149781Y-64409518D01*
X85525008Y-63822709D01*
X85929600Y-63189957D01*
X86361443Y-62514572D01*
X86818419Y-61799865D01*
X87298412Y-61049146D01*
X87799306Y-60265725D01*
X88318986Y-59452911D01*
X88855334Y-58614015D01*
X89406235Y-57752347D01*
X89969571Y-56871218D01*
X90543228Y-55973936D01*
X91125089Y-55063812D01*
X91713037Y-54144157D01*
X92304957Y-53218281D01*
X92898732Y-52289492D01*
X93492245Y-51361102D01*
X94083382Y-50436421D01*
X94239045Y-50192922D01*
X95562288Y-50192922D01*
X96536034Y-50181378D01*
X97509781Y-50169834D01*
X102850914Y-42118755D01*
X103351247Y-41364488D01*
X103838893Y-40629190D01*
X104311732Y-39916068D01*
X104767639Y-39228328D01*
X105204492Y-38569177D01*
X105620170Y-37941822D01*
X106012548Y-37349470D01*
X106379505Y-36795326D01*
X106718918Y-36282599D01*
X107028665Y-35814494D01*
X107306622Y-35394219D01*
X107550667Y-35024980D01*
X107758678Y-34709984D01*
X107928531Y-34452437D01*
X108058105Y-34255547D01*
X108145277Y-34122519D01*
X108187924Y-34056562D01*
X108192047Y-34049635D01*
X108150885Y-34044955D01*
X108034660Y-34040727D01*
X107854266Y-34037114D01*
X107620596Y-34034281D01*
X107344542Y-34032390D01*
X107036998Y-34031606D01*
X106992909Y-34031593D01*
X105793770Y-34031593D01*
X105710010Y-34171272D01*
X105679299Y-34220450D01*
X105604702Y-34338866D01*
X105488349Y-34523157D01*
X105332368Y-34769960D01*
X105138889Y-35075910D01*
X104910041Y-35437646D01*
X104647953Y-35851802D01*
X104354756Y-36315017D01*
X104032578Y-36823925D01*
X103683548Y-37375165D01*
X103309796Y-37965373D01*
X102913452Y-38591184D01*
X102496644Y-39249236D01*
X102061502Y-39936166D01*
X101610155Y-40648609D01*
X101144732Y-41383203D01*
X100667364Y-42136584D01*
X100594269Y-42251936D01*
X95562288Y-50192922D01*
X94239045Y-50192922D01*
X94670024Y-49518759D01*
X95250057Y-48611425D01*
X95821364Y-47717731D01*
X96381829Y-46840985D01*
X96929335Y-45984498D01*
X97461767Y-45151580D01*
X97977007Y-44345542D01*
X98472941Y-43569693D01*
X98947451Y-42827343D01*
X99398422Y-42121802D01*
X99823736Y-41456381D01*
X99823952Y-41456043D01*
X105283548Y-32914165D01*
X107726292Y-32914165D01*
X108175597Y-32914604D01*
X108175597Y-32914604D01*
G37*
X108175597Y-32914604D02*
X108598169Y-32915868D01*
X108986375Y-32917875D01*
X109332583Y-32920547D01*
X109629162Y-32923801D01*
X109868478Y-32927559D01*
X110042901Y-32931740D01*
X110144796Y-32936263D01*
X110169036Y-32939878D01*
X110162263Y-32952398D01*
X110141344Y-32986989D01*
X110105373Y-33045069D01*
X110053447Y-33128054D01*
X109984662Y-33237361D01*
X109898115Y-33374407D01*
X109792900Y-33540610D01*
X109668115Y-33737386D01*
X109522855Y-33966152D01*
X109356216Y-34228327D01*
X109167294Y-34525325D01*
X108955187Y-34858566D01*
X108718988Y-35229465D01*
X108457796Y-35639439D01*
X108170705Y-36089907D01*
X107856811Y-36582284D01*
X107515212Y-37117989D01*
X107145003Y-37698437D01*
X106745279Y-38325047D01*
X106315138Y-38999234D01*
X105853675Y-39722417D01*
X105359986Y-40496012D01*
X104833167Y-41321437D01*
X104272315Y-42200107D01*
X103676525Y-43133441D01*
X103044893Y-44122856D01*
X102376517Y-45169768D01*
X101670490Y-46275595D01*
X100925911Y-47441753D01*
X100141874Y-48669660D01*
X99317477Y-49960733D01*
X98451814Y-51316389D01*
X97543982Y-52738044D01*
X96593077Y-54227117D01*
X95598196Y-55785023D01*
X94558433Y-57413181D01*
X93975449Y-58326062D01*
X93487543Y-59090175D01*
X93008580Y-59840509D01*
X92540884Y-60573413D01*
X92086782Y-61285236D01*
X91648597Y-61972326D01*
X91228655Y-62631032D01*
X90829280Y-63257703D01*
X90452798Y-63848687D01*
X90101532Y-64400335D01*
X89777810Y-64908993D01*
X89483954Y-65371012D01*
X89222290Y-65782740D01*
X88995143Y-66140525D01*
X88804837Y-66440717D01*
X88653699Y-66679665D01*
X88544052Y-66853716D01*
X88478221Y-66959220D01*
X88475594Y-66963488D01*
X88059511Y-67640392D01*
X85573666Y-67640392D01*
X85031180Y-67640052D01*
X84569208Y-67638952D01*
X84182308Y-67636973D01*
X83865041Y-67633995D01*
X83611964Y-67629901D01*
X83417640Y-67624570D01*
X83276625Y-67617884D01*
X83183481Y-67609723D01*
X83132767Y-67599969D01*
X83119042Y-67588502D01*
X83119811Y-67586670D01*
X83153023Y-67533510D01*
X83223948Y-67421623D01*
X83323910Y-67264643D01*
X83444231Y-67076205D01*
X83523209Y-66952744D01*
X83633619Y-66780215D01*
X83788208Y-66538573D01*
X83862945Y-66421729D01*
X85185936Y-66421729D01*
X85187272Y-66440779D01*
X85222654Y-66455325D01*
X85301114Y-66465922D01*
X85431682Y-66473126D01*
X85623388Y-66477494D01*
X85885265Y-66479582D01*
X86132050Y-66479986D01*
X87112533Y-66479986D01*
X92118873Y-58933052D01*
X92603288Y-58202727D01*
X93075069Y-57491294D01*
X93532016Y-56802076D01*
X93971927Y-56138398D01*
X94392602Y-55503586D01*
X94791841Y-54900964D01*
X95167442Y-54333858D01*
X95517206Y-53805592D01*
X95838930Y-53319491D01*
X96130416Y-52878880D01*
X96389461Y-52487084D01*
X96613866Y-52147428D01*
X96801429Y-51863236D01*
X96949951Y-51637835D01*
X97057230Y-51474549D01*
X97121065Y-51376702D01*
X97139538Y-51347434D01*
X97102229Y-51336733D01*
X96987956Y-51327342D01*
X96805703Y-51319554D01*
X96564455Y-51313664D01*
X96273198Y-51309966D01*
X95957076Y-51308751D01*
X94760288Y-51308751D01*
X89990296Y-58836111D01*
X89524796Y-59570720D01*
X89071366Y-60286319D01*
X88632164Y-60979500D01*
X88209351Y-61646852D01*
X87805086Y-62284964D01*
X87421529Y-62890428D01*
X87060841Y-63459833D01*
X86725180Y-63989768D01*
X86416706Y-64476825D01*
X86137579Y-64917592D01*
X85889960Y-65308661D01*
X85676006Y-65646620D01*
X85497879Y-65928061D01*
X85357738Y-66149572D01*
X85257743Y-66307744D01*
X85200053Y-66399168D01*
X85185936Y-66421729D01*
X83862945Y-66421729D01*
X83984861Y-66231128D01*
X84221461Y-65861190D01*
X84495892Y-65432069D01*
X84806037Y-64947075D01*
X85149781Y-64409518D01*
X85525008Y-63822709D01*
X85929600Y-63189957D01*
X86361443Y-62514572D01*
X86818419Y-61799865D01*
X87298412Y-61049146D01*
X87799306Y-60265725D01*
X88318986Y-59452911D01*
X88855334Y-58614015D01*
X89406235Y-57752347D01*
X89969571Y-56871218D01*
X90543228Y-55973936D01*
X91125089Y-55063812D01*
X91713037Y-54144157D01*
X92304957Y-53218281D01*
X92898732Y-52289492D01*
X93492245Y-51361102D01*
X94083382Y-50436421D01*
X94239045Y-50192922D01*
X95562288Y-50192922D01*
X96536034Y-50181378D01*
X97509781Y-50169834D01*
X102850914Y-42118755D01*
X103351247Y-41364488D01*
X103838893Y-40629190D01*
X104311732Y-39916068D01*
X104767639Y-39228328D01*
X105204492Y-38569177D01*
X105620170Y-37941822D01*
X106012548Y-37349470D01*
X106379505Y-36795326D01*
X106718918Y-36282599D01*
X107028665Y-35814494D01*
X107306622Y-35394219D01*
X107550667Y-35024980D01*
X107758678Y-34709984D01*
X107928531Y-34452437D01*
X108058105Y-34255547D01*
X108145277Y-34122519D01*
X108187924Y-34056562D01*
X108192047Y-34049635D01*
X108150885Y-34044955D01*
X108034660Y-34040727D01*
X107854266Y-34037114D01*
X107620596Y-34034281D01*
X107344542Y-34032390D01*
X107036998Y-34031606D01*
X106992909Y-34031593D01*
X105793770Y-34031593D01*
X105710010Y-34171272D01*
X105679299Y-34220450D01*
X105604702Y-34338866D01*
X105488349Y-34523157D01*
X105332368Y-34769960D01*
X105138889Y-35075910D01*
X104910041Y-35437646D01*
X104647953Y-35851802D01*
X104354756Y-36315017D01*
X104032578Y-36823925D01*
X103683548Y-37375165D01*
X103309796Y-37965373D01*
X102913452Y-38591184D01*
X102496644Y-39249236D01*
X102061502Y-39936166D01*
X101610155Y-40648609D01*
X101144732Y-41383203D01*
X100667364Y-42136584D01*
X100594269Y-42251936D01*
X95562288Y-50192922D01*
X94239045Y-50192922D01*
X94670024Y-49518759D01*
X95250057Y-48611425D01*
X95821364Y-47717731D01*
X96381829Y-46840985D01*
X96929335Y-45984498D01*
X97461767Y-45151580D01*
X97977007Y-44345542D01*
X98472941Y-43569693D01*
X98947451Y-42827343D01*
X99398422Y-42121802D01*
X99823736Y-41456381D01*
X99823952Y-41456043D01*
X105283548Y-32914165D01*
X107726292Y-32914165D01*
X108175597Y-32914604D01*
D14*
G36*
X163598000Y-53874000D02*
G01*
X163598000Y-56160000D01*
X164360000Y-56160000D01*
X164360000Y-57430000D01*
X165122000Y-57430000D01*
X165122000Y-58700000D01*
X165884000Y-58700000D01*
X165884000Y-59970000D01*
X166646000Y-59970000D01*
X166646000Y-61240000D01*
X165884000Y-61240000D01*
X162074000Y-54128000D01*
X162074000Y-53366000D01*
X163598000Y-53366000D01*
X163598000Y-54128000D01*
X163598000Y-54001000D01*
X163598000Y-53874000D01*
G37*
X163598000Y-53874000D02*
X163598000Y-56160000D01*
X164360000Y-56160000D01*
X164360000Y-57430000D01*
X165122000Y-57430000D01*
X165122000Y-58700000D01*
X165884000Y-58700000D01*
X165884000Y-59970000D01*
X166646000Y-59970000D01*
X166646000Y-61240000D01*
X165884000Y-61240000D01*
X162074000Y-54128000D01*
X162074000Y-53366000D01*
X163598000Y-53366000D01*
X163598000Y-54128000D01*
X163598000Y-54001000D01*
X163598000Y-53874000D01*
G36*
X119529000Y-53747000D02*
G01*
X119529000Y-56033000D01*
X118767000Y-56033000D01*
X118767000Y-57303000D01*
X118005000Y-57303000D01*
X118005000Y-58573000D01*
X117116000Y-58573000D01*
X117116000Y-59843000D01*
X116100000Y-59843000D01*
X116100000Y-61113000D01*
X117243000Y-61113000D01*
X121053000Y-54001000D01*
X121053000Y-53239000D01*
X119529000Y-53239000D01*
X119529000Y-54001000D01*
X119529000Y-53874000D01*
X119529000Y-53747000D01*
G37*
X119529000Y-53747000D02*
X119529000Y-56033000D01*
X118767000Y-56033000D01*
X118767000Y-57303000D01*
X118005000Y-57303000D01*
X118005000Y-58573000D01*
X117116000Y-58573000D01*
X117116000Y-59843000D01*
X116100000Y-59843000D01*
X116100000Y-61113000D01*
X117243000Y-61113000D01*
X121053000Y-54001000D01*
X121053000Y-53239000D01*
X119529000Y-53239000D01*
X119529000Y-54001000D01*
X119529000Y-53874000D01*
X119529000Y-53747000D01*
G36*
X136039000Y-68987000D02*
G01*
X136039000Y-70130000D01*
X146580000Y-70130000D01*
X146580000Y-68860000D01*
X147088000Y-68860000D01*
X147088000Y-70511000D01*
X135785000Y-70511000D01*
X135658000Y-70511000D01*
X135658000Y-68987000D01*
X136039000Y-68987000D01*
G37*
X136039000Y-68987000D02*
X136039000Y-70130000D01*
X146580000Y-70130000D01*
X146580000Y-68860000D01*
X147088000Y-68860000D01*
X147088000Y-70511000D01*
X135785000Y-70511000D01*
X135658000Y-70511000D01*
X135658000Y-68987000D01*
X136039000Y-68987000D01*
G36*
X184680000Y-50953000D02*
G01*
X169313000Y-50953000D01*
X169313000Y-50318000D01*
X184680000Y-50318000D01*
X184680000Y-50953000D01*
G37*
X184680000Y-50953000D02*
X169313000Y-50953000D01*
X169313000Y-50318000D01*
X184680000Y-50318000D01*
X184680000Y-50953000D01*
G36*
X98066000Y-51207000D02*
G01*
X113814000Y-51207000D01*
X113814000Y-50826000D01*
X98066000Y-50826000D01*
X98066000Y-51207000D01*
G37*
X98066000Y-51207000D02*
X113814000Y-51207000D01*
X113814000Y-50826000D01*
X98066000Y-50826000D01*
X98066000Y-51207000D01*
D15*
X198498061Y-87832627D03*
X191770000Y-91410000D03*
X180000000Y-75320000D03*
X180000000Y-67700000D03*
X120800000Y-86080000D03*
X120800000Y-93700000D03*
X113400000Y-92080000D03*
X113400000Y-99700000D03*
X115900000Y-91080000D03*
X115900000Y-98700000D03*
X145500000Y-75280000D03*
X145500000Y-82900000D03*
X143100000Y-76130000D03*
X143100000Y-83750000D03*
X140800000Y-77160000D03*
X140800000Y-84780000D03*
D16*
X229320000Y-113830000D03*
D17*
X231820000Y-113830000D03*
D16*
X227470000Y-107410000D03*
D17*
X229970000Y-107410000D03*
D16*
X223610000Y-101690000D03*
D17*
X226110000Y-101690000D03*
D16*
X219120000Y-96450000D03*
D17*
X221620000Y-96450000D03*
D16*
X214040000Y-91890000D03*
D17*
X216540000Y-91890000D03*
D18*
X203956000Y-92220000D03*
X202432000Y-92220000D03*
X200908000Y-92220000D03*
D19*
X199384000Y-92220000D03*
D18*
X176266000Y-73980000D03*
X174742000Y-73980000D03*
X173218000Y-73980000D03*
D19*
X171694000Y-73980000D03*
D20*
X119611664Y-75658807D03*
D21*
X119457408Y-75989609D02*
X119765920Y-75328005D01*
D20*
X120992877Y-76302877D03*
D21*
X120838621Y-76633679D02*
X121147133Y-75972075D01*
D20*
X122374090Y-76946947D03*
D21*
X122219834Y-77277749D02*
X122528346Y-76616145D01*
D20*
X123755303Y-77591018D03*
D14*
G36*
X124620534Y-77001442D02*
G01*
X123859821Y-78632796D01*
X122890072Y-78180594D01*
X123650785Y-76549240D01*
X124620534Y-77001442D01*
X124620534Y-77001442D01*
G37*
D20*
X125961664Y-78608807D03*
D21*
X125807408Y-78939609D02*
X126115920Y-78278005D01*
D20*
X127342877Y-79252877D03*
D21*
X127188621Y-79583679D02*
X127497133Y-78922075D01*
D20*
X128724090Y-79896947D03*
D21*
X128569834Y-80227749D02*
X128878346Y-79566145D01*
D20*
X130105303Y-80541018D03*
D14*
G36*
X130970534Y-79951442D02*
G01*
X130209821Y-81582796D01*
X129240072Y-81130594D01*
X130000785Y-79499240D01*
X130970534Y-79951442D01*
X130970534Y-79951442D01*
G37*
D20*
X133661664Y-79128807D03*
D21*
X133507408Y-79459609D02*
X133815920Y-78798005D01*
D20*
X135042877Y-79772877D03*
D21*
X134888621Y-80103679D02*
X135197133Y-79442075D01*
D20*
X136424090Y-80416947D03*
D21*
X136269834Y-80747749D02*
X136578346Y-80086145D01*
D20*
X137805303Y-81061018D03*
D14*
G36*
X138670534Y-80471442D02*
G01*
X137909821Y-82102796D01*
X136940072Y-81650594D01*
X137700785Y-80019240D01*
X138670534Y-80471442D01*
X138670534Y-80471442D01*
G37*
D20*
X134328336Y-87241193D03*
D21*
X134482592Y-86910391D02*
X134174080Y-87571995D01*
D20*
X132947123Y-86597123D03*
D21*
X133101379Y-86266321D02*
X132792867Y-86927925D01*
D20*
X131565910Y-85953053D03*
D21*
X131720166Y-85622251D02*
X131411654Y-86283855D01*
D20*
X130184697Y-85308982D03*
D14*
G36*
X129319466Y-85898558D02*
G01*
X130080179Y-84267204D01*
X131049928Y-84719406D01*
X130289215Y-86350760D01*
X129319466Y-85898558D01*
X129319466Y-85898558D01*
G37*
D18*
X195381000Y-95380000D03*
X193857000Y-95380000D03*
X192333000Y-95380000D03*
D19*
X190809000Y-95380000D03*
D18*
X198869000Y-100360000D03*
X200393000Y-100360000D03*
X201917000Y-100360000D03*
D19*
X203441000Y-100360000D03*
D18*
X168141000Y-77250000D03*
X166617000Y-77250000D03*
X165093000Y-77250000D03*
D19*
X163569000Y-77250000D03*
D18*
X169849000Y-81570000D03*
X171373000Y-81570000D03*
X172897000Y-81570000D03*
D19*
X174421000Y-81570000D03*
D22*
X195117246Y-85539244D03*
X193171493Y-87171925D03*
X191225740Y-88804605D03*
X189279988Y-90437286D03*
X187334235Y-92069966D03*
X179170832Y-82341202D03*
X181116585Y-80708521D03*
X183062338Y-79075841D03*
X185008091Y-77443160D03*
X186953844Y-75810480D03*
D23*
X145250000Y-70500000D03*
D24*
X124840000Y-78090000D02*
X125961664Y-78608807D01*
X123755303Y-77591018D02*
X124840000Y-78090000D01*
X116830000Y-82110000D02*
X120800000Y-86080000D01*
X119611664Y-75658807D02*
X116830000Y-78440471D01*
X116830000Y-78440471D02*
X116830000Y-82110000D01*
X132249453Y-80541018D02*
X133661664Y-79128807D01*
X130105303Y-80541018D02*
X132249453Y-80541018D01*
X135170000Y-85170000D02*
X134328336Y-87241193D01*
X137805303Y-81061018D02*
X136340000Y-84760000D01*
X136340000Y-84760000D02*
X135170000Y-85170000D01*
X199488010Y-87832627D02*
X198498061Y-87832627D01*
X200718627Y-87832627D02*
X199488010Y-87832627D01*
X203956000Y-91070000D02*
X200718627Y-87832627D01*
X203956000Y-92220000D02*
X203956000Y-91070000D01*
X196166000Y-95380000D02*
X195381000Y-95380000D01*
X197374000Y-95380000D02*
X196166000Y-95380000D01*
X199384000Y-93370000D02*
X197374000Y-95380000D01*
X199384000Y-92220000D02*
X199384000Y-93370000D01*
X198084000Y-100360000D02*
X198869000Y-100360000D01*
X193920000Y-100360000D02*
X198084000Y-100360000D01*
X190809000Y-95380000D02*
X190809000Y-97249000D01*
X190809000Y-97249000D02*
X193920000Y-100360000D01*
X168926000Y-77250000D02*
X168141000Y-77250000D01*
X169574000Y-77250000D02*
X168926000Y-77250000D01*
X171694000Y-75130000D02*
X169574000Y-77250000D01*
X171694000Y-73980000D02*
X171694000Y-75130000D01*
X178660000Y-73980000D02*
X180000000Y-75320000D01*
X176266000Y-73980000D02*
X178660000Y-73980000D01*
X165830000Y-81570000D02*
X169849000Y-81570000D01*
X163569000Y-77250000D02*
X163569000Y-79309000D01*
X163569000Y-79309000D02*
X165830000Y-81570000D01*
X183062338Y-79075841D02*
X183055841Y-79075841D01*
X183062338Y-79075841D02*
X181480000Y-77493503D01*
X181480000Y-70169949D02*
X181480000Y-76020000D01*
X180000000Y-68689949D02*
X181480000Y-70169949D01*
X180000000Y-67700000D02*
X180000000Y-68689949D01*
X181480000Y-77493503D02*
X181480000Y-76020000D01*
X181480000Y-76020000D02*
X181480000Y-75870000D01*
X190252702Y-91410000D02*
X189279988Y-90437286D01*
X191770000Y-91410000D02*
X190252702Y-91410000D01*
X191225740Y-88804605D02*
X184205395Y-88804605D01*
X184205395Y-88804605D02*
X178490000Y-94520000D01*
X122609949Y-94520000D02*
X125080000Y-94520000D01*
X121789949Y-93700000D02*
X122609949Y-94520000D01*
X120800000Y-93700000D02*
X121789949Y-93700000D01*
X178490000Y-94520000D02*
X125080000Y-94520000D01*
X125080000Y-94520000D02*
X124710000Y-94520000D01*
X176710000Y-77580000D02*
X175970000Y-76840000D01*
X175970000Y-76840000D02*
X173770000Y-76840000D01*
X173218000Y-76288000D02*
X173218000Y-73980000D01*
X173770000Y-76840000D02*
X173218000Y-76288000D01*
X173770000Y-76840000D02*
X173610000Y-76840000D01*
X172897000Y-77553000D02*
X172897000Y-81570000D01*
X173610000Y-76840000D02*
X172897000Y-77553000D01*
X173610000Y-76840000D02*
X172490000Y-76840000D01*
X172490000Y-76840000D02*
X170360000Y-78970000D01*
X170360000Y-78970000D02*
X165560000Y-78970000D01*
X165093000Y-78503000D02*
X165093000Y-77250000D01*
X165560000Y-78970000D02*
X165093000Y-78503000D01*
X211190000Y-92230000D02*
X196403160Y-77443160D01*
X224072945Y-109675685D02*
X224034315Y-109675685D01*
X226338630Y-107410000D02*
X224072945Y-109675685D01*
X219312945Y-104855685D02*
X219214315Y-104855685D01*
X222478630Y-101690000D02*
X219312945Y-104855685D01*
X223610000Y-101690000D02*
X222478630Y-101690000D01*
X224034315Y-109675685D02*
X219214315Y-104855685D01*
X214459315Y-99979315D02*
X214459315Y-100100685D01*
X217988630Y-96450000D02*
X214459315Y-99979315D01*
X219120000Y-96450000D02*
X217988630Y-96450000D01*
X219214315Y-104855685D02*
X214459315Y-100100685D01*
X214459315Y-100100685D02*
X211190000Y-96831370D01*
X211200000Y-94730000D02*
X211190000Y-94730000D01*
X214040000Y-91890000D02*
X211200000Y-94730000D01*
X211190000Y-96831370D02*
X211190000Y-94730000D01*
X200908000Y-93370000D02*
X201648000Y-94110000D01*
X200908000Y-92220000D02*
X200908000Y-93370000D01*
X211190000Y-94730000D02*
X211190000Y-94110000D01*
X211190000Y-94110000D02*
X211190000Y-92230000D01*
X201917000Y-99210000D02*
X203160000Y-97967000D01*
X201917000Y-100360000D02*
X201917000Y-99210000D01*
X201648000Y-94110000D02*
X203160000Y-94110000D01*
X203160000Y-94110000D02*
X211190000Y-94110000D01*
X192333000Y-96530000D02*
X193820000Y-98017000D01*
X192333000Y-95380000D02*
X192333000Y-96530000D01*
X200863000Y-98017000D02*
X203160000Y-95720000D01*
X193820000Y-98017000D02*
X200863000Y-98017000D01*
X203160000Y-97967000D02*
X203160000Y-95720000D01*
X203160000Y-95720000D02*
X203160000Y-94110000D01*
X185858090Y-82168090D02*
X182778090Y-85248090D01*
X182778090Y-85248090D02*
X182586180Y-85440000D01*
X175906180Y-92120000D02*
X182778090Y-85248090D01*
X120810000Y-78511037D02*
X120810000Y-81110000D01*
X122374090Y-76946947D02*
X120810000Y-78511037D01*
X126010000Y-86310000D02*
X126010000Y-88780000D01*
X126010000Y-88780000D02*
X129350000Y-92120000D01*
X128044348Y-81025652D02*
X124385000Y-84685000D01*
X128044348Y-80576689D02*
X128044348Y-81025652D01*
X128724090Y-79896947D02*
X128044348Y-80576689D01*
X120810000Y-81110000D02*
X124385000Y-84685000D01*
X130886168Y-92113832D02*
X130880000Y-92120000D01*
X130886168Y-86632795D02*
X130886168Y-92113832D01*
X131565910Y-85953053D02*
X130886168Y-86632795D01*
X129350000Y-92120000D02*
X130880000Y-92120000D01*
X130880000Y-92120000D02*
X175906180Y-92120000D01*
X124385000Y-84685000D02*
X124925000Y-85225000D01*
X124925000Y-85225000D02*
X126010000Y-86310000D01*
X127340000Y-82810000D02*
X124925000Y-85225000D01*
X136424090Y-80416947D02*
X135190000Y-82770000D01*
X135190000Y-82770000D02*
X127340000Y-82810000D01*
X228188630Y-113830000D02*
X224034315Y-109675685D01*
X229320000Y-113830000D02*
X228188630Y-113830000D01*
X227470000Y-107410000D02*
X226338630Y-107410000D01*
X185858090Y-80841910D02*
X183071910Y-80841910D01*
X185858090Y-80841910D02*
X185858090Y-82168090D01*
X179810000Y-77580000D02*
X176710000Y-77580000D01*
X183071910Y-80841910D02*
X179810000Y-77580000D01*
X196403160Y-77443160D02*
X186683160Y-77443160D01*
X185858090Y-77528230D02*
X185943160Y-77443160D01*
X185858090Y-80841910D02*
X185858090Y-77528230D01*
X186683160Y-77443160D02*
X185943160Y-77443160D01*
X185943160Y-77443160D02*
X185008091Y-77443160D01*
X149665583Y-76699217D02*
X145250000Y-70500000D01*
X181966584Y-81558520D02*
X181966584Y-83733416D01*
X181116585Y-80708521D02*
X181966584Y-81558520D01*
X181966584Y-83733416D02*
X176680000Y-89020000D01*
X176680000Y-89020000D02*
X164990000Y-89020000D01*
X164990000Y-89020000D02*
X152660000Y-76690000D01*
X152660000Y-76690000D02*
X149665583Y-76699217D01*
M02*
