G04 #@! TF.GenerationSoftware,KiCad,Pcbnew,(5.1.0)-1*
G04 #@! TF.CreationDate,2019-03-31T16:26:16-05:00*
G04 #@! TF.ProjectId,3000_Society_Badge_K5,33303030-5f53-46f6-9369-6574795f4261,2*
G04 #@! TF.SameCoordinates,Original*
G04 #@! TF.FileFunction,Soldermask,Bot*
G04 #@! TF.FilePolarity,Negative*
%FSLAX46Y46*%
G04 Gerber Fmt 4.6, Leading zero omitted, Abs format (unit mm)*
G04 Created by KiCad (PCBNEW (5.1.0)-1) date 2019-03-31 16:26:16*
%MOMM*%
%LPD*%
G04 APERTURE LIST*
%ADD10C,0.050000*%
%ADD11C,0.036000*%
%ADD12C,0.100000*%
G04 APERTURE END LIST*
D10*
X206756000Y-77724000D02*
X201676000Y-77724000D01*
X200660000Y-68326000D02*
X206756000Y-77724000D01*
X195580000Y-68326000D02*
X200660000Y-68326000D01*
X201676000Y-77724000D02*
X195580000Y-68326000D01*
X142750001Y-24940000D02*
G75*
G03X142750001Y-24940000I-1215047J0D01*
G01*
D11*
X72909999Y-183773750D02*
X73142500Y-183905001D01*
X78576248Y-186098751D02*
X80222499Y-186398750D01*
X66921248Y-169810625D02*
X67022500Y-171211251D01*
X69129999Y-180117500D02*
X69253749Y-180338751D01*
X93640000Y-184235000D02*
X94419999Y-183822500D01*
X66938125Y-162380000D02*
X66825625Y-164196875D01*
X71260000Y-182307501D02*
X72909999Y-183773750D01*
X92492500Y-184741250D02*
X93126249Y-184490001D01*
X68286249Y-178643750D02*
X68679999Y-179322500D01*
X90234999Y-185592501D02*
X91735000Y-185041251D01*
X67146248Y-172628751D02*
X67135000Y-172906250D01*
X68265625Y-156715625D02*
X67928125Y-157756251D01*
X69795625Y-153695000D02*
X69503125Y-154229375D01*
X67135000Y-172906250D02*
X67078748Y-174650000D01*
X91735000Y-185041251D02*
X92492500Y-184741250D01*
X88802500Y-186005000D02*
X90234999Y-185592501D01*
X70183748Y-181295001D02*
X71260000Y-182307501D01*
X67078748Y-174650000D02*
X67127499Y-174905001D01*
X80222499Y-186398750D02*
X81778750Y-186511250D01*
X73967499Y-184280000D02*
X75535000Y-185037500D01*
X67022500Y-171211251D02*
X67146248Y-172628751D01*
X69503125Y-154229375D02*
X69193748Y-154780625D01*
X66696248Y-167290625D02*
X66797500Y-168297500D01*
X69193748Y-154780625D02*
X68839375Y-155410625D01*
X67558750Y-176817501D02*
X68027499Y-178137500D01*
X68027499Y-178137500D02*
X68286249Y-178643750D01*
X68839375Y-155410625D02*
X68490625Y-156181252D01*
X67050625Y-161609375D02*
X66938125Y-162380000D01*
X67630000Y-158853125D02*
X67410625Y-159680000D01*
X84474999Y-186511250D02*
X87058748Y-186316250D01*
X99332500Y-181227501D02*
X99868750Y-180983750D01*
X68679999Y-179322500D02*
X69129999Y-180117500D01*
X81778750Y-186511250D02*
X84474999Y-186511250D01*
X75958749Y-185236250D02*
X78576248Y-186098751D01*
X66696248Y-166868751D02*
X66696248Y-167290625D01*
X66825625Y-164196875D02*
X66713125Y-166334375D01*
X68490625Y-156181252D02*
X68265625Y-156715625D01*
X73142500Y-183905001D02*
X73967499Y-184280000D01*
X100600000Y-180657500D02*
X101290000Y-180301250D01*
X67410625Y-159680000D02*
X67050625Y-161609375D01*
X95946248Y-182963750D02*
X96767500Y-182525000D01*
X100206250Y-180826250D02*
X100600000Y-180657500D01*
X99868750Y-180983750D02*
X100206250Y-180826250D01*
X98706249Y-181516250D02*
X99332500Y-181227501D01*
X66797500Y-168297500D02*
X66921248Y-169810625D01*
X98064999Y-181850000D02*
X98706249Y-181516250D01*
X97442500Y-182161251D02*
X98064999Y-181850000D01*
X96767500Y-182525000D02*
X97442500Y-182161251D01*
X87058748Y-186316250D02*
X88802500Y-186005000D01*
X95158748Y-183410001D02*
X95946248Y-182963750D01*
X67127499Y-174905001D02*
X67558750Y-176817501D01*
X67928125Y-157756251D02*
X67630000Y-158853125D01*
X94419999Y-183822500D02*
X95158748Y-183410001D01*
X93126249Y-184490001D02*
X93640000Y-184235000D01*
X75535000Y-185037500D02*
X75958749Y-185236250D01*
X66713125Y-166334375D02*
X66696248Y-166868751D01*
X69253749Y-180338751D02*
X70183748Y-181295001D01*
X75938125Y-146826875D02*
X75561248Y-147080000D01*
X80663125Y-145291252D02*
X79498748Y-145516252D01*
X82063748Y-145060625D02*
X81715000Y-145105625D01*
X87188125Y-138755000D02*
X87694375Y-139109375D01*
X84932500Y-145049375D02*
X84043748Y-145010000D01*
X76742500Y-136730000D02*
X76883125Y-136634375D01*
X87750625Y-145426252D02*
X86878748Y-145285625D01*
X86743748Y-138400625D02*
X87188125Y-138755000D01*
X89134375Y-139711252D02*
X89612500Y-139823752D01*
X92515000Y-147085625D02*
X91896248Y-146793125D01*
X85331875Y-136926875D02*
X85686248Y-137388125D01*
X88594375Y-145606252D02*
X87750625Y-145426252D01*
X93752500Y-144610625D02*
X93893125Y-146146252D01*
X90068125Y-146090000D02*
X89325625Y-145831252D01*
X77788748Y-136398125D02*
X80207500Y-136409375D01*
X91896248Y-146793125D02*
X91406875Y-146579375D01*
X87694375Y-139109375D02*
X88105000Y-139362500D01*
X76883125Y-136634375D02*
X77096875Y-136550000D01*
X93893125Y-146146252D02*
X92981875Y-147321875D01*
X91980625Y-139868752D02*
X93482500Y-141685625D01*
X89753125Y-139863125D02*
X91553125Y-139880000D01*
X85686248Y-137388125D02*
X86006875Y-137714375D01*
X77501875Y-136426252D02*
X77788748Y-136398125D01*
X84960625Y-136392500D02*
X85123748Y-136662500D01*
X76849375Y-146337500D02*
X75938125Y-146826875D01*
X90715000Y-146315000D02*
X90068125Y-146090000D01*
X77096875Y-136550000D02*
X77293748Y-136482500D01*
X71415625Y-151169375D02*
X70965625Y-151816252D01*
X76601875Y-136904375D02*
X76742500Y-136730000D01*
X91553125Y-139880000D02*
X91980625Y-139868752D01*
X74503748Y-147867500D02*
X74222500Y-148120625D01*
X75561248Y-147080000D02*
X75083125Y-147417500D01*
X77614375Y-145971875D02*
X77203748Y-146168752D01*
X79498748Y-145516252D02*
X78193748Y-145797500D01*
X88751875Y-139598752D02*
X89134375Y-139711252D01*
X86006875Y-137714375D02*
X86400625Y-138119375D01*
X81715000Y-145105625D02*
X80663125Y-145291252D01*
X85123748Y-136662500D02*
X85331875Y-136926875D01*
X93482500Y-141685625D02*
X93752500Y-144610625D01*
X70150000Y-153048125D02*
X69795625Y-153695000D01*
X80207500Y-136409375D02*
X84960625Y-136392500D01*
X89612500Y-139823752D02*
X89753125Y-139863125D01*
X70543748Y-152418125D02*
X70150000Y-153048125D01*
X70965625Y-151816252D02*
X70543748Y-152418125D01*
X71978125Y-150466252D02*
X71415625Y-151169375D01*
X72591248Y-149780000D02*
X71978125Y-150466252D01*
X86400625Y-138119375D02*
X86743748Y-138400625D01*
X73001875Y-149335625D02*
X72591248Y-149780000D01*
X86878748Y-145285625D02*
X85309375Y-145077500D01*
X73705000Y-148626875D02*
X73001875Y-149335625D01*
X74222500Y-148120625D02*
X73705000Y-148626875D01*
X85309375Y-145077500D02*
X84932500Y-145049375D01*
X88386248Y-139475000D02*
X88751875Y-139598752D01*
X89325625Y-145831252D02*
X88594375Y-145606252D01*
X76444375Y-137185625D02*
X76601875Y-136904375D01*
X88105000Y-139362500D02*
X88386248Y-139475000D01*
X75083125Y-147417500D02*
X74503748Y-147867500D01*
X92981875Y-147321875D02*
X92515000Y-147085625D01*
X84043748Y-145010000D02*
X82862500Y-145021252D01*
X78193748Y-145797500D02*
X77614375Y-145971875D01*
X77203748Y-146168752D02*
X76849375Y-146337500D01*
X82862500Y-145021252D02*
X82063748Y-145060625D01*
X91406875Y-146579375D02*
X90715000Y-146315000D01*
X77293748Y-136482500D02*
X77501875Y-136426252D01*
X44393125Y-133681252D02*
X44488750Y-133996252D01*
X44590000Y-126188752D02*
X44252500Y-127881875D01*
X71100625Y-143440625D02*
X71590000Y-143131252D01*
X75544375Y-138980000D02*
X75853748Y-138434375D01*
X73710625Y-141185000D02*
X74554375Y-140228752D01*
X44843125Y-134918752D02*
X45304375Y-135897500D01*
X76264375Y-137534375D02*
X76444375Y-137185625D01*
X49191249Y-140988125D02*
X49596249Y-141320000D01*
X49247500Y-117395000D02*
X48325000Y-118430000D01*
X76095625Y-137928125D02*
X76264375Y-137534375D01*
X63585625Y-146180000D02*
X64260625Y-146028125D01*
X55609375Y-144470000D02*
X56953749Y-144976252D01*
X44044375Y-131560625D02*
X44196250Y-132556252D01*
X72844375Y-142056875D02*
X73710625Y-141185000D01*
X71944375Y-142861252D02*
X72304375Y-142568752D01*
X54287500Y-143879375D02*
X55609375Y-144470000D01*
X44044375Y-129867500D02*
X44044375Y-131560625D01*
X71590000Y-143131252D02*
X71944375Y-142861252D01*
X70549375Y-143766875D02*
X71100625Y-143440625D01*
X69874375Y-144160625D02*
X70549375Y-143766875D01*
X69261248Y-144464375D02*
X69874375Y-144160625D01*
X68681875Y-144745625D02*
X69261248Y-144464375D01*
X44095000Y-128922500D02*
X44044375Y-129867500D01*
X44252500Y-127881875D02*
X44095000Y-128922500D01*
X52735000Y-114516875D02*
X50987500Y-115715000D01*
X44955625Y-124670000D02*
X44590000Y-126188752D01*
X56953749Y-144976252D02*
X58264375Y-145415000D01*
X47987500Y-118842500D02*
X47297500Y-119877500D01*
X61290625Y-146219375D02*
X62320000Y-146219375D01*
X59980000Y-145983125D02*
X60379375Y-146095625D01*
X45445000Y-136178752D02*
X45979375Y-136994375D01*
X67922500Y-145015625D02*
X68681875Y-144745625D01*
X48454375Y-140200625D02*
X49191249Y-140988125D01*
X64260625Y-146028125D02*
X65076249Y-145831252D01*
X62320000Y-146219375D02*
X63585625Y-146180000D01*
X45304375Y-135897500D02*
X45445000Y-136178752D01*
X47297500Y-119877500D02*
X46607499Y-121002500D01*
X51103749Y-142310000D02*
X51806875Y-142715000D01*
X58264375Y-145415000D02*
X59980000Y-145983125D01*
X67258748Y-145251875D02*
X67922500Y-145015625D01*
X65076249Y-145831252D02*
X66122500Y-145578125D01*
X60379375Y-146095625D02*
X61290625Y-146219375D01*
X47515000Y-139058752D02*
X48454375Y-140200625D01*
X46626249Y-137877500D02*
X47515000Y-139058752D01*
X45979375Y-136994375D02*
X46626249Y-137877500D01*
X45407500Y-123470000D02*
X44955625Y-124670000D01*
X44488750Y-133996252D02*
X44843125Y-134918752D01*
X50147500Y-116457500D02*
X49247500Y-117395000D01*
X46120000Y-121925000D02*
X45745000Y-122705000D01*
X48325000Y-118430000D02*
X47987500Y-118842500D01*
X52583125Y-143120000D02*
X53426875Y-143502500D01*
X74554375Y-140228752D02*
X75122500Y-139542500D01*
X72304375Y-142568752D02*
X72844375Y-142056875D01*
X75853748Y-138434375D02*
X76095625Y-137928125D01*
X44196250Y-132556252D02*
X44393125Y-133681252D01*
X66122500Y-145578125D02*
X67258748Y-145251875D01*
X75122500Y-139542500D02*
X75544375Y-138980000D01*
X50321875Y-141860000D02*
X51103749Y-142310000D01*
X51806875Y-142715000D02*
X52583125Y-143120000D01*
X45745000Y-122705000D02*
X45407500Y-123470000D01*
X49596249Y-141320000D02*
X50321875Y-141860000D01*
X46607499Y-121002500D02*
X46120000Y-121925000D01*
X50987500Y-115715000D02*
X50147500Y-116457500D01*
X53426875Y-143502500D02*
X54287500Y-143879375D01*
X53376249Y-114111875D02*
X52735000Y-114516875D01*
X53983749Y-113746253D02*
X53376249Y-114111875D01*
X55519375Y-113003753D02*
X54585625Y-113453753D01*
X56560000Y-112520000D02*
X55519375Y-113003753D01*
X58468749Y-111721253D02*
X57488125Y-112098125D01*
X117568747Y-31317500D02*
X103978748Y-31193755D01*
X103978748Y-31193755D02*
X63163749Y-94424375D01*
X63131323Y-110892324D02*
X62642500Y-110960000D01*
X59931250Y-111391250D02*
X59331249Y-111507500D01*
X61254999Y-111158750D02*
X60636249Y-111260000D01*
X106920625Y-48147500D02*
X117568747Y-31317500D01*
X127085406Y-20650532D02*
X120735569Y-31916605D01*
X62012500Y-111046250D02*
X61254999Y-111158750D01*
X62642500Y-110960000D02*
X62012500Y-111046250D01*
X63163749Y-94424375D02*
X63131323Y-110892324D01*
X111943747Y-48102500D02*
X106920625Y-48147500D01*
X119486875Y-31910938D02*
X119484999Y-35161251D01*
X120735569Y-31916605D02*
X119486875Y-31910938D01*
X57488125Y-112098125D02*
X56560000Y-112520000D01*
X54585625Y-113453753D02*
X53983749Y-113746253D01*
X59331249Y-111507500D02*
X58468749Y-111721253D01*
X60636249Y-111260000D02*
X59931250Y-111391250D01*
X119484999Y-35161251D02*
X111943747Y-48102500D01*
X227821562Y-135242188D02*
X228839687Y-134024375D01*
X234062500Y-126312500D02*
X234531250Y-124876250D01*
X201288437Y-149282188D02*
X201991562Y-149183752D01*
X210850000Y-143592500D02*
X212552500Y-142115000D01*
X230155000Y-131333750D02*
X231332499Y-130763750D01*
X228955794Y-131598677D02*
X229054264Y-131585971D01*
X214990000Y-139317500D02*
X215125441Y-139347148D01*
X235931323Y-120413265D02*
X237244264Y-120423853D01*
X228921911Y-131593383D02*
X228955794Y-131598677D01*
X214074999Y-140585000D02*
X214465000Y-140082500D01*
X234531250Y-124876250D02*
X234786249Y-123833750D01*
X231332499Y-130763750D02*
X232262500Y-130043750D01*
X234786249Y-123833750D02*
X235138750Y-122183750D01*
X233500000Y-128292500D02*
X234062500Y-126312500D01*
X229686382Y-131434559D02*
X230155000Y-131333750D01*
X205636562Y-147620000D02*
X206210312Y-147262813D01*
X229054264Y-131585971D02*
X229686382Y-131434559D01*
X206210312Y-147262813D02*
X206702500Y-146888752D01*
X204885625Y-148053125D02*
X205636562Y-147620000D01*
X215125441Y-139347148D02*
X215432500Y-139367265D01*
X217344735Y-139181971D02*
X218477676Y-138889736D01*
X237972735Y-119807618D02*
X239260000Y-112013753D01*
X235138750Y-122183750D02*
X235138750Y-121475000D01*
X232262500Y-130043750D02*
X233106250Y-129282500D01*
X235281205Y-120419618D02*
X235931323Y-120413265D01*
X235088500Y-120409030D02*
X235281205Y-120419618D01*
X235138750Y-121475000D02*
X235116029Y-120942677D01*
X223093750Y-137680625D02*
X226046875Y-137000000D01*
X201991562Y-149183752D02*
X202343125Y-149107813D01*
X200115625Y-149324375D02*
X201288437Y-149282188D01*
X233106250Y-129282500D02*
X233500000Y-128292500D01*
X228820000Y-131566252D02*
X228921911Y-131593383D01*
X228839687Y-134024375D02*
X228820000Y-131566252D01*
X216260499Y-139372559D02*
X216592970Y-139340795D01*
X202855000Y-148939063D02*
X203718437Y-148593125D01*
X215432500Y-139367265D02*
X215707794Y-139377853D01*
X197078125Y-149178125D02*
X198132812Y-149285000D01*
X226789375Y-136274375D02*
X227821562Y-135242188D01*
X226046875Y-137000000D02*
X226789375Y-136274375D01*
X208685312Y-145381252D02*
X209171875Y-145007188D01*
X209171875Y-145007188D02*
X210850000Y-143592500D01*
X199342187Y-149341252D02*
X200115625Y-149324375D01*
X215707794Y-139377853D02*
X216260499Y-139372559D01*
X198132812Y-149285000D02*
X199342187Y-149341252D01*
X204407500Y-148292188D02*
X204885625Y-148053125D01*
X217080029Y-139249736D02*
X217344735Y-139181971D01*
X216592970Y-139340795D02*
X217080029Y-139249736D01*
X203718437Y-148593125D02*
X204407500Y-148292188D01*
X214465000Y-140082500D02*
X214990000Y-139317500D01*
X202343125Y-149107813D02*
X202855000Y-148939063D01*
X207138437Y-146559688D02*
X208111562Y-145822813D01*
X206702500Y-146888752D02*
X207138437Y-146559688D01*
X218477676Y-138889736D02*
X223093750Y-137680625D01*
X237244264Y-120423853D02*
X237972735Y-119807618D01*
X235116029Y-120942677D02*
X235088500Y-120409030D01*
X208111562Y-145822813D02*
X208685312Y-145381252D01*
X212552500Y-142115000D02*
X214074999Y-140585000D01*
X102246248Y-179855001D02*
X102519999Y-179720001D01*
X103930000Y-178928750D02*
X104353749Y-178666250D01*
X196335625Y-149071252D02*
X197078125Y-149178125D01*
X110031247Y-176558751D02*
X110417499Y-176333751D01*
X195716875Y-148953125D02*
X196335625Y-149071252D01*
X124360937Y-172372813D02*
X126481562Y-171818751D01*
X110417499Y-176333751D02*
X110950000Y-176026251D01*
X134561875Y-165738125D02*
X136915937Y-165271251D01*
X112401250Y-175212500D02*
X112712499Y-175032500D01*
X194395000Y-148269688D02*
X194695937Y-148503125D01*
X165872499Y-157640000D02*
X167739999Y-155060001D01*
X117585625Y-173824063D02*
X118721875Y-174049063D01*
X108962500Y-177121251D02*
X109581247Y-176791251D01*
X195365312Y-148818125D02*
X195716875Y-148953125D01*
X194695937Y-148503125D02*
X195365312Y-148818125D01*
X162895000Y-158667500D02*
X165872499Y-157640000D01*
X117234062Y-173388125D02*
X117585625Y-173824063D01*
X194133437Y-148044688D02*
X194395000Y-148269688D01*
X110950000Y-176026251D02*
X111362499Y-175790000D01*
X109581247Y-176791251D02*
X110031247Y-176558751D01*
X106768747Y-177203750D02*
X106761249Y-178208750D01*
X167739999Y-155060001D02*
X176293746Y-152525000D01*
X117163747Y-173270000D02*
X117234062Y-173388125D01*
X116743750Y-172595000D02*
X117163747Y-173270000D01*
X111362499Y-175790000D02*
X111744999Y-175576251D01*
X115558749Y-173341251D02*
X116226250Y-172925001D01*
X112975000Y-174882501D02*
X113226247Y-174721251D01*
X101747500Y-180087500D02*
X102246248Y-179855001D01*
X193894375Y-147794375D02*
X194133437Y-148044688D01*
X188511245Y-148981252D02*
X193697500Y-147541252D01*
X129533125Y-170994688D02*
X130987187Y-170586875D01*
X193697500Y-147541252D02*
X193894375Y-147794375D01*
X133746247Y-165850625D02*
X134561875Y-165738125D01*
X176293746Y-152525000D02*
X188511245Y-148981252D01*
X143719375Y-163943751D02*
X150328746Y-162470000D01*
X126481562Y-171818751D02*
X129533125Y-170994688D01*
X113226247Y-174721251D02*
X113552500Y-174533751D01*
X132078437Y-166075625D02*
X133746247Y-165850625D01*
X132500312Y-167434063D02*
X132078437Y-166075625D01*
X102808748Y-179555000D02*
X103480000Y-179165000D01*
X130987187Y-170586875D02*
X132500312Y-167434063D01*
X101290000Y-180301250D02*
X101747500Y-180087500D01*
X123154375Y-172775000D02*
X124360937Y-172372813D01*
X108137500Y-177533751D02*
X108962500Y-177121251D01*
X102519999Y-179720001D02*
X102808748Y-179555000D01*
X114958747Y-173697500D02*
X115558749Y-173341251D01*
X112063750Y-175407500D02*
X112401250Y-175212500D01*
X104353749Y-178666250D02*
X104935000Y-178310000D01*
X114047500Y-174241251D02*
X114546249Y-173941250D01*
X112712499Y-175032500D02*
X112975000Y-174882501D01*
X153492812Y-161702188D02*
X158170000Y-160242500D01*
X103480000Y-179165000D02*
X103930000Y-178928750D01*
X158170000Y-160242500D02*
X162895000Y-158667500D01*
X150328746Y-162470000D02*
X153492812Y-161702188D01*
X118721875Y-174049063D02*
X121081562Y-173452813D01*
X106761249Y-178208750D02*
X108137500Y-177533751D01*
X140161562Y-164641251D02*
X143719375Y-163943751D01*
X136915937Y-165271251D02*
X140161562Y-164641251D01*
X121081562Y-173452813D02*
X123154375Y-172775000D01*
X114546249Y-173941250D02*
X114958747Y-173697500D01*
X116226250Y-172925001D02*
X116743750Y-172595000D01*
X113552500Y-174533751D02*
X114047500Y-174241251D01*
X111744999Y-175576251D02*
X112063750Y-175407500D01*
X104935000Y-178310000D02*
X106768747Y-177203750D01*
X230027499Y-100152501D02*
X228827500Y-98427500D01*
X155807500Y-20650532D02*
X127085406Y-20650532D01*
X162104687Y-31919375D02*
X155807500Y-20650532D01*
X217637500Y-87267500D02*
X216287500Y-86262500D01*
X225707499Y-94947500D02*
X224657500Y-93777500D01*
X164209291Y-36187644D02*
X164174687Y-31919375D01*
X224657500Y-93777500D02*
X223457499Y-92622500D01*
X220142500Y-89367500D02*
X218612500Y-88017500D01*
X171175000Y-47877500D02*
X164209291Y-36187644D01*
X215162500Y-85512500D02*
X178690000Y-31070000D01*
X227882500Y-97347500D02*
X225707499Y-94947500D01*
X239260000Y-112013753D02*
X233747500Y-105668753D01*
X228827500Y-98427500D02*
X227882500Y-97347500D01*
X216287500Y-86262500D02*
X215162500Y-85512500D01*
X165910000Y-31115000D02*
X176687500Y-47877500D01*
X223457499Y-92622500D02*
X220142500Y-89367500D01*
X218612500Y-88017500D02*
X217637500Y-87267500D01*
X232232499Y-103302501D02*
X230027499Y-100152501D01*
X164174687Y-31919375D02*
X162104687Y-31919375D01*
X233747500Y-105668753D02*
X232232499Y-103302501D01*
X176687500Y-47877500D02*
X171175000Y-47877500D01*
X178690000Y-31070000D02*
X165910000Y-31115000D01*
D12*
G36*
X232671000Y-114681000D02*
G01*
X230969000Y-114681000D01*
X230969000Y-112979000D01*
X232671000Y-112979000D01*
X232671000Y-114681000D01*
X232671000Y-114681000D01*
G37*
G36*
X229568228Y-113011703D02*
G01*
X229723100Y-113075853D01*
X229862481Y-113168985D01*
X229981015Y-113287519D01*
X230074147Y-113426900D01*
X230138297Y-113581772D01*
X230171000Y-113746184D01*
X230171000Y-113913816D01*
X230138297Y-114078228D01*
X230074147Y-114233100D01*
X229981015Y-114372481D01*
X229862481Y-114491015D01*
X229723100Y-114584147D01*
X229568228Y-114648297D01*
X229403816Y-114681000D01*
X229236184Y-114681000D01*
X229071772Y-114648297D01*
X228916900Y-114584147D01*
X228777519Y-114491015D01*
X228658985Y-114372481D01*
X228565853Y-114233100D01*
X228501703Y-114078228D01*
X228469000Y-113913816D01*
X228469000Y-113746184D01*
X228501703Y-113581772D01*
X228565853Y-113426900D01*
X228658985Y-113287519D01*
X228777519Y-113168985D01*
X228916900Y-113075853D01*
X229071772Y-113011703D01*
X229236184Y-112979000D01*
X229403816Y-112979000D01*
X229568228Y-113011703D01*
X229568228Y-113011703D01*
G37*
G36*
X230821000Y-108261000D02*
G01*
X229119000Y-108261000D01*
X229119000Y-106559000D01*
X230821000Y-106559000D01*
X230821000Y-108261000D01*
X230821000Y-108261000D01*
G37*
G36*
X227718228Y-106591703D02*
G01*
X227873100Y-106655853D01*
X228012481Y-106748985D01*
X228131015Y-106867519D01*
X228224147Y-107006900D01*
X228288297Y-107161772D01*
X228321000Y-107326184D01*
X228321000Y-107493816D01*
X228288297Y-107658228D01*
X228224147Y-107813100D01*
X228131015Y-107952481D01*
X228012481Y-108071015D01*
X227873100Y-108164147D01*
X227718228Y-108228297D01*
X227553816Y-108261000D01*
X227386184Y-108261000D01*
X227221772Y-108228297D01*
X227066900Y-108164147D01*
X226927519Y-108071015D01*
X226808985Y-107952481D01*
X226715853Y-107813100D01*
X226651703Y-107658228D01*
X226619000Y-107493816D01*
X226619000Y-107326184D01*
X226651703Y-107161772D01*
X226715853Y-107006900D01*
X226808985Y-106867519D01*
X226927519Y-106748985D01*
X227066900Y-106655853D01*
X227221772Y-106591703D01*
X227386184Y-106559000D01*
X227553816Y-106559000D01*
X227718228Y-106591703D01*
X227718228Y-106591703D01*
G37*
G36*
X226961000Y-102541000D02*
G01*
X225259000Y-102541000D01*
X225259000Y-100839000D01*
X226961000Y-100839000D01*
X226961000Y-102541000D01*
X226961000Y-102541000D01*
G37*
G36*
X223858228Y-100871703D02*
G01*
X224013100Y-100935853D01*
X224152481Y-101028985D01*
X224271015Y-101147519D01*
X224364147Y-101286900D01*
X224428297Y-101441772D01*
X224461000Y-101606184D01*
X224461000Y-101773816D01*
X224428297Y-101938228D01*
X224364147Y-102093100D01*
X224271015Y-102232481D01*
X224152481Y-102351015D01*
X224013100Y-102444147D01*
X223858228Y-102508297D01*
X223693816Y-102541000D01*
X223526184Y-102541000D01*
X223361772Y-102508297D01*
X223206900Y-102444147D01*
X223067519Y-102351015D01*
X222948985Y-102232481D01*
X222855853Y-102093100D01*
X222791703Y-101938228D01*
X222759000Y-101773816D01*
X222759000Y-101606184D01*
X222791703Y-101441772D01*
X222855853Y-101286900D01*
X222948985Y-101147519D01*
X223067519Y-101028985D01*
X223206900Y-100935853D01*
X223361772Y-100871703D01*
X223526184Y-100839000D01*
X223693816Y-100839000D01*
X223858228Y-100871703D01*
X223858228Y-100871703D01*
G37*
G36*
X202031876Y-99417479D02*
G01*
X202105517Y-99439818D01*
X202142338Y-99450987D01*
X202244140Y-99505402D01*
X202333370Y-99578630D01*
X202406598Y-99667860D01*
X202461013Y-99769662D01*
X202461013Y-99769663D01*
X202494521Y-99880124D01*
X202503000Y-99966215D01*
X202503000Y-100753785D01*
X202494521Y-100839876D01*
X202472182Y-100913517D01*
X202461013Y-100950338D01*
X202418974Y-101028985D01*
X202406598Y-101052139D01*
X202333369Y-101141369D01*
X202301227Y-101167747D01*
X202244139Y-101214598D01*
X202142337Y-101269013D01*
X202105516Y-101280182D01*
X202031875Y-101302521D01*
X201917000Y-101313835D01*
X201802124Y-101302521D01*
X201728483Y-101280182D01*
X201691662Y-101269013D01*
X201589863Y-101214599D01*
X201589861Y-101214598D01*
X201500631Y-101141369D01*
X201474253Y-101109227D01*
X201427402Y-101052139D01*
X201372987Y-100950337D01*
X201349134Y-100871703D01*
X201339479Y-100839875D01*
X201331000Y-100753784D01*
X201331000Y-99966215D01*
X201339479Y-99880124D01*
X201372988Y-99769663D01*
X201372989Y-99769661D01*
X201427403Y-99667860D01*
X201500631Y-99578630D01*
X201589861Y-99505402D01*
X201691663Y-99450987D01*
X201728484Y-99439818D01*
X201802125Y-99417479D01*
X201917000Y-99406165D01*
X202031876Y-99417479D01*
X202031876Y-99417479D01*
G37*
G36*
X200507876Y-99417479D02*
G01*
X200581517Y-99439818D01*
X200618338Y-99450987D01*
X200720140Y-99505402D01*
X200809370Y-99578630D01*
X200882598Y-99667860D01*
X200937013Y-99769662D01*
X200937013Y-99769663D01*
X200970521Y-99880124D01*
X200979000Y-99966215D01*
X200979000Y-100753785D01*
X200970521Y-100839876D01*
X200948182Y-100913517D01*
X200937013Y-100950338D01*
X200894974Y-101028985D01*
X200882598Y-101052139D01*
X200809369Y-101141369D01*
X200777227Y-101167747D01*
X200720139Y-101214598D01*
X200618337Y-101269013D01*
X200581516Y-101280182D01*
X200507875Y-101302521D01*
X200393000Y-101313835D01*
X200278124Y-101302521D01*
X200204483Y-101280182D01*
X200167662Y-101269013D01*
X200065863Y-101214599D01*
X200065861Y-101214598D01*
X199976631Y-101141369D01*
X199950253Y-101109227D01*
X199903402Y-101052139D01*
X199848987Y-100950337D01*
X199825134Y-100871703D01*
X199815479Y-100839875D01*
X199807000Y-100753784D01*
X199807000Y-99966215D01*
X199815479Y-99880124D01*
X199848988Y-99769663D01*
X199848989Y-99769661D01*
X199903403Y-99667860D01*
X199976631Y-99578630D01*
X200065861Y-99505402D01*
X200167663Y-99450987D01*
X200204484Y-99439818D01*
X200278125Y-99417479D01*
X200393000Y-99406165D01*
X200507876Y-99417479D01*
X200507876Y-99417479D01*
G37*
G36*
X198983876Y-99417479D02*
G01*
X199057517Y-99439818D01*
X199094338Y-99450987D01*
X199196140Y-99505402D01*
X199285370Y-99578630D01*
X199358598Y-99667860D01*
X199413013Y-99769662D01*
X199413013Y-99769663D01*
X199446521Y-99880124D01*
X199455000Y-99966215D01*
X199455000Y-100753785D01*
X199446521Y-100839876D01*
X199424182Y-100913517D01*
X199413013Y-100950338D01*
X199370974Y-101028985D01*
X199358598Y-101052139D01*
X199285369Y-101141369D01*
X199253227Y-101167747D01*
X199196139Y-101214598D01*
X199094337Y-101269013D01*
X199057516Y-101280182D01*
X198983875Y-101302521D01*
X198869000Y-101313835D01*
X198754124Y-101302521D01*
X198680483Y-101280182D01*
X198643662Y-101269013D01*
X198541863Y-101214599D01*
X198541861Y-101214598D01*
X198452631Y-101141369D01*
X198426253Y-101109227D01*
X198379402Y-101052139D01*
X198324987Y-100950337D01*
X198301134Y-100871703D01*
X198291479Y-100839875D01*
X198283000Y-100753784D01*
X198283000Y-99966215D01*
X198291479Y-99880124D01*
X198324988Y-99769663D01*
X198324989Y-99769661D01*
X198379403Y-99667860D01*
X198452631Y-99578630D01*
X198541861Y-99505402D01*
X198643663Y-99450987D01*
X198680484Y-99439818D01*
X198754125Y-99417479D01*
X198869000Y-99406165D01*
X198983876Y-99417479D01*
X198983876Y-99417479D01*
G37*
G36*
X204027000Y-101311000D02*
G01*
X202855000Y-101311000D01*
X202855000Y-99409000D01*
X204027000Y-99409000D01*
X204027000Y-101311000D01*
X204027000Y-101311000D01*
G37*
G36*
X114469059Y-98207860D02*
G01*
X114605732Y-98264472D01*
X114728735Y-98346660D01*
X114833340Y-98451265D01*
X114833341Y-98451267D01*
X114915529Y-98574270D01*
X114967083Y-98698733D01*
X114972140Y-98710941D01*
X115001000Y-98856033D01*
X115001000Y-99003967D01*
X114972140Y-99149059D01*
X114915528Y-99285732D01*
X114833340Y-99408735D01*
X114728735Y-99513340D01*
X114605732Y-99595528D01*
X114605731Y-99595529D01*
X114605730Y-99595529D01*
X114469059Y-99652140D01*
X114323968Y-99681000D01*
X114176032Y-99681000D01*
X114030941Y-99652140D01*
X113894270Y-99595529D01*
X113894269Y-99595529D01*
X113894268Y-99595528D01*
X113771265Y-99513340D01*
X113666660Y-99408735D01*
X113584472Y-99285732D01*
X113527860Y-99149059D01*
X113499000Y-99003967D01*
X113499000Y-98856033D01*
X113527860Y-98710941D01*
X113532917Y-98698733D01*
X113584471Y-98574270D01*
X113666659Y-98451267D01*
X113666660Y-98451265D01*
X113771265Y-98346660D01*
X113894268Y-98264472D01*
X114030941Y-98207860D01*
X114176032Y-98179000D01*
X114323968Y-98179000D01*
X114469059Y-98207860D01*
X114469059Y-98207860D01*
G37*
G36*
X116599059Y-97497860D02*
G01*
X116735732Y-97554472D01*
X116858735Y-97636660D01*
X116963340Y-97741265D01*
X116963341Y-97741267D01*
X117045529Y-97864270D01*
X117102140Y-98000941D01*
X117131000Y-98146032D01*
X117131000Y-98293968D01*
X117102140Y-98439059D01*
X117046135Y-98574268D01*
X117045528Y-98575732D01*
X116963340Y-98698735D01*
X116858735Y-98803340D01*
X116735732Y-98885528D01*
X116735731Y-98885529D01*
X116735730Y-98885529D01*
X116599059Y-98942140D01*
X116453968Y-98971000D01*
X116306032Y-98971000D01*
X116160941Y-98942140D01*
X116024270Y-98885529D01*
X116024269Y-98885529D01*
X116024268Y-98885528D01*
X115901265Y-98803340D01*
X115796660Y-98698735D01*
X115714472Y-98575732D01*
X115713866Y-98574268D01*
X115657860Y-98439059D01*
X115629000Y-98293968D01*
X115629000Y-98146032D01*
X115657860Y-98000941D01*
X115714471Y-97864270D01*
X115796659Y-97741267D01*
X115796660Y-97741265D01*
X115901265Y-97636660D01*
X116024268Y-97554472D01*
X116160941Y-97497860D01*
X116306032Y-97469000D01*
X116453968Y-97469000D01*
X116599059Y-97497860D01*
X116599059Y-97497860D01*
G37*
G36*
X222471000Y-97301000D02*
G01*
X220769000Y-97301000D01*
X220769000Y-95599000D01*
X222471000Y-95599000D01*
X222471000Y-97301000D01*
X222471000Y-97301000D01*
G37*
G36*
X219368228Y-95631703D02*
G01*
X219523100Y-95695853D01*
X219662481Y-95788985D01*
X219781015Y-95907519D01*
X219874147Y-96046900D01*
X219938297Y-96201772D01*
X219971000Y-96366184D01*
X219971000Y-96533816D01*
X219938297Y-96698228D01*
X219874147Y-96853100D01*
X219781015Y-96992481D01*
X219662481Y-97111015D01*
X219523100Y-97204147D01*
X219368228Y-97268297D01*
X219203816Y-97301000D01*
X219036184Y-97301000D01*
X218871772Y-97268297D01*
X218716900Y-97204147D01*
X218577519Y-97111015D01*
X218458985Y-96992481D01*
X218365853Y-96853100D01*
X218301703Y-96698228D01*
X218269000Y-96533816D01*
X218269000Y-96366184D01*
X218301703Y-96201772D01*
X218365853Y-96046900D01*
X218458985Y-95907519D01*
X218577519Y-95788985D01*
X218716900Y-95695853D01*
X218871772Y-95631703D01*
X219036184Y-95599000D01*
X219203816Y-95599000D01*
X219368228Y-95631703D01*
X219368228Y-95631703D01*
G37*
G36*
X195495875Y-94437479D02*
G01*
X195569516Y-94459818D01*
X195606337Y-94470987D01*
X195708139Y-94525402D01*
X195765227Y-94572253D01*
X195797369Y-94598631D01*
X195870598Y-94687861D01*
X195870599Y-94687863D01*
X195925013Y-94789662D01*
X195936182Y-94826483D01*
X195958521Y-94900124D01*
X195967000Y-94986215D01*
X195967000Y-95773785D01*
X195958521Y-95859876D01*
X195944068Y-95907520D01*
X195925013Y-95970338D01*
X195870598Y-96072140D01*
X195797370Y-96161370D01*
X195708140Y-96234598D01*
X195606338Y-96289013D01*
X195569517Y-96300182D01*
X195495876Y-96322521D01*
X195381000Y-96333835D01*
X195266125Y-96322521D01*
X195192484Y-96300182D01*
X195155663Y-96289013D01*
X195053861Y-96234598D01*
X194964631Y-96161370D01*
X194891403Y-96072140D01*
X194836989Y-95970339D01*
X194836988Y-95970337D01*
X194803479Y-95859876D01*
X194795000Y-95773785D01*
X194795000Y-94986216D01*
X194803479Y-94900125D01*
X194836987Y-94789664D01*
X194836987Y-94789663D01*
X194891402Y-94687861D01*
X194964629Y-94598634D01*
X194964631Y-94598631D01*
X195053861Y-94525402D01*
X195143562Y-94477455D01*
X195155662Y-94470987D01*
X195192483Y-94459818D01*
X195266124Y-94437479D01*
X195381000Y-94426165D01*
X195495875Y-94437479D01*
X195495875Y-94437479D01*
G37*
G36*
X192447875Y-94437479D02*
G01*
X192521516Y-94459818D01*
X192558337Y-94470987D01*
X192660139Y-94525402D01*
X192717227Y-94572253D01*
X192749369Y-94598631D01*
X192822598Y-94687861D01*
X192822599Y-94687863D01*
X192877013Y-94789662D01*
X192888182Y-94826483D01*
X192910521Y-94900124D01*
X192919000Y-94986215D01*
X192919000Y-95773785D01*
X192910521Y-95859876D01*
X192896068Y-95907520D01*
X192877013Y-95970338D01*
X192822598Y-96072140D01*
X192749370Y-96161370D01*
X192660140Y-96234598D01*
X192558338Y-96289013D01*
X192521517Y-96300182D01*
X192447876Y-96322521D01*
X192333000Y-96333835D01*
X192218125Y-96322521D01*
X192144484Y-96300182D01*
X192107663Y-96289013D01*
X192005861Y-96234598D01*
X191916631Y-96161370D01*
X191843403Y-96072140D01*
X191788989Y-95970339D01*
X191788988Y-95970337D01*
X191755479Y-95859876D01*
X191747000Y-95773785D01*
X191747000Y-94986216D01*
X191755479Y-94900125D01*
X191788987Y-94789664D01*
X191788987Y-94789663D01*
X191843402Y-94687861D01*
X191916629Y-94598634D01*
X191916631Y-94598631D01*
X192005861Y-94525402D01*
X192095562Y-94477455D01*
X192107662Y-94470987D01*
X192144483Y-94459818D01*
X192218124Y-94437479D01*
X192333000Y-94426165D01*
X192447875Y-94437479D01*
X192447875Y-94437479D01*
G37*
G36*
X193971875Y-94437479D02*
G01*
X194045516Y-94459818D01*
X194082337Y-94470987D01*
X194184139Y-94525402D01*
X194241227Y-94572253D01*
X194273369Y-94598631D01*
X194346598Y-94687861D01*
X194346599Y-94687863D01*
X194401013Y-94789662D01*
X194412182Y-94826483D01*
X194434521Y-94900124D01*
X194443000Y-94986215D01*
X194443000Y-95773785D01*
X194434521Y-95859876D01*
X194420068Y-95907520D01*
X194401013Y-95970338D01*
X194346598Y-96072140D01*
X194273370Y-96161370D01*
X194184140Y-96234598D01*
X194082338Y-96289013D01*
X194045517Y-96300182D01*
X193971876Y-96322521D01*
X193857000Y-96333835D01*
X193742125Y-96322521D01*
X193668484Y-96300182D01*
X193631663Y-96289013D01*
X193529861Y-96234598D01*
X193440631Y-96161370D01*
X193367403Y-96072140D01*
X193312989Y-95970339D01*
X193312988Y-95970337D01*
X193279479Y-95859876D01*
X193271000Y-95773785D01*
X193271000Y-94986216D01*
X193279479Y-94900125D01*
X193312987Y-94789664D01*
X193312987Y-94789663D01*
X193367402Y-94687861D01*
X193440629Y-94598634D01*
X193440631Y-94598631D01*
X193529861Y-94525402D01*
X193619562Y-94477455D01*
X193631662Y-94470987D01*
X193668483Y-94459818D01*
X193742124Y-94437479D01*
X193857000Y-94426165D01*
X193971875Y-94437479D01*
X193971875Y-94437479D01*
G37*
G36*
X191395000Y-96331000D02*
G01*
X190223000Y-96331000D01*
X190223000Y-94429000D01*
X191395000Y-94429000D01*
X191395000Y-96331000D01*
X191395000Y-96331000D01*
G37*
G36*
X114323665Y-93102622D02*
G01*
X114397222Y-93109867D01*
X114538786Y-93152810D01*
X114669252Y-93222546D01*
X114699040Y-93246992D01*
X114783607Y-93316393D01*
X114853008Y-93400960D01*
X114877454Y-93430748D01*
X114947190Y-93561214D01*
X114990133Y-93702778D01*
X115004633Y-93850000D01*
X114990133Y-93997222D01*
X114947190Y-94138786D01*
X114877454Y-94269252D01*
X114853008Y-94299040D01*
X114783607Y-94383607D01*
X114717962Y-94437479D01*
X114669252Y-94477454D01*
X114538786Y-94547190D01*
X114397222Y-94590133D01*
X114323665Y-94597378D01*
X114286888Y-94601000D01*
X114213112Y-94601000D01*
X114176335Y-94597378D01*
X114102778Y-94590133D01*
X113961214Y-94547190D01*
X113830748Y-94477454D01*
X113782038Y-94437479D01*
X113716393Y-94383607D01*
X113646992Y-94299040D01*
X113622546Y-94269252D01*
X113552810Y-94138786D01*
X113509867Y-93997222D01*
X113495367Y-93850000D01*
X113509867Y-93702778D01*
X113552810Y-93561214D01*
X113622546Y-93430748D01*
X113646992Y-93400960D01*
X113716393Y-93316393D01*
X113800960Y-93246992D01*
X113830748Y-93222546D01*
X113961214Y-93152810D01*
X114102778Y-93109867D01*
X114176335Y-93102622D01*
X114213112Y-93099000D01*
X114286888Y-93099000D01*
X114323665Y-93102622D01*
X114323665Y-93102622D01*
G37*
G36*
X116453665Y-92392622D02*
G01*
X116527222Y-92399867D01*
X116668786Y-92442810D01*
X116799252Y-92512546D01*
X116829040Y-92536992D01*
X116913607Y-92606393D01*
X116983008Y-92690960D01*
X117007454Y-92720748D01*
X117077190Y-92851214D01*
X117120133Y-92992778D01*
X117134633Y-93140000D01*
X117120133Y-93287222D01*
X117077190Y-93428786D01*
X117007454Y-93559252D01*
X116983008Y-93589040D01*
X116913607Y-93673607D01*
X116829040Y-93743008D01*
X116799252Y-93767454D01*
X116668786Y-93837190D01*
X116527222Y-93880133D01*
X116453665Y-93887378D01*
X116416888Y-93891000D01*
X116343112Y-93891000D01*
X116306335Y-93887378D01*
X116232778Y-93880133D01*
X116091214Y-93837190D01*
X115960748Y-93767454D01*
X115930960Y-93743008D01*
X115846393Y-93673607D01*
X115776992Y-93589040D01*
X115752546Y-93559252D01*
X115682810Y-93428786D01*
X115639867Y-93287222D01*
X115625367Y-93140000D01*
X115639867Y-92992778D01*
X115682810Y-92851214D01*
X115752546Y-92720748D01*
X115776992Y-92690960D01*
X115846393Y-92606393D01*
X115930960Y-92536992D01*
X115960748Y-92512546D01*
X116091214Y-92442810D01*
X116232778Y-92399867D01*
X116306335Y-92392622D01*
X116343112Y-92389000D01*
X116416888Y-92389000D01*
X116453665Y-92392622D01*
X116453665Y-92392622D01*
G37*
G36*
X202546875Y-91277479D02*
G01*
X202620516Y-91299818D01*
X202657337Y-91310987D01*
X202759139Y-91365402D01*
X202813482Y-91410000D01*
X202848369Y-91438631D01*
X202921598Y-91527861D01*
X202921599Y-91527863D01*
X202976013Y-91629662D01*
X202979686Y-91641771D01*
X203009521Y-91740124D01*
X203018000Y-91826215D01*
X203018000Y-92613785D01*
X203009521Y-92699876D01*
X203003189Y-92720750D01*
X202976013Y-92810338D01*
X202921598Y-92912140D01*
X202848370Y-93001370D01*
X202759140Y-93074598D01*
X202657338Y-93129013D01*
X202621118Y-93140000D01*
X202546876Y-93162521D01*
X202432000Y-93173835D01*
X202317125Y-93162521D01*
X202242883Y-93140000D01*
X202206663Y-93129013D01*
X202104861Y-93074598D01*
X202015631Y-93001370D01*
X201942403Y-92912140D01*
X201887989Y-92810339D01*
X201875697Y-92769819D01*
X201854479Y-92699876D01*
X201846000Y-92613785D01*
X201846000Y-91826216D01*
X201854479Y-91740125D01*
X201887987Y-91629664D01*
X201887987Y-91629663D01*
X201942402Y-91527861D01*
X202015629Y-91438634D01*
X202015631Y-91438631D01*
X202104861Y-91365402D01*
X202138317Y-91347519D01*
X202206662Y-91310987D01*
X202243483Y-91299818D01*
X202317124Y-91277479D01*
X202432000Y-91266165D01*
X202546875Y-91277479D01*
X202546875Y-91277479D01*
G37*
G36*
X204070875Y-91277479D02*
G01*
X204144516Y-91299818D01*
X204181337Y-91310987D01*
X204283139Y-91365402D01*
X204337482Y-91410000D01*
X204372369Y-91438631D01*
X204445598Y-91527861D01*
X204445599Y-91527863D01*
X204500013Y-91629662D01*
X204503686Y-91641771D01*
X204533521Y-91740124D01*
X204542000Y-91826215D01*
X204542000Y-92613785D01*
X204533521Y-92699876D01*
X204527189Y-92720750D01*
X204500013Y-92810338D01*
X204445598Y-92912140D01*
X204372370Y-93001370D01*
X204283140Y-93074598D01*
X204181338Y-93129013D01*
X204145118Y-93140000D01*
X204070876Y-93162521D01*
X203956000Y-93173835D01*
X203841125Y-93162521D01*
X203766883Y-93140000D01*
X203730663Y-93129013D01*
X203628861Y-93074598D01*
X203539631Y-93001370D01*
X203466403Y-92912140D01*
X203411989Y-92810339D01*
X203399697Y-92769819D01*
X203378479Y-92699876D01*
X203370000Y-92613785D01*
X203370000Y-91826216D01*
X203378479Y-91740125D01*
X203411987Y-91629664D01*
X203411987Y-91629663D01*
X203466402Y-91527861D01*
X203539629Y-91438634D01*
X203539631Y-91438631D01*
X203628861Y-91365402D01*
X203662317Y-91347519D01*
X203730662Y-91310987D01*
X203767483Y-91299818D01*
X203841124Y-91277479D01*
X203956000Y-91266165D01*
X204070875Y-91277479D01*
X204070875Y-91277479D01*
G37*
G36*
X201022875Y-91277479D02*
G01*
X201096516Y-91299818D01*
X201133337Y-91310987D01*
X201235139Y-91365402D01*
X201289482Y-91410000D01*
X201324369Y-91438631D01*
X201397598Y-91527861D01*
X201397599Y-91527863D01*
X201452013Y-91629662D01*
X201455686Y-91641771D01*
X201485521Y-91740124D01*
X201494000Y-91826215D01*
X201494000Y-92613785D01*
X201485521Y-92699876D01*
X201479189Y-92720750D01*
X201452013Y-92810338D01*
X201397598Y-92912140D01*
X201324370Y-93001370D01*
X201235140Y-93074598D01*
X201133338Y-93129013D01*
X201097118Y-93140000D01*
X201022876Y-93162521D01*
X200908000Y-93173835D01*
X200793125Y-93162521D01*
X200718883Y-93140000D01*
X200682663Y-93129013D01*
X200580861Y-93074598D01*
X200491631Y-93001370D01*
X200418403Y-92912140D01*
X200363989Y-92810339D01*
X200351697Y-92769819D01*
X200330479Y-92699876D01*
X200322000Y-92613785D01*
X200322000Y-91826216D01*
X200330479Y-91740125D01*
X200363987Y-91629664D01*
X200363987Y-91629663D01*
X200418402Y-91527861D01*
X200491629Y-91438634D01*
X200491631Y-91438631D01*
X200580861Y-91365402D01*
X200614317Y-91347519D01*
X200682662Y-91310987D01*
X200719483Y-91299818D01*
X200793124Y-91277479D01*
X200908000Y-91266165D01*
X201022875Y-91277479D01*
X201022875Y-91277479D01*
G37*
G36*
X199970000Y-93171000D02*
G01*
X198798000Y-93171000D01*
X198798000Y-91269000D01*
X199970000Y-91269000D01*
X199970000Y-93171000D01*
X199970000Y-93171000D01*
G37*
G36*
X187447747Y-91173893D02*
G01*
X187597047Y-91203590D01*
X187761019Y-91271510D01*
X187908589Y-91370113D01*
X188034088Y-91495612D01*
X188132691Y-91643182D01*
X188200611Y-91807154D01*
X188235235Y-91981225D01*
X188235235Y-92158707D01*
X188200611Y-92332778D01*
X188132691Y-92496750D01*
X188034088Y-92644320D01*
X187908589Y-92769819D01*
X187761019Y-92868422D01*
X187597047Y-92936342D01*
X187447747Y-92966039D01*
X187422977Y-92970966D01*
X187245493Y-92970966D01*
X187220723Y-92966039D01*
X187071423Y-92936342D01*
X186907451Y-92868422D01*
X186759881Y-92769819D01*
X186634382Y-92644320D01*
X186535779Y-92496750D01*
X186467859Y-92332778D01*
X186433235Y-92158707D01*
X186433235Y-91981225D01*
X186467859Y-91807154D01*
X186535779Y-91643182D01*
X186634382Y-91495612D01*
X186759881Y-91370113D01*
X186907451Y-91271510D01*
X187071423Y-91203590D01*
X187220723Y-91173893D01*
X187245493Y-91168966D01*
X187422977Y-91168966D01*
X187447747Y-91173893D01*
X187447747Y-91173893D01*
G37*
G36*
X217391000Y-92741000D02*
G01*
X215689000Y-92741000D01*
X215689000Y-91039000D01*
X217391000Y-91039000D01*
X217391000Y-92741000D01*
X217391000Y-92741000D01*
G37*
G36*
X214288228Y-91071703D02*
G01*
X214443100Y-91135853D01*
X214582481Y-91228985D01*
X214701015Y-91347519D01*
X214794147Y-91486900D01*
X214858297Y-91641772D01*
X214891000Y-91806184D01*
X214891000Y-91973816D01*
X214858297Y-92138228D01*
X214794147Y-92293100D01*
X214701015Y-92432481D01*
X214582481Y-92551015D01*
X214443100Y-92644147D01*
X214288228Y-92708297D01*
X214123816Y-92741000D01*
X213956184Y-92741000D01*
X213791772Y-92708297D01*
X213636900Y-92644147D01*
X213497519Y-92551015D01*
X213378985Y-92432481D01*
X213285853Y-92293100D01*
X213221703Y-92138228D01*
X213189000Y-91973816D01*
X213189000Y-91806184D01*
X213221703Y-91641772D01*
X213285853Y-91486900D01*
X213378985Y-91347519D01*
X213497519Y-91228985D01*
X213636900Y-91135853D01*
X213791772Y-91071703D01*
X213956184Y-91039000D01*
X214123816Y-91039000D01*
X214288228Y-91071703D01*
X214288228Y-91071703D01*
G37*
G36*
X196923665Y-90662622D02*
G01*
X196997222Y-90669867D01*
X197138786Y-90712810D01*
X197269252Y-90782546D01*
X197299040Y-90806992D01*
X197383607Y-90876393D01*
X197453008Y-90960960D01*
X197477454Y-90990748D01*
X197547190Y-91121214D01*
X197590133Y-91262778D01*
X197604633Y-91410000D01*
X197590133Y-91557222D01*
X197547190Y-91698786D01*
X197477454Y-91829252D01*
X197453008Y-91859040D01*
X197383607Y-91943607D01*
X197323004Y-91993341D01*
X197269252Y-92037454D01*
X197138786Y-92107190D01*
X196997222Y-92150133D01*
X196923665Y-92157378D01*
X196886888Y-92161000D01*
X196813112Y-92161000D01*
X196776335Y-92157378D01*
X196702778Y-92150133D01*
X196561214Y-92107190D01*
X196430748Y-92037454D01*
X196376996Y-91993341D01*
X196316393Y-91943607D01*
X196246992Y-91859040D01*
X196222546Y-91829252D01*
X196152810Y-91698786D01*
X196109867Y-91557222D01*
X196095367Y-91410000D01*
X196109867Y-91262778D01*
X196152810Y-91121214D01*
X196222546Y-90990748D01*
X196246992Y-90960960D01*
X196316393Y-90876393D01*
X196400960Y-90806992D01*
X196430748Y-90782546D01*
X196561214Y-90712810D01*
X196702778Y-90669867D01*
X196776335Y-90662622D01*
X196813112Y-90659000D01*
X196886888Y-90659000D01*
X196923665Y-90662622D01*
X196923665Y-90662622D01*
G37*
G36*
X191989059Y-90687860D02*
G01*
X192049294Y-90712810D01*
X192125732Y-90744472D01*
X192248735Y-90826660D01*
X192353340Y-90931265D01*
X192407044Y-91011639D01*
X192435529Y-91054270D01*
X192492140Y-91190941D01*
X192521000Y-91336032D01*
X192521000Y-91483968D01*
X192492140Y-91629059D01*
X192446135Y-91740126D01*
X192435528Y-91765732D01*
X192353340Y-91888735D01*
X192248735Y-91993340D01*
X192125732Y-92075528D01*
X192125731Y-92075529D01*
X192125730Y-92075529D01*
X191989059Y-92132140D01*
X191843968Y-92161000D01*
X191696032Y-92161000D01*
X191550941Y-92132140D01*
X191414270Y-92075529D01*
X191414269Y-92075529D01*
X191414268Y-92075528D01*
X191291265Y-91993340D01*
X191186660Y-91888735D01*
X191104472Y-91765732D01*
X191093866Y-91740126D01*
X191047860Y-91629059D01*
X191019000Y-91483968D01*
X191019000Y-91336032D01*
X191047860Y-91190941D01*
X191104471Y-91054270D01*
X191132956Y-91011639D01*
X191186660Y-90931265D01*
X191291265Y-90826660D01*
X191414268Y-90744472D01*
X191490707Y-90712810D01*
X191550941Y-90687860D01*
X191696032Y-90659000D01*
X191843968Y-90659000D01*
X191989059Y-90687860D01*
X191989059Y-90687860D01*
G37*
G36*
X121071793Y-90010502D02*
G01*
X121159059Y-90027860D01*
X121295732Y-90084472D01*
X121418735Y-90166660D01*
X121523340Y-90271265D01*
X121523341Y-90271267D01*
X121605529Y-90394270D01*
X121662140Y-90530941D01*
X121691000Y-90676032D01*
X121691000Y-90823968D01*
X121662140Y-90969059D01*
X121619623Y-91071705D01*
X121605528Y-91105732D01*
X121523340Y-91228735D01*
X121418735Y-91333340D01*
X121295732Y-91415528D01*
X121295731Y-91415529D01*
X121295730Y-91415529D01*
X121159059Y-91472140D01*
X121013968Y-91501000D01*
X120866032Y-91501000D01*
X120720941Y-91472140D01*
X120584270Y-91415529D01*
X120584269Y-91415529D01*
X120584268Y-91415528D01*
X120461265Y-91333340D01*
X120356660Y-91228735D01*
X120274472Y-91105732D01*
X120260378Y-91071705D01*
X120217860Y-90969059D01*
X120189000Y-90823968D01*
X120189000Y-90676032D01*
X120217860Y-90530941D01*
X120274471Y-90394270D01*
X120356659Y-90271267D01*
X120356660Y-90271265D01*
X120461265Y-90166660D01*
X120584268Y-90084472D01*
X120720941Y-90027860D01*
X120808207Y-90010502D01*
X120866032Y-89999000D01*
X121013968Y-89999000D01*
X121071793Y-90010502D01*
X121071793Y-90010502D01*
G37*
G36*
X189393500Y-89541213D02*
G01*
X189542800Y-89570910D01*
X189706772Y-89638830D01*
X189854342Y-89737433D01*
X189979841Y-89862932D01*
X190078444Y-90010502D01*
X190146364Y-90174474D01*
X190180988Y-90348545D01*
X190180988Y-90526027D01*
X190146364Y-90700098D01*
X190078444Y-90864070D01*
X189979841Y-91011640D01*
X189854342Y-91137139D01*
X189706772Y-91235742D01*
X189542800Y-91303662D01*
X189393595Y-91333340D01*
X189368730Y-91338286D01*
X189191246Y-91338286D01*
X189166381Y-91333340D01*
X189017176Y-91303662D01*
X188853204Y-91235742D01*
X188705634Y-91137139D01*
X188580135Y-91011640D01*
X188481532Y-90864070D01*
X188413612Y-90700098D01*
X188378988Y-90526027D01*
X188378988Y-90348545D01*
X188413612Y-90174474D01*
X188481532Y-90010502D01*
X188580135Y-89862932D01*
X188705634Y-89737433D01*
X188853204Y-89638830D01*
X189017176Y-89570910D01*
X189166476Y-89541213D01*
X189191246Y-89536286D01*
X189368730Y-89536286D01*
X189393500Y-89541213D01*
X189393500Y-89541213D01*
G37*
G36*
X191339252Y-87908532D02*
G01*
X191488552Y-87938229D01*
X191652524Y-88006149D01*
X191800094Y-88104752D01*
X191925593Y-88230251D01*
X192024196Y-88377821D01*
X192092116Y-88541793D01*
X192126740Y-88715864D01*
X192126740Y-88893346D01*
X192092116Y-89067417D01*
X192024196Y-89231389D01*
X191925593Y-89378959D01*
X191800094Y-89504458D01*
X191652524Y-89603061D01*
X191488552Y-89670981D01*
X191339252Y-89700678D01*
X191314482Y-89705605D01*
X191136998Y-89705605D01*
X191112228Y-89700678D01*
X190962928Y-89670981D01*
X190798956Y-89603061D01*
X190651386Y-89504458D01*
X190525887Y-89378959D01*
X190427284Y-89231389D01*
X190359364Y-89067417D01*
X190324740Y-88893346D01*
X190324740Y-88715864D01*
X190359364Y-88541793D01*
X190427284Y-88377821D01*
X190525887Y-88230251D01*
X190651386Y-88104752D01*
X190798956Y-88006149D01*
X190962928Y-87938229D01*
X191112228Y-87908532D01*
X191136998Y-87903605D01*
X191314482Y-87903605D01*
X191339252Y-87908532D01*
X191339252Y-87908532D01*
G37*
G36*
X134622550Y-86338431D02*
G01*
X134731445Y-86376726D01*
X134731446Y-86376727D01*
X134731447Y-86376727D01*
X134830773Y-86435526D01*
X134830776Y-86435529D01*
X134916727Y-86512580D01*
X134985994Y-86604920D01*
X134985995Y-86604922D01*
X135035915Y-86708995D01*
X135055020Y-86783544D01*
X135064573Y-86820816D01*
X135064573Y-86820818D01*
X135070867Y-86936078D01*
X135059242Y-87017498D01*
X135054552Y-87050350D01*
X135043005Y-87083184D01*
X135025852Y-87131961D01*
X134693014Y-87845732D01*
X134693010Y-87845738D01*
X134648942Y-87920179D01*
X134571891Y-88006129D01*
X134479550Y-88075397D01*
X134479548Y-88075398D01*
X134375475Y-88125318D01*
X134302754Y-88143955D01*
X134263654Y-88153976D01*
X134257360Y-88154320D01*
X134148394Y-88160270D01*
X134046813Y-88145767D01*
X134034122Y-88143955D01*
X133975056Y-88123183D01*
X133925229Y-88105661D01*
X133923695Y-88104753D01*
X133825896Y-88046857D01*
X133739946Y-87969806D01*
X133670678Y-87877465D01*
X133655457Y-87845732D01*
X133620757Y-87773390D01*
X133592099Y-87661568D01*
X133585805Y-87546309D01*
X133602120Y-87432040D01*
X133602120Y-87432037D01*
X133630819Y-87350429D01*
X133963662Y-86636648D01*
X134007730Y-86562207D01*
X134084781Y-86476256D01*
X134177121Y-86406989D01*
X134210861Y-86390806D01*
X134281199Y-86357066D01*
X134393019Y-86328409D01*
X134508277Y-86322116D01*
X134508278Y-86322116D01*
X134622550Y-86338431D01*
X134622550Y-86338431D01*
G37*
G36*
X193285005Y-86275852D02*
G01*
X193434305Y-86305549D01*
X193598277Y-86373469D01*
X193745847Y-86472072D01*
X193871346Y-86597571D01*
X193969949Y-86745141D01*
X194037869Y-86909113D01*
X194065962Y-87050349D01*
X194072493Y-87083183D01*
X194072493Y-87260667D01*
X194069421Y-87276109D01*
X194037869Y-87434737D01*
X193969949Y-87598709D01*
X193871346Y-87746279D01*
X193745847Y-87871778D01*
X193598277Y-87970381D01*
X193434305Y-88038301D01*
X193285005Y-88067998D01*
X193260235Y-88072925D01*
X193082751Y-88072925D01*
X193057981Y-88067998D01*
X192908681Y-88038301D01*
X192744709Y-87970381D01*
X192597139Y-87871778D01*
X192471640Y-87746279D01*
X192373037Y-87598709D01*
X192305117Y-87434737D01*
X192273565Y-87276109D01*
X192270493Y-87260667D01*
X192270493Y-87083183D01*
X192277024Y-87050349D01*
X192305117Y-86909113D01*
X192373037Y-86745141D01*
X192471640Y-86597571D01*
X192597139Y-86472072D01*
X192744709Y-86373469D01*
X192908681Y-86305549D01*
X193057981Y-86275852D01*
X193082751Y-86270925D01*
X193260235Y-86270925D01*
X193285005Y-86275852D01*
X193285005Y-86275852D01*
G37*
G36*
X133241337Y-85694361D02*
G01*
X133350232Y-85732656D01*
X133350233Y-85732657D01*
X133350234Y-85732657D01*
X133449560Y-85791456D01*
X133449563Y-85791459D01*
X133535514Y-85868510D01*
X133604781Y-85960850D01*
X133604782Y-85960852D01*
X133654702Y-86064925D01*
X133667176Y-86113598D01*
X133683360Y-86176746D01*
X133683360Y-86176748D01*
X133689654Y-86292008D01*
X133680365Y-86357066D01*
X133673339Y-86406280D01*
X133669029Y-86418535D01*
X133644639Y-86487891D01*
X133311801Y-87201662D01*
X133311797Y-87201668D01*
X133267729Y-87276109D01*
X133190678Y-87362059D01*
X133098337Y-87431327D01*
X133098335Y-87431328D01*
X132994262Y-87481248D01*
X132921541Y-87499885D01*
X132882441Y-87509906D01*
X132876147Y-87510250D01*
X132767181Y-87516200D01*
X132665600Y-87501697D01*
X132652909Y-87499885D01*
X132593843Y-87479113D01*
X132544016Y-87461591D01*
X132544014Y-87461590D01*
X132444683Y-87402787D01*
X132358733Y-87325736D01*
X132289465Y-87233395D01*
X132274244Y-87201662D01*
X132239544Y-87129320D01*
X132210886Y-87017498D01*
X132204592Y-86902239D01*
X132220907Y-86787970D01*
X132220907Y-86787967D01*
X132249606Y-86706359D01*
X132582449Y-85992578D01*
X132626517Y-85918137D01*
X132703568Y-85832186D01*
X132795908Y-85762919D01*
X132829648Y-85746736D01*
X132899986Y-85712996D01*
X133011806Y-85684339D01*
X133127064Y-85678046D01*
X133127065Y-85678046D01*
X133241337Y-85694361D01*
X133241337Y-85694361D01*
G37*
G36*
X131860124Y-85050291D02*
G01*
X131969019Y-85088586D01*
X131969020Y-85088587D01*
X131969021Y-85088587D01*
X132068347Y-85147386D01*
X132068350Y-85147389D01*
X132154301Y-85224440D01*
X132223568Y-85316780D01*
X132223569Y-85316782D01*
X132273489Y-85420855D01*
X132281087Y-85450503D01*
X132302147Y-85532676D01*
X132302147Y-85532678D01*
X132308441Y-85647938D01*
X132299152Y-85712996D01*
X132292126Y-85762210D01*
X132281841Y-85791456D01*
X132263426Y-85843821D01*
X131930588Y-86557592D01*
X131930584Y-86557598D01*
X131886516Y-86632039D01*
X131809465Y-86717989D01*
X131717124Y-86787257D01*
X131717122Y-86787258D01*
X131613049Y-86837178D01*
X131540328Y-86855815D01*
X131501228Y-86865836D01*
X131494934Y-86866180D01*
X131385968Y-86872130D01*
X131284387Y-86857627D01*
X131271696Y-86855815D01*
X131212630Y-86835043D01*
X131162803Y-86817521D01*
X131112880Y-86787967D01*
X131063470Y-86758717D01*
X130977520Y-86681666D01*
X130908252Y-86589325D01*
X130895245Y-86562208D01*
X130858331Y-86485250D01*
X130830518Y-86376726D01*
X130829673Y-86373429D01*
X130826871Y-86322116D01*
X130823379Y-86258169D01*
X130839694Y-86143900D01*
X130839694Y-86143897D01*
X130868393Y-86062289D01*
X131201236Y-85348508D01*
X131245304Y-85274067D01*
X131322355Y-85188116D01*
X131414695Y-85118849D01*
X131448435Y-85102666D01*
X131518773Y-85068926D01*
X131630593Y-85040269D01*
X131745851Y-85033976D01*
X131745852Y-85033976D01*
X131860124Y-85050291D01*
X131860124Y-85050291D01*
G37*
G36*
X195230758Y-84643171D02*
G01*
X195380058Y-84672868D01*
X195544030Y-84740788D01*
X195691600Y-84839391D01*
X195817099Y-84964890D01*
X195915702Y-85112460D01*
X195983622Y-85276432D01*
X196004464Y-85381214D01*
X196017257Y-85445528D01*
X196018246Y-85450503D01*
X196018246Y-85627985D01*
X195983622Y-85802056D01*
X195915702Y-85966028D01*
X195817099Y-86113598D01*
X195691600Y-86239097D01*
X195544030Y-86337700D01*
X195380058Y-86405620D01*
X195230758Y-86435317D01*
X195205988Y-86440244D01*
X195028504Y-86440244D01*
X195003734Y-86435317D01*
X194854434Y-86405620D01*
X194690462Y-86337700D01*
X194542892Y-86239097D01*
X194417393Y-86113598D01*
X194318790Y-85966028D01*
X194250870Y-85802056D01*
X194216246Y-85627985D01*
X194216246Y-85450503D01*
X194217236Y-85445528D01*
X194230028Y-85381214D01*
X194250870Y-85276432D01*
X194318790Y-85112460D01*
X194417393Y-84964890D01*
X194542892Y-84839391D01*
X194690462Y-84740788D01*
X194854434Y-84672868D01*
X195003734Y-84643171D01*
X195028504Y-84638244D01*
X195205988Y-84638244D01*
X195230758Y-84643171D01*
X195230758Y-84643171D01*
G37*
G36*
X121013665Y-84922622D02*
G01*
X121087222Y-84929867D01*
X121228786Y-84972810D01*
X121359252Y-85042546D01*
X121368689Y-85050291D01*
X121473607Y-85136393D01*
X121543008Y-85220960D01*
X121567454Y-85250748D01*
X121637190Y-85381214D01*
X121680133Y-85522778D01*
X121694633Y-85670000D01*
X121680133Y-85817222D01*
X121637190Y-85958786D01*
X121567454Y-86089252D01*
X121547474Y-86113598D01*
X121473607Y-86203607D01*
X121407121Y-86258169D01*
X121359252Y-86297454D01*
X121228786Y-86367190D01*
X121087222Y-86410133D01*
X121013665Y-86417378D01*
X120976888Y-86421000D01*
X120903112Y-86421000D01*
X120866335Y-86417378D01*
X120792778Y-86410133D01*
X120651214Y-86367190D01*
X120520748Y-86297454D01*
X120472879Y-86258169D01*
X120406393Y-86203607D01*
X120332526Y-86113598D01*
X120312546Y-86089252D01*
X120242810Y-85958786D01*
X120199867Y-85817222D01*
X120185367Y-85670000D01*
X120199867Y-85522778D01*
X120242810Y-85381214D01*
X120312546Y-85250748D01*
X120336992Y-85220960D01*
X120406393Y-85136393D01*
X120511311Y-85050291D01*
X120520748Y-85042546D01*
X120651214Y-84972810D01*
X120792778Y-84929867D01*
X120866335Y-84922622D01*
X120903112Y-84919000D01*
X120976888Y-84919000D01*
X121013665Y-84922622D01*
X121013665Y-84922622D01*
G37*
G36*
X131117703Y-84694738D02*
G01*
X130317801Y-86410133D01*
X130313883Y-86418534D01*
X130313883Y-86418535D01*
X129251691Y-85923226D01*
X130055511Y-84199429D01*
X131117703Y-84694738D01*
X131117703Y-84694738D01*
G37*
G36*
X141209059Y-84057860D02*
G01*
X141345732Y-84114472D01*
X141468735Y-84196660D01*
X141573340Y-84301265D01*
X141655528Y-84424268D01*
X141655529Y-84424270D01*
X141712140Y-84560941D01*
X141741000Y-84706032D01*
X141741000Y-84853968D01*
X141712140Y-84999059D01*
X141694128Y-85042545D01*
X141655528Y-85135732D01*
X141573340Y-85258735D01*
X141468735Y-85363340D01*
X141345732Y-85445528D01*
X141345731Y-85445529D01*
X141345730Y-85445529D01*
X141209059Y-85502140D01*
X141063968Y-85531000D01*
X140916032Y-85531000D01*
X140770941Y-85502140D01*
X140634270Y-85445529D01*
X140634269Y-85445529D01*
X140634268Y-85445528D01*
X140511265Y-85363340D01*
X140406660Y-85258735D01*
X140324472Y-85135732D01*
X140285873Y-85042545D01*
X140267860Y-84999059D01*
X140239000Y-84853968D01*
X140239000Y-84706032D01*
X140267860Y-84560941D01*
X140324471Y-84424270D01*
X140324472Y-84424268D01*
X140406660Y-84301265D01*
X140511265Y-84196660D01*
X140634268Y-84114472D01*
X140770941Y-84057860D01*
X140916032Y-84029000D01*
X141063968Y-84029000D01*
X141209059Y-84057860D01*
X141209059Y-84057860D01*
G37*
G36*
X143319059Y-83027860D02*
G01*
X143350915Y-83041055D01*
X143455732Y-83084472D01*
X143578735Y-83166660D01*
X143683340Y-83271265D01*
X143765528Y-83394268D01*
X143822140Y-83530941D01*
X143851000Y-83676033D01*
X143851000Y-83823967D01*
X143822140Y-83969059D01*
X143765528Y-84105732D01*
X143683340Y-84228735D01*
X143578735Y-84333340D01*
X143455732Y-84415528D01*
X143455731Y-84415529D01*
X143455730Y-84415529D01*
X143319059Y-84472140D01*
X143173968Y-84501000D01*
X143026032Y-84501000D01*
X142880941Y-84472140D01*
X142744270Y-84415529D01*
X142744269Y-84415529D01*
X142744268Y-84415528D01*
X142621265Y-84333340D01*
X142516660Y-84228735D01*
X142434472Y-84105732D01*
X142377860Y-83969059D01*
X142349000Y-83823967D01*
X142349000Y-83676033D01*
X142377860Y-83530941D01*
X142434472Y-83394268D01*
X142516660Y-83271265D01*
X142621265Y-83166660D01*
X142744268Y-83084472D01*
X142849086Y-83041055D01*
X142880941Y-83027860D01*
X143026032Y-82999000D01*
X143173968Y-82999000D01*
X143319059Y-83027860D01*
X143319059Y-83027860D01*
G37*
G36*
X145429059Y-83017860D02*
G01*
X145485057Y-83041055D01*
X145565732Y-83074472D01*
X145688735Y-83156660D01*
X145793340Y-83261265D01*
X145875528Y-83384268D01*
X145932140Y-83520941D01*
X145961000Y-83666033D01*
X145961000Y-83813967D01*
X145932140Y-83959059D01*
X145875528Y-84095732D01*
X145793340Y-84218735D01*
X145688735Y-84323340D01*
X145565732Y-84405528D01*
X145565731Y-84405529D01*
X145565730Y-84405529D01*
X145429059Y-84462140D01*
X145283968Y-84491000D01*
X145136032Y-84491000D01*
X144990941Y-84462140D01*
X144854270Y-84405529D01*
X144854269Y-84405529D01*
X144854268Y-84405528D01*
X144731265Y-84323340D01*
X144626660Y-84218735D01*
X144544472Y-84095732D01*
X144487860Y-83959059D01*
X144459000Y-83813967D01*
X144459000Y-83666033D01*
X144487860Y-83520941D01*
X144544472Y-83384268D01*
X144626660Y-83261265D01*
X144731265Y-83156660D01*
X144854268Y-83074472D01*
X144934944Y-83041055D01*
X144990941Y-83017860D01*
X145136032Y-82989000D01*
X145283968Y-82989000D01*
X145429059Y-83017860D01*
X145429059Y-83017860D01*
G37*
G36*
X179284344Y-81445129D02*
G01*
X179433644Y-81474826D01*
X179597616Y-81542746D01*
X179745186Y-81641349D01*
X179870685Y-81766848D01*
X179969288Y-81914418D01*
X180037208Y-82078390D01*
X180071832Y-82252461D01*
X180071832Y-82429943D01*
X180037208Y-82604014D01*
X179969288Y-82767986D01*
X179870685Y-82915556D01*
X179745186Y-83041055D01*
X179597616Y-83139658D01*
X179433644Y-83207578D01*
X179284344Y-83237275D01*
X179259574Y-83242202D01*
X179082090Y-83242202D01*
X179057320Y-83237275D01*
X178908020Y-83207578D01*
X178744048Y-83139658D01*
X178596478Y-83041055D01*
X178470979Y-82915556D01*
X178372376Y-82767986D01*
X178304456Y-82604014D01*
X178269832Y-82429943D01*
X178269832Y-82252461D01*
X178304456Y-82078390D01*
X178372376Y-81914418D01*
X178470979Y-81766848D01*
X178596478Y-81641349D01*
X178744048Y-81542746D01*
X178908020Y-81474826D01*
X179057320Y-81445129D01*
X179082090Y-81440202D01*
X179259574Y-81440202D01*
X179284344Y-81445129D01*
X179284344Y-81445129D01*
G37*
G36*
X171487876Y-80627479D02*
G01*
X171561517Y-80649818D01*
X171598338Y-80660987D01*
X171700140Y-80715402D01*
X171789370Y-80788630D01*
X171862598Y-80877860D01*
X171917013Y-80979662D01*
X171917013Y-80979663D01*
X171950521Y-81090124D01*
X171959000Y-81176215D01*
X171959000Y-81963785D01*
X171950521Y-82049876D01*
X171941871Y-82078390D01*
X171917013Y-82160338D01*
X171911543Y-82170571D01*
X171862598Y-82262139D01*
X171789369Y-82351369D01*
X171757227Y-82377747D01*
X171700139Y-82424598D01*
X171598337Y-82479013D01*
X171561516Y-82490182D01*
X171487875Y-82512521D01*
X171373000Y-82523835D01*
X171258124Y-82512521D01*
X171184483Y-82490182D01*
X171147662Y-82479013D01*
X171045863Y-82424599D01*
X171045861Y-82424598D01*
X170956631Y-82351369D01*
X170930253Y-82319227D01*
X170883402Y-82262139D01*
X170828987Y-82160337D01*
X170817818Y-82123516D01*
X170795479Y-82049875D01*
X170787000Y-81963784D01*
X170787000Y-81176215D01*
X170795479Y-81090124D01*
X170828988Y-80979663D01*
X170828989Y-80979661D01*
X170883403Y-80877860D01*
X170956631Y-80788630D01*
X171045861Y-80715402D01*
X171147663Y-80660987D01*
X171184484Y-80649818D01*
X171258125Y-80627479D01*
X171373000Y-80616165D01*
X171487876Y-80627479D01*
X171487876Y-80627479D01*
G37*
G36*
X173011876Y-80627479D02*
G01*
X173085517Y-80649818D01*
X173122338Y-80660987D01*
X173224140Y-80715402D01*
X173313370Y-80788630D01*
X173386598Y-80877860D01*
X173441013Y-80979662D01*
X173441013Y-80979663D01*
X173474521Y-81090124D01*
X173483000Y-81176215D01*
X173483000Y-81963785D01*
X173474521Y-82049876D01*
X173465871Y-82078390D01*
X173441013Y-82160338D01*
X173435543Y-82170571D01*
X173386598Y-82262139D01*
X173313369Y-82351369D01*
X173281227Y-82377747D01*
X173224139Y-82424598D01*
X173122337Y-82479013D01*
X173085516Y-82490182D01*
X173011875Y-82512521D01*
X172897000Y-82523835D01*
X172782124Y-82512521D01*
X172708483Y-82490182D01*
X172671662Y-82479013D01*
X172569863Y-82424599D01*
X172569861Y-82424598D01*
X172480631Y-82351369D01*
X172454253Y-82319227D01*
X172407402Y-82262139D01*
X172352987Y-82160337D01*
X172341818Y-82123516D01*
X172319479Y-82049875D01*
X172311000Y-81963784D01*
X172311000Y-81176215D01*
X172319479Y-81090124D01*
X172352988Y-80979663D01*
X172352989Y-80979661D01*
X172407403Y-80877860D01*
X172480631Y-80788630D01*
X172569861Y-80715402D01*
X172671663Y-80660987D01*
X172708484Y-80649818D01*
X172782125Y-80627479D01*
X172897000Y-80616165D01*
X173011876Y-80627479D01*
X173011876Y-80627479D01*
G37*
G36*
X169963876Y-80627479D02*
G01*
X170037517Y-80649818D01*
X170074338Y-80660987D01*
X170176140Y-80715402D01*
X170265370Y-80788630D01*
X170338598Y-80877860D01*
X170393013Y-80979662D01*
X170393013Y-80979663D01*
X170426521Y-81090124D01*
X170435000Y-81176215D01*
X170435000Y-81963785D01*
X170426521Y-82049876D01*
X170417871Y-82078390D01*
X170393013Y-82160338D01*
X170387543Y-82170571D01*
X170338598Y-82262139D01*
X170265369Y-82351369D01*
X170233227Y-82377747D01*
X170176139Y-82424598D01*
X170074337Y-82479013D01*
X170037516Y-82490182D01*
X169963875Y-82512521D01*
X169849000Y-82523835D01*
X169734124Y-82512521D01*
X169660483Y-82490182D01*
X169623662Y-82479013D01*
X169521863Y-82424599D01*
X169521861Y-82424598D01*
X169432631Y-82351369D01*
X169406253Y-82319227D01*
X169359402Y-82262139D01*
X169304987Y-82160337D01*
X169293818Y-82123516D01*
X169271479Y-82049875D01*
X169263000Y-81963784D01*
X169263000Y-81176215D01*
X169271479Y-81090124D01*
X169304988Y-80979663D01*
X169304989Y-80979661D01*
X169359403Y-80877860D01*
X169432631Y-80788630D01*
X169521861Y-80715402D01*
X169623663Y-80660987D01*
X169660484Y-80649818D01*
X169734125Y-80627479D01*
X169849000Y-80616165D01*
X169963876Y-80627479D01*
X169963876Y-80627479D01*
G37*
G36*
X175007000Y-82521000D02*
G01*
X173835000Y-82521000D01*
X173835000Y-80619000D01*
X175007000Y-80619000D01*
X175007000Y-82521000D01*
X175007000Y-82521000D01*
G37*
G36*
X138738309Y-80446774D02*
G01*
X137939261Y-82160338D01*
X137934489Y-82170570D01*
X137934489Y-82170571D01*
X136872297Y-81675262D01*
X137676117Y-79951465D01*
X138738309Y-80446774D01*
X138738309Y-80446774D01*
G37*
G36*
X131038309Y-79926774D02*
G01*
X130238789Y-81641350D01*
X130234489Y-81650570D01*
X130234489Y-81650571D01*
X129172297Y-81155262D01*
X129976117Y-79431465D01*
X131038309Y-79926774D01*
X131038309Y-79926774D01*
G37*
G36*
X181229855Y-79812400D02*
G01*
X181379397Y-79842145D01*
X181543369Y-79910065D01*
X181690939Y-80008668D01*
X181816438Y-80134167D01*
X181915041Y-80281737D01*
X181982961Y-80445709D01*
X182017585Y-80619780D01*
X182017585Y-80797262D01*
X181982961Y-80971333D01*
X181915041Y-81135305D01*
X181816438Y-81282875D01*
X181690939Y-81408374D01*
X181543369Y-81506977D01*
X181379397Y-81574897D01*
X181230097Y-81604594D01*
X181205327Y-81609521D01*
X181027843Y-81609521D01*
X181003073Y-81604594D01*
X180853773Y-81574897D01*
X180689801Y-81506977D01*
X180542231Y-81408374D01*
X180416732Y-81282875D01*
X180318129Y-81135305D01*
X180250209Y-80971333D01*
X180215585Y-80797262D01*
X180215585Y-80619780D01*
X180250209Y-80445709D01*
X180318129Y-80281737D01*
X180416732Y-80134167D01*
X180542231Y-80008668D01*
X180689801Y-79910065D01*
X180853773Y-79842145D01*
X181003315Y-79812400D01*
X181027843Y-79807521D01*
X181205327Y-79807521D01*
X181229855Y-79812400D01*
X181229855Y-79812400D01*
G37*
G36*
X136718304Y-79514185D02*
G01*
X136827199Y-79552480D01*
X136827200Y-79552481D01*
X136827201Y-79552481D01*
X136926527Y-79611280D01*
X136926530Y-79611283D01*
X137012481Y-79688334D01*
X137081748Y-79780674D01*
X137081749Y-79780676D01*
X137131669Y-79884749D01*
X137146397Y-79942217D01*
X137160327Y-79996570D01*
X137160327Y-79996572D01*
X137166621Y-80111832D01*
X137158037Y-80171953D01*
X137150306Y-80226104D01*
X137147667Y-80233607D01*
X137121606Y-80307715D01*
X136788768Y-81021486D01*
X136788764Y-81021492D01*
X136744696Y-81095933D01*
X136667645Y-81181883D01*
X136575304Y-81251151D01*
X136575302Y-81251152D01*
X136471229Y-81301072D01*
X136398508Y-81319709D01*
X136359408Y-81329730D01*
X136353114Y-81330074D01*
X136244148Y-81336024D01*
X136142567Y-81321521D01*
X136129876Y-81319709D01*
X136025135Y-81282875D01*
X136020983Y-81281415D01*
X136020981Y-81281414D01*
X135921650Y-81222611D01*
X135835700Y-81145560D01*
X135766432Y-81053219D01*
X135751211Y-81021486D01*
X135716511Y-80949144D01*
X135687853Y-80837322D01*
X135681559Y-80722063D01*
X135695338Y-80625558D01*
X135697874Y-80607791D01*
X135726573Y-80526183D01*
X136059416Y-79812402D01*
X136103484Y-79737961D01*
X136180535Y-79652010D01*
X136272875Y-79582743D01*
X136306615Y-79566560D01*
X136376953Y-79532820D01*
X136488773Y-79504163D01*
X136604031Y-79497870D01*
X136604032Y-79497870D01*
X136718304Y-79514185D01*
X136718304Y-79514185D01*
G37*
G36*
X129018304Y-78994185D02*
G01*
X129127199Y-79032480D01*
X129127200Y-79032481D01*
X129127201Y-79032481D01*
X129226527Y-79091280D01*
X129246899Y-79109543D01*
X129312481Y-79168334D01*
X129381748Y-79260674D01*
X129381749Y-79260676D01*
X129431669Y-79364749D01*
X129446085Y-79421000D01*
X129460327Y-79476570D01*
X129460327Y-79476572D01*
X129466621Y-79591832D01*
X129458288Y-79650194D01*
X129450306Y-79706104D01*
X129429567Y-79765077D01*
X129421606Y-79787715D01*
X129088768Y-80501486D01*
X129088764Y-80501492D01*
X129044696Y-80575933D01*
X128967645Y-80661883D01*
X128875304Y-80731151D01*
X128875302Y-80731152D01*
X128771229Y-80781072D01*
X128698508Y-80799709D01*
X128659408Y-80809730D01*
X128653114Y-80810074D01*
X128544148Y-80816024D01*
X128442567Y-80801521D01*
X128429876Y-80799709D01*
X128370810Y-80778937D01*
X128320983Y-80761415D01*
X128320981Y-80761414D01*
X128221650Y-80702611D01*
X128135700Y-80625560D01*
X128066432Y-80533219D01*
X128051211Y-80501486D01*
X128016511Y-80429144D01*
X127990450Y-80327455D01*
X127987853Y-80317323D01*
X127983282Y-80233607D01*
X127981559Y-80202063D01*
X127997874Y-80087794D01*
X127997874Y-80087791D01*
X128026573Y-80006183D01*
X128359416Y-79292402D01*
X128362345Y-79287455D01*
X128390033Y-79240683D01*
X128403484Y-79217961D01*
X128480535Y-79132010D01*
X128572875Y-79062743D01*
X128611400Y-79044264D01*
X128676953Y-79012820D01*
X128788773Y-78984163D01*
X128904031Y-78977870D01*
X128904032Y-78977870D01*
X129018304Y-78994185D01*
X129018304Y-78994185D01*
G37*
G36*
X135337091Y-78870115D02*
G01*
X135445986Y-78908410D01*
X135445987Y-78908411D01*
X135445988Y-78908411D01*
X135545314Y-78967210D01*
X135545317Y-78967213D01*
X135631268Y-79044264D01*
X135700535Y-79136604D01*
X135700536Y-79136606D01*
X135750456Y-79240679D01*
X135769561Y-79315228D01*
X135779114Y-79352500D01*
X135779114Y-79352502D01*
X135785408Y-79467762D01*
X135772525Y-79557993D01*
X135769093Y-79582034D01*
X135765647Y-79591832D01*
X135740393Y-79663645D01*
X135407555Y-80377416D01*
X135407551Y-80377422D01*
X135363483Y-80451863D01*
X135286432Y-80537813D01*
X135194091Y-80607081D01*
X135194089Y-80607082D01*
X135090016Y-80657002D01*
X135017295Y-80675639D01*
X134978195Y-80685660D01*
X134971901Y-80686004D01*
X134862935Y-80691954D01*
X134761354Y-80677451D01*
X134748663Y-80675639D01*
X134689597Y-80654867D01*
X134639770Y-80637345D01*
X134623104Y-80627479D01*
X134540437Y-80578541D01*
X134454487Y-80501490D01*
X134385219Y-80409149D01*
X134369998Y-80377416D01*
X134335298Y-80305074D01*
X134306640Y-80193252D01*
X134300346Y-80077993D01*
X134316661Y-79963724D01*
X134316661Y-79963721D01*
X134345360Y-79882113D01*
X134678203Y-79168332D01*
X134722271Y-79093891D01*
X134799322Y-79007940D01*
X134891662Y-78938673D01*
X134925402Y-78922490D01*
X134995740Y-78888750D01*
X135107560Y-78860093D01*
X135222818Y-78853800D01*
X135222819Y-78853800D01*
X135337091Y-78870115D01*
X135337091Y-78870115D01*
G37*
G36*
X141063665Y-78952622D02*
G01*
X141137222Y-78959867D01*
X141278786Y-79002810D01*
X141278788Y-79002811D01*
X141297513Y-79012820D01*
X141409252Y-79072546D01*
X141417423Y-79079252D01*
X141523607Y-79166393D01*
X141588180Y-79245077D01*
X141617454Y-79280748D01*
X141687190Y-79411214D01*
X141730133Y-79552778D01*
X141744633Y-79700000D01*
X141730133Y-79847222D01*
X141687190Y-79988786D01*
X141617454Y-80119252D01*
X141602887Y-80137002D01*
X141523607Y-80233607D01*
X141439040Y-80303008D01*
X141409252Y-80327454D01*
X141278786Y-80397190D01*
X141137222Y-80440133D01*
X141069794Y-80446774D01*
X141026888Y-80451000D01*
X140953112Y-80451000D01*
X140910206Y-80446774D01*
X140842778Y-80440133D01*
X140701214Y-80397190D01*
X140570748Y-80327454D01*
X140540960Y-80303008D01*
X140456393Y-80233607D01*
X140377113Y-80137002D01*
X140362546Y-80119252D01*
X140292810Y-79988786D01*
X140249867Y-79847222D01*
X140235367Y-79700000D01*
X140249867Y-79552778D01*
X140292810Y-79411214D01*
X140362546Y-79280748D01*
X140391820Y-79245077D01*
X140456393Y-79166393D01*
X140562577Y-79079252D01*
X140570748Y-79072546D01*
X140682487Y-79012820D01*
X140701212Y-79002811D01*
X140701214Y-79002810D01*
X140842778Y-78959867D01*
X140916335Y-78952622D01*
X140953112Y-78949000D01*
X141026888Y-78949000D01*
X141063665Y-78952622D01*
X141063665Y-78952622D01*
G37*
G36*
X127637091Y-78350115D02*
G01*
X127745986Y-78388410D01*
X127745987Y-78388411D01*
X127745988Y-78388411D01*
X127845314Y-78447210D01*
X127865686Y-78465473D01*
X127931268Y-78524264D01*
X128000535Y-78616604D01*
X128000536Y-78616606D01*
X128050456Y-78720679D01*
X128069561Y-78795228D01*
X128079114Y-78832500D01*
X128079114Y-78832502D01*
X128085408Y-78947762D01*
X128077548Y-79002811D01*
X128069093Y-79062034D01*
X128044485Y-79132010D01*
X128040393Y-79143645D01*
X127707555Y-79857416D01*
X127688770Y-79889147D01*
X127663483Y-79931863D01*
X127586432Y-80017813D01*
X127494091Y-80087081D01*
X127494089Y-80087082D01*
X127390016Y-80137002D01*
X127317295Y-80155639D01*
X127278195Y-80165660D01*
X127271901Y-80166004D01*
X127162935Y-80171954D01*
X127061354Y-80157451D01*
X127048663Y-80155639D01*
X126987606Y-80134167D01*
X126939770Y-80117345D01*
X126930457Y-80111832D01*
X126840437Y-80058541D01*
X126754487Y-79981490D01*
X126685219Y-79889149D01*
X126683110Y-79884753D01*
X126635298Y-79785074D01*
X126613495Y-79700000D01*
X126606640Y-79673253D01*
X126605381Y-79650194D01*
X126600346Y-79557993D01*
X126616661Y-79443724D01*
X126616661Y-79443721D01*
X126645360Y-79362113D01*
X126978203Y-78648332D01*
X127022271Y-78573891D01*
X127099322Y-78487940D01*
X127191662Y-78418673D01*
X127230187Y-78400194D01*
X127295740Y-78368750D01*
X127407560Y-78340093D01*
X127522818Y-78333800D01*
X127522819Y-78333800D01*
X127637091Y-78350115D01*
X127637091Y-78350115D01*
G37*
G36*
X133955878Y-78226045D02*
G01*
X134064773Y-78264340D01*
X134064774Y-78264341D01*
X134064775Y-78264341D01*
X134164101Y-78323140D01*
X134164104Y-78323143D01*
X134250055Y-78400194D01*
X134319322Y-78492534D01*
X134319323Y-78492536D01*
X134369243Y-78596609D01*
X134382684Y-78649057D01*
X134397901Y-78708430D01*
X134397901Y-78708432D01*
X134404195Y-78823692D01*
X134394906Y-78888750D01*
X134387880Y-78937964D01*
X134380557Y-78958788D01*
X134359180Y-79019575D01*
X134026342Y-79733346D01*
X134026338Y-79733352D01*
X133982270Y-79807793D01*
X133905219Y-79893743D01*
X133812878Y-79963011D01*
X133812876Y-79963012D01*
X133708803Y-80012932D01*
X133636082Y-80031569D01*
X133596982Y-80041590D01*
X133590688Y-80041934D01*
X133481722Y-80047884D01*
X133380141Y-80033381D01*
X133367450Y-80031569D01*
X133295263Y-80006183D01*
X133258557Y-79993275D01*
X133258555Y-79993274D01*
X133159224Y-79934471D01*
X133073274Y-79857420D01*
X133004006Y-79765079D01*
X132990999Y-79737962D01*
X132954085Y-79661004D01*
X132926349Y-79552780D01*
X132925427Y-79549183D01*
X132922625Y-79497870D01*
X132919133Y-79433923D01*
X132932735Y-79338653D01*
X132935448Y-79319651D01*
X132964147Y-79238043D01*
X133296990Y-78524262D01*
X133297869Y-78522778D01*
X133310472Y-78501488D01*
X133341058Y-78449821D01*
X133418109Y-78363870D01*
X133510449Y-78294603D01*
X133546345Y-78277385D01*
X133614527Y-78244680D01*
X133726347Y-78216023D01*
X133841605Y-78209730D01*
X133841606Y-78209730D01*
X133955878Y-78226045D01*
X133955878Y-78226045D01*
G37*
G36*
X183175850Y-78179768D02*
G01*
X183325150Y-78209465D01*
X183489122Y-78277385D01*
X183636692Y-78375988D01*
X183762191Y-78501487D01*
X183860794Y-78649057D01*
X183928714Y-78813029D01*
X183955513Y-78947761D01*
X183963338Y-78987099D01*
X183963338Y-79164583D01*
X183962592Y-79168332D01*
X183928714Y-79338653D01*
X183860794Y-79502625D01*
X183762191Y-79650195D01*
X183636692Y-79775694D01*
X183489122Y-79874297D01*
X183325150Y-79942217D01*
X183175850Y-79971914D01*
X183151080Y-79976841D01*
X182973596Y-79976841D01*
X182948826Y-79971914D01*
X182799526Y-79942217D01*
X182635554Y-79874297D01*
X182487984Y-79775694D01*
X182362485Y-79650195D01*
X182263882Y-79502625D01*
X182195962Y-79338653D01*
X182162084Y-79168332D01*
X182161338Y-79164583D01*
X182161338Y-78987099D01*
X182169163Y-78947761D01*
X182195962Y-78813029D01*
X182263882Y-78649057D01*
X182362485Y-78501487D01*
X182487984Y-78375988D01*
X182635554Y-78277385D01*
X182799526Y-78209465D01*
X182948826Y-78179768D01*
X182973596Y-78174841D01*
X183151080Y-78174841D01*
X183175850Y-78179768D01*
X183175850Y-78179768D01*
G37*
G36*
X126255878Y-77706045D02*
G01*
X126364773Y-77744340D01*
X126364774Y-77744341D01*
X126364775Y-77744341D01*
X126464101Y-77803140D01*
X126484473Y-77821403D01*
X126550055Y-77880194D01*
X126619322Y-77972534D01*
X126619323Y-77972536D01*
X126669243Y-78076609D01*
X126686261Y-78143012D01*
X126697901Y-78188430D01*
X126697901Y-78188432D01*
X126704195Y-78303692D01*
X126693127Y-78381212D01*
X126687880Y-78417964D01*
X126663272Y-78487940D01*
X126659180Y-78499575D01*
X126326342Y-79213346D01*
X126307557Y-79245077D01*
X126282270Y-79287793D01*
X126205219Y-79373743D01*
X126112878Y-79443011D01*
X126112876Y-79443012D01*
X126008803Y-79492932D01*
X125936082Y-79511569D01*
X125896982Y-79521590D01*
X125890688Y-79521934D01*
X125781722Y-79527884D01*
X125680141Y-79513381D01*
X125667450Y-79511569D01*
X125608384Y-79490797D01*
X125558557Y-79473275D01*
X125549244Y-79467762D01*
X125459224Y-79414471D01*
X125373274Y-79337420D01*
X125304006Y-79245079D01*
X125301897Y-79240683D01*
X125254085Y-79141004D01*
X125232592Y-79057138D01*
X125225427Y-79029183D01*
X125222625Y-78977870D01*
X125219133Y-78913923D01*
X125234367Y-78807222D01*
X125235448Y-78799651D01*
X125264147Y-78718043D01*
X125596990Y-78004262D01*
X125641058Y-77929821D01*
X125718109Y-77843870D01*
X125810449Y-77774603D01*
X125856298Y-77752611D01*
X125914527Y-77724680D01*
X126026347Y-77696023D01*
X126141605Y-77689730D01*
X126141606Y-77689730D01*
X126255878Y-77706045D01*
X126255878Y-77706045D01*
G37*
G36*
X143173665Y-77922622D02*
G01*
X143247222Y-77929867D01*
X143388786Y-77972810D01*
X143519252Y-78042546D01*
X143549040Y-78066992D01*
X143633607Y-78136393D01*
X143698956Y-78216023D01*
X143727454Y-78250748D01*
X143797190Y-78381214D01*
X143840133Y-78522778D01*
X143854633Y-78670000D01*
X143840133Y-78817222D01*
X143797190Y-78958786D01*
X143797189Y-78958788D01*
X143764699Y-79019572D01*
X143727454Y-79089252D01*
X143723646Y-79093892D01*
X143633607Y-79203607D01*
X143564069Y-79260674D01*
X143519252Y-79297454D01*
X143519250Y-79297455D01*
X143407497Y-79357189D01*
X143388786Y-79367190D01*
X143247222Y-79410133D01*
X143203177Y-79414471D01*
X143136888Y-79421000D01*
X143063112Y-79421000D01*
X142996823Y-79414471D01*
X142952778Y-79410133D01*
X142811214Y-79367190D01*
X142792504Y-79357189D01*
X142680750Y-79297455D01*
X142680748Y-79297454D01*
X142635931Y-79260674D01*
X142566393Y-79203607D01*
X142476354Y-79093892D01*
X142472546Y-79089252D01*
X142435301Y-79019572D01*
X142402811Y-78958788D01*
X142402810Y-78958786D01*
X142359867Y-78817222D01*
X142345367Y-78670000D01*
X142359867Y-78522778D01*
X142402810Y-78381214D01*
X142472546Y-78250748D01*
X142501044Y-78216023D01*
X142566393Y-78136393D01*
X142650960Y-78066992D01*
X142680748Y-78042546D01*
X142811214Y-77972810D01*
X142952778Y-77929867D01*
X143026335Y-77922622D01*
X143063112Y-77919000D01*
X143136888Y-77919000D01*
X143173665Y-77922622D01*
X143173665Y-77922622D01*
G37*
G36*
X145283665Y-77912622D02*
G01*
X145357222Y-77919867D01*
X145498786Y-77962810D01*
X145498788Y-77962811D01*
X145564019Y-77997678D01*
X145629252Y-78032546D01*
X145641437Y-78042546D01*
X145743607Y-78126393D01*
X145811998Y-78209730D01*
X145837454Y-78240748D01*
X145837455Y-78240750D01*
X145905874Y-78368751D01*
X145907190Y-78371214D01*
X145950133Y-78512778D01*
X145964633Y-78660000D01*
X145950133Y-78807222D01*
X145907190Y-78948786D01*
X145907189Y-78948788D01*
X145888280Y-78984164D01*
X145837454Y-79079252D01*
X145827580Y-79091283D01*
X145743607Y-79193607D01*
X145661881Y-79260676D01*
X145629252Y-79287454D01*
X145498786Y-79357190D01*
X145357222Y-79400133D01*
X145283665Y-79407378D01*
X145246888Y-79411000D01*
X145173112Y-79411000D01*
X145136335Y-79407378D01*
X145062778Y-79400133D01*
X144921214Y-79357190D01*
X144790748Y-79287454D01*
X144758119Y-79260676D01*
X144676393Y-79193607D01*
X144592420Y-79091283D01*
X144582546Y-79079252D01*
X144531720Y-78984164D01*
X144512811Y-78948788D01*
X144512810Y-78948786D01*
X144469867Y-78807222D01*
X144455367Y-78660000D01*
X144469867Y-78512778D01*
X144512810Y-78371214D01*
X144514127Y-78368751D01*
X144582545Y-78240750D01*
X144582546Y-78240748D01*
X144608002Y-78209730D01*
X144676393Y-78126393D01*
X144778563Y-78042546D01*
X144790748Y-78032546D01*
X144855981Y-77997678D01*
X144921212Y-77962811D01*
X144921214Y-77962810D01*
X145062778Y-77919867D01*
X145136335Y-77912622D01*
X145173112Y-77909000D01*
X145246888Y-77909000D01*
X145283665Y-77912622D01*
X145283665Y-77912622D01*
G37*
G36*
X124688309Y-76976774D02*
G01*
X123903408Y-78660000D01*
X123884489Y-78700570D01*
X123884489Y-78700571D01*
X122822297Y-78205262D01*
X123626117Y-76481465D01*
X124688309Y-76976774D01*
X124688309Y-76976774D01*
G37*
G36*
X185121603Y-76547087D02*
G01*
X185270903Y-76576784D01*
X185434875Y-76644704D01*
X185582445Y-76743307D01*
X185707944Y-76868806D01*
X185806547Y-77016376D01*
X185874467Y-77180348D01*
X185909091Y-77354419D01*
X185909091Y-77531901D01*
X185874467Y-77705972D01*
X185806547Y-77869944D01*
X185707944Y-78017514D01*
X185582445Y-78143013D01*
X185434875Y-78241616D01*
X185270903Y-78309536D01*
X185121603Y-78339233D01*
X185096833Y-78344160D01*
X184919349Y-78344160D01*
X184894579Y-78339233D01*
X184745279Y-78309536D01*
X184581307Y-78241616D01*
X184433737Y-78143013D01*
X184308238Y-78017514D01*
X184209635Y-77869944D01*
X184141715Y-77705972D01*
X184107091Y-77531901D01*
X184107091Y-77354419D01*
X184141715Y-77180348D01*
X184209635Y-77016376D01*
X184308238Y-76868806D01*
X184433737Y-76743307D01*
X184581307Y-76644704D01*
X184745279Y-76576784D01*
X184894579Y-76547087D01*
X184919349Y-76542160D01*
X185096833Y-76542160D01*
X185121603Y-76547087D01*
X185121603Y-76547087D01*
G37*
G36*
X168255875Y-76307479D02*
G01*
X168329516Y-76329818D01*
X168366337Y-76340987D01*
X168468139Y-76395402D01*
X168525227Y-76442253D01*
X168557369Y-76468631D01*
X168630598Y-76557861D01*
X168630599Y-76557863D01*
X168685013Y-76659662D01*
X168696182Y-76696483D01*
X168718521Y-76770124D01*
X168727000Y-76856215D01*
X168727000Y-77643785D01*
X168718521Y-77729876D01*
X168696297Y-77803140D01*
X168685013Y-77840338D01*
X168630598Y-77942140D01*
X168557370Y-78031370D01*
X168468140Y-78104598D01*
X168366338Y-78159013D01*
X168329517Y-78170182D01*
X168255876Y-78192521D01*
X168141000Y-78203835D01*
X168026125Y-78192521D01*
X167952484Y-78170182D01*
X167915663Y-78159013D01*
X167813861Y-78104598D01*
X167724631Y-78031370D01*
X167651403Y-77942140D01*
X167596989Y-77840339D01*
X167596988Y-77840337D01*
X167563479Y-77729876D01*
X167555000Y-77643785D01*
X167555000Y-76856216D01*
X167563479Y-76770125D01*
X167596987Y-76659664D01*
X167596987Y-76659663D01*
X167651402Y-76557861D01*
X167704038Y-76493724D01*
X167724631Y-76468631D01*
X167813861Y-76395402D01*
X167833634Y-76384833D01*
X167915662Y-76340987D01*
X167952483Y-76329818D01*
X168026124Y-76307479D01*
X168141000Y-76296165D01*
X168255875Y-76307479D01*
X168255875Y-76307479D01*
G37*
G36*
X166731875Y-76307479D02*
G01*
X166805516Y-76329818D01*
X166842337Y-76340987D01*
X166944139Y-76395402D01*
X167001227Y-76442253D01*
X167033369Y-76468631D01*
X167106598Y-76557861D01*
X167106599Y-76557863D01*
X167161013Y-76659662D01*
X167172182Y-76696483D01*
X167194521Y-76770124D01*
X167203000Y-76856215D01*
X167203000Y-77643785D01*
X167194521Y-77729876D01*
X167172297Y-77803140D01*
X167161013Y-77840338D01*
X167106598Y-77942140D01*
X167033370Y-78031370D01*
X166944140Y-78104598D01*
X166842338Y-78159013D01*
X166805517Y-78170182D01*
X166731876Y-78192521D01*
X166617000Y-78203835D01*
X166502125Y-78192521D01*
X166428484Y-78170182D01*
X166391663Y-78159013D01*
X166289861Y-78104598D01*
X166200631Y-78031370D01*
X166127403Y-77942140D01*
X166072989Y-77840339D01*
X166072988Y-77840337D01*
X166039479Y-77729876D01*
X166031000Y-77643785D01*
X166031000Y-76856216D01*
X166039479Y-76770125D01*
X166072987Y-76659664D01*
X166072987Y-76659663D01*
X166127402Y-76557861D01*
X166180038Y-76493724D01*
X166200631Y-76468631D01*
X166289861Y-76395402D01*
X166309634Y-76384833D01*
X166391662Y-76340987D01*
X166428483Y-76329818D01*
X166502124Y-76307479D01*
X166617000Y-76296165D01*
X166731875Y-76307479D01*
X166731875Y-76307479D01*
G37*
G36*
X165207875Y-76307479D02*
G01*
X165281516Y-76329818D01*
X165318337Y-76340987D01*
X165420139Y-76395402D01*
X165477227Y-76442253D01*
X165509369Y-76468631D01*
X165582598Y-76557861D01*
X165582599Y-76557863D01*
X165637013Y-76659662D01*
X165648182Y-76696483D01*
X165670521Y-76770124D01*
X165679000Y-76856215D01*
X165679000Y-77643785D01*
X165670521Y-77729876D01*
X165648297Y-77803140D01*
X165637013Y-77840338D01*
X165582598Y-77942140D01*
X165509370Y-78031370D01*
X165420140Y-78104598D01*
X165318338Y-78159013D01*
X165281517Y-78170182D01*
X165207876Y-78192521D01*
X165093000Y-78203835D01*
X164978125Y-78192521D01*
X164904484Y-78170182D01*
X164867663Y-78159013D01*
X164765861Y-78104598D01*
X164676631Y-78031370D01*
X164603403Y-77942140D01*
X164548989Y-77840339D01*
X164548988Y-77840337D01*
X164515479Y-77729876D01*
X164507000Y-77643785D01*
X164507000Y-76856216D01*
X164515479Y-76770125D01*
X164548987Y-76659664D01*
X164548987Y-76659663D01*
X164603402Y-76557861D01*
X164656038Y-76493724D01*
X164676631Y-76468631D01*
X164765861Y-76395402D01*
X164785634Y-76384833D01*
X164867662Y-76340987D01*
X164904483Y-76329818D01*
X164978124Y-76307479D01*
X165093000Y-76296165D01*
X165207875Y-76307479D01*
X165207875Y-76307479D01*
G37*
G36*
X164155000Y-78201000D02*
G01*
X162983000Y-78201000D01*
X162983000Y-76299000D01*
X164155000Y-76299000D01*
X164155000Y-78201000D01*
X164155000Y-78201000D01*
G37*
G36*
X122668304Y-76044185D02*
G01*
X122777199Y-76082480D01*
X122777200Y-76082481D01*
X122777201Y-76082481D01*
X122876527Y-76141280D01*
X122876530Y-76141283D01*
X122962481Y-76218334D01*
X123031748Y-76310674D01*
X123031749Y-76310676D01*
X123081669Y-76414749D01*
X123098767Y-76481465D01*
X123110327Y-76526570D01*
X123110327Y-76526572D01*
X123116621Y-76641832D01*
X123111620Y-76676856D01*
X123100306Y-76756104D01*
X123075488Y-76826676D01*
X123071606Y-76837715D01*
X122738768Y-77551486D01*
X122738764Y-77551492D01*
X122694696Y-77625933D01*
X122617645Y-77711883D01*
X122525304Y-77781151D01*
X122525302Y-77781152D01*
X122421229Y-77831072D01*
X122348508Y-77849709D01*
X122309408Y-77859730D01*
X122303114Y-77860074D01*
X122194148Y-77866024D01*
X122092567Y-77851521D01*
X122079876Y-77849709D01*
X122020810Y-77828937D01*
X121970983Y-77811415D01*
X121970981Y-77811414D01*
X121871650Y-77752611D01*
X121785700Y-77675560D01*
X121716432Y-77583219D01*
X121701211Y-77551486D01*
X121666511Y-77479144D01*
X121637853Y-77367322D01*
X121631559Y-77252063D01*
X121647874Y-77137794D01*
X121647874Y-77137791D01*
X121676573Y-77056183D01*
X122009416Y-76342402D01*
X122010254Y-76340987D01*
X122030090Y-76307479D01*
X122053484Y-76267961D01*
X122130535Y-76182010D01*
X122222875Y-76112743D01*
X122256615Y-76096560D01*
X122326953Y-76062820D01*
X122438773Y-76034163D01*
X122554031Y-76027870D01*
X122554032Y-76027870D01*
X122668304Y-76044185D01*
X122668304Y-76044185D01*
G37*
G36*
X121287091Y-75400115D02*
G01*
X121395986Y-75438410D01*
X121395987Y-75438411D01*
X121395988Y-75438411D01*
X121495314Y-75497210D01*
X121495317Y-75497213D01*
X121581268Y-75574264D01*
X121650535Y-75666604D01*
X121650536Y-75666606D01*
X121700456Y-75770679D01*
X121719561Y-75845228D01*
X121729114Y-75882500D01*
X121729114Y-75882502D01*
X121735408Y-75997762D01*
X121726119Y-76062820D01*
X121719093Y-76112034D01*
X121708808Y-76141280D01*
X121690393Y-76193645D01*
X121357555Y-76907416D01*
X121357551Y-76907422D01*
X121313483Y-76981863D01*
X121236432Y-77067813D01*
X121144091Y-77137081D01*
X121144089Y-77137082D01*
X121040016Y-77187002D01*
X120967295Y-77205639D01*
X120928195Y-77215660D01*
X120921901Y-77216004D01*
X120812935Y-77221954D01*
X120711354Y-77207451D01*
X120698663Y-77205639D01*
X120626746Y-77180348D01*
X120589770Y-77167345D01*
X120539847Y-77137791D01*
X120490437Y-77108541D01*
X120404487Y-77031490D01*
X120335219Y-76939149D01*
X120319998Y-76907416D01*
X120285298Y-76835074D01*
X120256640Y-76723252D01*
X120250346Y-76607993D01*
X120262442Y-76523274D01*
X120266661Y-76493721D01*
X120295360Y-76412113D01*
X120628203Y-75698332D01*
X120672271Y-75623891D01*
X120749322Y-75537940D01*
X120841662Y-75468673D01*
X120875402Y-75452490D01*
X120945740Y-75418750D01*
X121057560Y-75390093D01*
X121172818Y-75383800D01*
X121172819Y-75383800D01*
X121287091Y-75400115D01*
X121287091Y-75400115D01*
G37*
G36*
X187067356Y-74914407D02*
G01*
X187216656Y-74944104D01*
X187380628Y-75012024D01*
X187528198Y-75110627D01*
X187653697Y-75236126D01*
X187752300Y-75383696D01*
X187820220Y-75547668D01*
X187854844Y-75721739D01*
X187854844Y-75899221D01*
X187820220Y-76073292D01*
X187752300Y-76237264D01*
X187653697Y-76384834D01*
X187528198Y-76510333D01*
X187380628Y-76608936D01*
X187216656Y-76676856D01*
X187067356Y-76706553D01*
X187042586Y-76711480D01*
X186865102Y-76711480D01*
X186840332Y-76706553D01*
X186691032Y-76676856D01*
X186527060Y-76608936D01*
X186379490Y-76510333D01*
X186253991Y-76384834D01*
X186155388Y-76237264D01*
X186087468Y-76073292D01*
X186052844Y-75899221D01*
X186052844Y-75721739D01*
X186087468Y-75547668D01*
X186155388Y-75383696D01*
X186253991Y-75236126D01*
X186379490Y-75110627D01*
X186527060Y-75012024D01*
X186691032Y-74944104D01*
X186840332Y-74914407D01*
X186865102Y-74909480D01*
X187042586Y-74909480D01*
X187067356Y-74914407D01*
X187067356Y-74914407D01*
G37*
G36*
X119905878Y-74756045D02*
G01*
X120014773Y-74794340D01*
X120014774Y-74794341D01*
X120014775Y-74794341D01*
X120114101Y-74853140D01*
X120114104Y-74853143D01*
X120200055Y-74930194D01*
X120269322Y-75022534D01*
X120269323Y-75022536D01*
X120319243Y-75126609D01*
X120338348Y-75201158D01*
X120347901Y-75238430D01*
X120347901Y-75238432D01*
X120354195Y-75353692D01*
X120344906Y-75418750D01*
X120337880Y-75467964D01*
X120327595Y-75497210D01*
X120309180Y-75549575D01*
X119976342Y-76263346D01*
X119976338Y-76263352D01*
X119932270Y-76337793D01*
X119855219Y-76423743D01*
X119762878Y-76493011D01*
X119762876Y-76493012D01*
X119658803Y-76542932D01*
X119586082Y-76561569D01*
X119546982Y-76571590D01*
X119540688Y-76571934D01*
X119431722Y-76577884D01*
X119330141Y-76563381D01*
X119317450Y-76561569D01*
X119258384Y-76540797D01*
X119208557Y-76523275D01*
X119186695Y-76510333D01*
X119109224Y-76464471D01*
X119023274Y-76387420D01*
X118954006Y-76295079D01*
X118940999Y-76267962D01*
X118904085Y-76191004D01*
X118875427Y-76079182D01*
X118869133Y-75963923D01*
X118885448Y-75849654D01*
X118885448Y-75849651D01*
X118914147Y-75768043D01*
X119246990Y-75054262D01*
X119291058Y-74979821D01*
X119368109Y-74893870D01*
X119460449Y-74824603D01*
X119494189Y-74808420D01*
X119564527Y-74774680D01*
X119676347Y-74746023D01*
X119791605Y-74739730D01*
X119791606Y-74739730D01*
X119905878Y-74756045D01*
X119905878Y-74756045D01*
G37*
G36*
X176380875Y-73037479D02*
G01*
X176454516Y-73059818D01*
X176491337Y-73070987D01*
X176593139Y-73125402D01*
X176624330Y-73151000D01*
X176682369Y-73198631D01*
X176755598Y-73287861D01*
X176755599Y-73287863D01*
X176810013Y-73389662D01*
X176821182Y-73426483D01*
X176843521Y-73500124D01*
X176852000Y-73586215D01*
X176852000Y-74373785D01*
X176843521Y-74459876D01*
X176821182Y-74533517D01*
X176810013Y-74570338D01*
X176755598Y-74672140D01*
X176682370Y-74761370D01*
X176593140Y-74834598D01*
X176491338Y-74889013D01*
X176475326Y-74893870D01*
X176380876Y-74922521D01*
X176266000Y-74933835D01*
X176151125Y-74922521D01*
X176056675Y-74893870D01*
X176040663Y-74889013D01*
X175938861Y-74834598D01*
X175849631Y-74761370D01*
X175776403Y-74672140D01*
X175721989Y-74570339D01*
X175721988Y-74570337D01*
X175688479Y-74459876D01*
X175680000Y-74373785D01*
X175680000Y-73586216D01*
X175688479Y-73500125D01*
X175721987Y-73389664D01*
X175721987Y-73389663D01*
X175776402Y-73287861D01*
X175849629Y-73198634D01*
X175849631Y-73198631D01*
X175938861Y-73125402D01*
X175991643Y-73097189D01*
X176040662Y-73070987D01*
X176077483Y-73059818D01*
X176151124Y-73037479D01*
X176266000Y-73026165D01*
X176380875Y-73037479D01*
X176380875Y-73037479D01*
G37*
G36*
X173332875Y-73037479D02*
G01*
X173406516Y-73059818D01*
X173443337Y-73070987D01*
X173545139Y-73125402D01*
X173576330Y-73151000D01*
X173634369Y-73198631D01*
X173707598Y-73287861D01*
X173707599Y-73287863D01*
X173762013Y-73389662D01*
X173773182Y-73426483D01*
X173795521Y-73500124D01*
X173804000Y-73586215D01*
X173804000Y-74373785D01*
X173795521Y-74459876D01*
X173773182Y-74533517D01*
X173762013Y-74570338D01*
X173707598Y-74672140D01*
X173634370Y-74761370D01*
X173545140Y-74834598D01*
X173443338Y-74889013D01*
X173427326Y-74893870D01*
X173332876Y-74922521D01*
X173218000Y-74933835D01*
X173103125Y-74922521D01*
X173008675Y-74893870D01*
X172992663Y-74889013D01*
X172890861Y-74834598D01*
X172801631Y-74761370D01*
X172728403Y-74672140D01*
X172673989Y-74570339D01*
X172673988Y-74570337D01*
X172640479Y-74459876D01*
X172632000Y-74373785D01*
X172632000Y-73586216D01*
X172640479Y-73500125D01*
X172673987Y-73389664D01*
X172673987Y-73389663D01*
X172728402Y-73287861D01*
X172801629Y-73198634D01*
X172801631Y-73198631D01*
X172890861Y-73125402D01*
X172943643Y-73097189D01*
X172992662Y-73070987D01*
X173029483Y-73059818D01*
X173103124Y-73037479D01*
X173218000Y-73026165D01*
X173332875Y-73037479D01*
X173332875Y-73037479D01*
G37*
G36*
X174856875Y-73037479D02*
G01*
X174930516Y-73059818D01*
X174967337Y-73070987D01*
X175069139Y-73125402D01*
X175100330Y-73151000D01*
X175158369Y-73198631D01*
X175231598Y-73287861D01*
X175231599Y-73287863D01*
X175286013Y-73389662D01*
X175297182Y-73426483D01*
X175319521Y-73500124D01*
X175328000Y-73586215D01*
X175328000Y-74373785D01*
X175319521Y-74459876D01*
X175297182Y-74533517D01*
X175286013Y-74570338D01*
X175231598Y-74672140D01*
X175158370Y-74761370D01*
X175069140Y-74834598D01*
X174967338Y-74889013D01*
X174951326Y-74893870D01*
X174856876Y-74922521D01*
X174742000Y-74933835D01*
X174627125Y-74922521D01*
X174532675Y-74893870D01*
X174516663Y-74889013D01*
X174414861Y-74834598D01*
X174325631Y-74761370D01*
X174252403Y-74672140D01*
X174197989Y-74570339D01*
X174197988Y-74570337D01*
X174164479Y-74459876D01*
X174156000Y-74373785D01*
X174156000Y-73586216D01*
X174164479Y-73500125D01*
X174197987Y-73389664D01*
X174197987Y-73389663D01*
X174252402Y-73287861D01*
X174325629Y-73198634D01*
X174325631Y-73198631D01*
X174414861Y-73125402D01*
X174467643Y-73097189D01*
X174516662Y-73070987D01*
X174553483Y-73059818D01*
X174627124Y-73037479D01*
X174742000Y-73026165D01*
X174856875Y-73037479D01*
X174856875Y-73037479D01*
G37*
G36*
X172280000Y-74931000D02*
G01*
X171108000Y-74931000D01*
X171108000Y-73029000D01*
X172280000Y-73029000D01*
X172280000Y-74931000D01*
X172280000Y-74931000D01*
G37*
G36*
X185169059Y-71677860D02*
G01*
X185229294Y-71702810D01*
X185305732Y-71734472D01*
X185428735Y-71816660D01*
X185533340Y-71921265D01*
X185615528Y-72044268D01*
X185672140Y-72180941D01*
X185701000Y-72326033D01*
X185701000Y-72473967D01*
X185672140Y-72619059D01*
X185615528Y-72755732D01*
X185533340Y-72878735D01*
X185428735Y-72983340D01*
X185305732Y-73065528D01*
X185305731Y-73065529D01*
X185305730Y-73065529D01*
X185169059Y-73122140D01*
X185023968Y-73151000D01*
X184876032Y-73151000D01*
X184730941Y-73122140D01*
X184594270Y-73065529D01*
X184594269Y-73065529D01*
X184594268Y-73065528D01*
X184471265Y-72983340D01*
X184366660Y-72878735D01*
X184284472Y-72755732D01*
X184227860Y-72619059D01*
X184199000Y-72473967D01*
X184199000Y-72326033D01*
X184227860Y-72180941D01*
X184284472Y-72044268D01*
X184366660Y-71921265D01*
X184471265Y-71816660D01*
X184594268Y-71734472D01*
X184670707Y-71702810D01*
X184730941Y-71677860D01*
X184876032Y-71649000D01*
X185023968Y-71649000D01*
X185169059Y-71677860D01*
X185169059Y-71677860D01*
G37*
G36*
X179943665Y-71652622D02*
G01*
X180017222Y-71659867D01*
X180158786Y-71702810D01*
X180289252Y-71772546D01*
X180319040Y-71796992D01*
X180403607Y-71866393D01*
X180473008Y-71950960D01*
X180497454Y-71980748D01*
X180567190Y-72111214D01*
X180610133Y-72252778D01*
X180624633Y-72400000D01*
X180610133Y-72547222D01*
X180567190Y-72688786D01*
X180497454Y-72819252D01*
X180473008Y-72849040D01*
X180403607Y-72933607D01*
X180343004Y-72983341D01*
X180289252Y-73027454D01*
X180158786Y-73097190D01*
X180017222Y-73140133D01*
X179943665Y-73147378D01*
X179906888Y-73151000D01*
X179833112Y-73151000D01*
X179796335Y-73147378D01*
X179722778Y-73140133D01*
X179581214Y-73097190D01*
X179450748Y-73027454D01*
X179396996Y-72983341D01*
X179336393Y-72933607D01*
X179266992Y-72849040D01*
X179242546Y-72819252D01*
X179172810Y-72688786D01*
X179129867Y-72547222D01*
X179115367Y-72400000D01*
X179129867Y-72252778D01*
X179172810Y-72111214D01*
X179242546Y-71980748D01*
X179266992Y-71950960D01*
X179336393Y-71866393D01*
X179420960Y-71796992D01*
X179450748Y-71772546D01*
X179581214Y-71702810D01*
X179722778Y-71659867D01*
X179796335Y-71652622D01*
X179833112Y-71649000D01*
X179906888Y-71649000D01*
X179943665Y-71652622D01*
X179943665Y-71652622D01*
G37*
M02*
