M48
; DRILL file {KiCad (5.1.0)-1} date 4/9/2019 6:08:49 PM
; FORMAT={-:-/ absolute / inch / decimal}
; #@! TF.CreationDate,2019-04-09T18:08:49-05:00
; #@! TF.GenerationSoftware,Kicad,Pcbnew,(5.1.0)-1
; #@! TF.FileFunction,Plated,1,2,PTH
FMAT,2
INCH
T1C0.0276
T2C0.0315
T3C0.0354
T4C0.0394
%
G90
G05
T1
X4.4646Y-3.6252
X4.4646Y-3.9252
X4.563Y-3.5858
X4.7559Y-3.389
X4.7559Y-3.689
X5.7283Y-2.9638
X5.7283Y-3.2638
X5.5433Y-3.0378
X5.5433Y-3.3378
X7.0866Y-2.6654
X7.0866Y-2.9654
X7.55Y-3.5988
X7.8149Y-3.458
X4.563Y-3.8858
X5.6339Y-2.9972
X5.6339Y-3.2972
T2
X8.8035Y-4.0035
X8.902Y-4.0035
X9.0283Y-4.4815
X9.1268Y-4.4815
X8.6268Y-3.7972
X8.7252Y-3.7972
X8.9555Y-4.2287
X9.0539Y-4.2287
X8.4268Y-3.6177
X8.5252Y-3.6177
T3
X7.8498Y-3.6307
X7.9098Y-3.6307
X7.9698Y-3.6307
X8.0298Y-3.6307
X7.5122Y-3.7551
X7.5722Y-3.7551
X7.6322Y-3.7551
X7.6922Y-3.7551
X4.9591Y-3.0948
X5.0135Y-3.1202
X5.0679Y-3.1455
X5.1223Y-3.1709
X5.2623Y-3.1153
X5.3166Y-3.1407
X5.371Y-3.166
X5.4254Y-3.1914
X6.4397Y-3.0413
X6.4997Y-3.0413
X6.5597Y-3.0413
X6.6197Y-3.0413
X4.7091Y-2.9787
X4.7635Y-3.0041
X4.8179Y-3.0294
X4.8723Y-3.0548
X7.8295Y-3.9512
X7.8895Y-3.9512
X7.9495Y-3.9512
X8.0095Y-3.9512
X6.687Y-3.2114
X6.747Y-3.2114
X6.807Y-3.2114
X6.867Y-3.2114
X5.1254Y-3.3586
X5.1798Y-3.384
X5.2341Y-3.4093
X5.2885Y-3.4347
X6.7596Y-2.9126
X6.8196Y-2.9126
X6.8796Y-2.9126
X6.9396Y-2.9126
T4
X7.054Y-3.2418
X7.1306Y-3.1775
X7.2072Y-3.1132
X7.2838Y-3.0489
X7.3604Y-2.9847
X7.3754Y-3.6248
X7.452Y-3.5605
X7.5286Y-3.4962
X7.6052Y-3.432
X7.6818Y-3.3677
T0
M30
